font.ufo
<glyph name="exclam" format="2">
	<unicode hex="0021"/>
	<advance width="294"/>
	<outline>
		<contour>
			<point x="106" y="204" type="line"/>
			<point x="168" y="204" type="line"/>
			<point x="254" y="570" type="line"/>
			<point x="275" y="671" type="line"/>
			<point x="183" y="671" type="line"/>
		</contour>
		<contour>
			<point x="97" y="-12" type="curve" smooth="yes"/>
			<point x="141" y="-12"/>
			<point x="171" y="27"/>
			<point x="171" y="65" type="curve" smooth="yes"/>
			<point x="171" y="98"/>
			<point x="152" y="122"/>
			<point x="119" y="122" type="curve" smooth="yes"/>
			<point x="76" y="122"/>
			<point x="44" y="82"/>
			<point x="44" y="44" type="curve" smooth="yes"/>
			<point x="44" y="12"/>
			<point x="65" y="-12"/>
		</contour>
	</outline>
</glyph>
<glyph name="numbersign" format="2">
	<unicode hex="0023"/>
	<advance width="486"/>
	<outline>
		<contour>
			<point x="36" y="0" type="line"/>
			<point x="99" y="0" type="line"/>
			<point x="162" y="199" type="line"/>
			<point x="276" y="199" type="line"/>
			<point x="212" y="0" type="line"/>
			<point x="276" y="0" type="line"/>
			<point x="340" y="199" type="line"/>
			<point x="422" y="199" type="line"/>
			<point x="438" y="267" type="line"/>
			<point x="359" y="267" type="line"/>
			<point x="404" y="403" type="line"/>
			<point x="484" y="403" type="line"/>
			<point x="500" y="471" type="line"/>
			<point x="423" y="471" type="line"/>
			<point x="480" y="650" type="line"/>
			<point x="416" y="650" type="line"/>
			<point x="359" y="471" type="line"/>
			<point x="246" y="471" type="line"/>
			<point x="304" y="650" type="line"/>
			<point x="239" y="650" type="line"/>
			<point x="182" y="471" type="line"/>
			<point x="99" y="471" type="line"/>
			<point x="83" y="403" type="line"/>
			<point x="162" y="403" type="line"/>
			<point x="118" y="267" type="line"/>
			<point x="38" y="267" type="line"/>
			<point x="22" y="199" type="line"/>
			<point x="99" y="199" type="line"/>
		</contour>
		<contour>
			<point x="182" y="267" type="line"/>
			<point x="226" y="403" type="line"/>
			<point x="340" y="403" type="line"/>
			<point x="296" y="267" type="line"/>
		</contour>
	</outline>
</glyph>
<glyph name="dollar" format="2">
	<unicode hex="0024"/>
	<advance width="487"/>
	<outline>
		<contour>
			<point x="210" y="-12" type="curve" smooth="yes"/>
			<point x="335" y="-12"/>
			<point x="418" y="72"/>
			<point x="418" y="183" type="curve" smooth="yes"/>
			<point x="418" y="350"/>
			<point x="208" y="366"/>
			<point x="208" y="481" type="curve" smooth="yes"/>
			<point x="208" y="535"/>
			<point x="249" y="574"/>
			<point x="309" y="574" type="curve" smooth="yes"/>
			<point x="352" y="574"/>
			<point x="391" y="545"/>
			<point x="419" y="508" type="curve"/>
			<point x="475" y="560" type="line"/>
			<point x="434" y="613"/>
			<point x="379" y="649"/>
			<point x="312" y="649" type="curve" smooth="yes"/>
			<point x="197" y="649"/>
			<point x="116" y="573"/>
			<point x="116" y="469" type="curve" smooth="yes"/>
			<point x="116" y="319"/>
			<point x="327" y="303"/>
			<point x="327" y="170" type="curve" smooth="yes"/>
			<point x="327" y="106"/>
			<point x="280" y="64"/>
			<point x="211" y="64" type="curve" smooth="yes"/>
			<point x="156" y="64"/>
			<point x="108" y="99"/>
			<point x="77" y="137" type="curve"/>
			<point x="23" y="84" type="line"/>
			<point x="66" y="31"/>
			<point x="135" y="-12"/>
		</contour>
		<contour>
			<point x="145" y="-110" type="line"/>
			<point x="210" y="-110" type="line"/>
			<point x="237" y="22" type="line"/>
			<point x="171" y="22" type="line"/>
		</contour>
		<contour>
			<point x="289" y="620" type="line"/>
			<point x="354" y="620" type="line"/>
			<point x="379" y="752" type="line"/>
			<point x="315" y="752" type="line"/>
		</contour>
	</outline>
</glyph>
<glyph name="ampersand" format="2">
	<unicode hex="0026"/>
	<advance width="595"/>
	<outline>
		<contour>
			<point x="185" y="-12" type="curve" smooth="yes"/>
			<point x="274" y="-12"/>
			<point x="351" y="27"/>
			<point x="416" y="91" type="curve" smooth="yes"/>
			<point x="492" y="166"/>
			<point x="549" y="258"/>
			<point x="595" y="356" type="curve"/>
			<point x="511" y="356" type="line"/>
			<point x="473" y="269"/>
			<point x="427" y="196"/>
			<point x="361" y="134" type="curve" smooth="yes"/>
			<point x="312" y="88"/>
			<point x="255" y="60"/>
			<point x="202" y="60" type="curve" smooth="yes"/>
			<point x="144" y="60"/>
			<point x="105" y="98"/>
			<point x="105" y="155" type="curve" smooth="yes"/>
			<point x="105" y="320"/>
			<point x="452" y="356"/>
			<point x="452" y="554" type="curve" smooth="yes"/>
			<point x="452" y="619"/>
			<point x="413" y="667"/>
			<point x="338" y="667" type="curve" smooth="yes"/>
			<point x="240" y="667"/>
			<point x="159" y="585"/>
			<point x="159" y="474" type="curve" smooth="yes"/>
			<point x="159" y="344"/>
			<point x="246" y="182"/>
			<point x="353" y="81" type="curve" smooth="yes"/>
			<point x="402" y="34"/>
			<point x="455" y="2"/>
			<point x="505" y="-12" type="curve"/>
			<point x="542" y="62" type="line"/>
			<point x="506" y="74"/>
			<point x="460" y="99"/>
			<point x="417" y="138" type="curve" smooth="yes"/>
			<point x="323" y="222"/>
			<point x="237" y="361"/>
			<point x="237" y="478" type="curve" smooth="yes"/>
			<point x="237" y="552"/>
			<point x="279" y="603"/>
			<point x="332" y="603" type="curve" smooth="yes"/>
			<point x="364" y="603"/>
			<point x="378" y="580"/>
			<point x="378" y="552" type="curve" smooth="yes"/>
			<point x="378" y="387"/>
			<point x="15" y="376"/>
			<point x="15" y="144" type="curve" smooth="yes"/>
			<point x="15" y="50"/>
			<point x="81" y="-12"/>
		</contour>
	</outline>
</glyph>
<glyph name="quotesingle" format="2">
	<unicode hex="0027"/>
	<advance width="254"/>
	<outline>
		<contour>
			<point x="126" y="410" type="line"/>
			<point x="188" y="410" type="line"/>
			<point x="234" y="570" type="line"/>
			<point x="255" y="671" type="line"/>
			<point x="164" y="671" type="line"/>
			<point x="148" y="570" type="line"/>
		</contour>
	</outline>
</glyph>
<glyph name="parenleft" format="2">
	<unicode hex="0028"/>
	<advance width="301"/>
	<outline>
		<contour>
			<point x="123" y="-179" type="curve"/>
			<point x="182" y="-155" type="line"/>
			<point x="154" y="-80"/>
			<point x="139" y="23"/>
			<point x="139" y="126" type="curve" smooth="yes"/>
			<point x="139" y="340"/>
			<point x="209" y="558"/>
			<point x="350" y="699" type="curve"/>
			<point x="296" y="732" type="line"/>
			<point x="147" y="587"/>
			<point x="62" y="375"/>
			<point x="62" y="127" type="curve" smooth="yes"/>
			<point x="62" y="12"/>
			<point x="88" y="-98"/>
		</contour>
	</outline>
</glyph>
<glyph name="parenright" format="2">
	<unicode hex="0029"/>
	<advance width="303"/>
	<outline>
		<contour>
			<point x="13" y="-179" type="line"/>
			<point x="161" y="-34"/>
			<point x="247" y="178"/>
			<point x="247" y="426" type="curve" smooth="yes"/>
			<point x="247" y="541"/>
			<point x="221" y="651"/>
			<point x="186" y="732" type="curve"/>
			<point x="127" y="708" type="line"/>
			<point x="155" y="633"/>
			<point x="170" y="530"/>
			<point x="170" y="427" type="curve" smooth="yes"/>
			<point x="170" y="213"/>
			<point x="100" y="-5"/>
			<point x="-41" y="-145" type="curve"/>
		</contour>
	</outline>
</glyph>
<glyph name="asterisk" format="2">
	<unicode hex="002A"/>
	<advance width="412"/>
	<outline>
		<contour>
			<point x="175" y="416" type="line"/>
			<point x="257" y="494" type="line"/>
			<point x="312" y="404" type="line"/>
			<point x="358" y="431" type="line"/>
			<point x="320" y="530" type="line"/>
			<point x="425" y="563" type="line"/>
			<point x="417" y="613" type="line"/>
			<point x="311" y="599" type="line"/>
			<point x="319" y="709" type="line"/>
			<point x="268" y="713" type="line"/>
			<point x="241" y="605" type="line"/>
			<point x="140" y="638" type="line"/>
			<point x="119" y="592" type="line"/>
			<point x="209" y="541" type="line"/>
			<point x="138" y="450" type="line"/>
		</contour>
	</outline>
</glyph>
<glyph name="plus" format="2">
	<unicode hex="002B"/>
	<advance width="487"/>
	<outline>
		<contour>
			<point x="220" y="101" type="line"/>
			<point x="291" y="101" type="line"/>
			<point x="291" y="297" type="line"/>
			<point x="465" y="297" type="line"/>
			<point x="465" y="364" type="line"/>
			<point x="292" y="364" type="line"/>
			<point x="292" y="557" type="line"/>
			<point x="221" y="557" type="line"/>
			<point x="221" y="364" type="line"/>
			<point x="48" y="364" type="line"/>
			<point x="48" y="297" type="line"/>
			<point x="220" y="297" type="line"/>
		</contour>
	</outline>
</glyph>
<glyph name="comma" format="2">
	<unicode hex="002C"/>
	<advance width="254"/>
	<outline>
		<contour>
			<point x="-18" y="-170" type="line"/>
			<point x="89" y="-142"/>
			<point x="159" y="-57"/>
			<point x="159" y="48" type="curve" smooth="yes"/>
			<point x="159" y="94"/>
			<point x="137" y="122"/>
			<point x="97" y="122" type="curve" smooth="yes"/>
			<point x="54" y="122"/>
			<point x="26" y="88"/>
			<point x="26" y="51" type="curve" smooth="yes"/>
			<point x="26" y="18"/>
			<point x="51" y="-3"/>
			<point x="85" y="-3" type="curve" smooth="yes"/>
			<point x="97" y="-3"/>
			<point x="112" y="3"/>
			<point x="122" y="12" type="curve"/>
			<point x="95" y="80" type="line"/>
			<point x="86" y="-1" type="line"/>
			<point x="76" y="-50"/>
			<point x="36" y="-93"/>
			<point x="-30" y="-116" type="curve"/>
		</contour>
	</outline>
</glyph>
<glyph name="period" format="2">
	<unicode hex="002E"/>
	<advance width="254"/>
	<outline>
		<contour>
			<point x="76" y="-12" type="curve" smooth="yes"/>
			<point x="120" y="-12"/>
			<point x="150" y="27"/>
			<point x="150" y="65" type="curve" smooth="yes"/>
			<point x="150" y="98"/>
			<point x="131" y="122"/>
			<point x="98" y="122" type="curve" smooth="yes"/>
			<point x="55" y="122"/>
			<point x="23" y="82"/>
			<point x="23" y="44" type="curve" smooth="yes"/>
			<point x="23" y="12"/>
			<point x="44" y="-12"/>
		</contour>
	</outline>
</glyph>
<glyph name="slash" format="2">
	<unicode hex="002F"/>
	<advance width="337"/>
	<outline>
		<contour>
			<point x="-71" y="-160" type="line"/>
			<point x="-7" y="-160" type="line"/>
			<point x="412" y="710" type="line"/>
			<point x="347" y="710" type="line"/>
		</contour>
	</outline>
</glyph>
<glyph name="zero" format="2">
	<unicode hex="0030"/>
	<advance width="487"/>
	<outline>
		<contour>
			<point x="204" y="-12" type="curve" smooth="yes"/>
			<point x="345" y="-12"/>
			<point x="471" y="178"/>
			<point x="471" y="427" type="curve" smooth="yes"/>
			<point x="471" y="559"/>
			<point x="410" y="649"/>
			<point x="309" y="649" type="curve" smooth="yes"/>
			<point x="168" y="649"/>
			<point x="41" y="457"/>
			<point x="41" y="208" type="curve" smooth="yes"/>
			<point x="41" y="76"/>
			<point x="103" y="-12"/>
		</contour>
		<contour>
			<point x="209" y="61" type="curve" smooth="yes"/>
			<point x="154" y="61"/>
			<point x="127" y="117"/>
			<point x="127" y="202" type="curve" smooth="yes"/>
			<point x="127" y="384"/>
			<point x="208" y="576"/>
			<point x="303" y="576" type="curve" smooth="yes"/>
			<point x="358" y="576"/>
			<point x="386" y="519"/>
			<point x="386" y="433" type="curve" smooth="yes"/>
			<point x="386" y="250"/>
			<point x="304" y="61"/>
		</contour>
	</outline>
</glyph>
<glyph name="one" format="2">
	<unicode hex="0031"/>
	<advance width="487"/>
	<outline>
		<contour>
			<point x="24" y="0" type="line"/>
			<point x="380" y="0" type="line"/>
			<point x="395" y="76" type="line"/>
			<point x="268" y="76" type="line"/>
			<point x="382" y="637" type="line"/>
			<point x="312" y="637" type="line"/>
			<point x="272" y="613"/>
			<point x="226" y="597"/>
			<point x="166" y="588" type="curve"/>
			<point x="154" y="530" type="line"/>
			<point x="268" y="530" type="line"/>
			<point x="176" y="76" type="line"/>
			<point x="40" y="76" type="line"/>
		</contour>
	</outline>
</glyph>
<glyph name="two" format="2">
	<unicode hex="0032"/>
	<advance width="487"/>
	<outline>
		<contour>
			<point x="-11" y="0" type="line"/>
			<point x="392" y="0" type="line"/>
			<point x="407" y="78" type="line"/>
			<point x="241" y="78" type="line" smooth="yes"/>
			<point x="209" y="78"/>
			<point x="168" y="76"/>
			<point x="134" y="73" type="curve"/>
			<point x="341" y="249"/>
			<point x="459" y="349"/>
			<point x="459" y="489" type="curve" smooth="yes"/>
			<point x="459" y="582"/>
			<point x="395" y="649"/>
			<point x="283" y="649" type="curve" smooth="yes"/>
			<point x="220" y="649"/>
			<point x="164" y="621"/>
			<point x="104" y="567" type="curve"/>
			<point x="148" y="514" type="line"/>
			<point x="192" y="552"/>
			<point x="231" y="574"/>
			<point x="272" y="574" type="curve" smooth="yes"/>
			<point x="337" y="574"/>
			<point x="369" y="532"/>
			<point x="369" y="478" type="curve" smooth="yes"/>
			<point x="369" y="359"/>
			<point x="241" y="256"/>
			<point x="0" y="58" type="curve"/>
		</contour>
	</outline>
</glyph>
<glyph name="three" format="2">
	<unicode hex="0033"/>
	<advance width="487"/>
	<outline>
		<contour>
			<point x="191" y="-12" type="curve" smooth="yes"/>
			<point x="326" y="-12"/>
			<point x="427" y="63"/>
			<point x="427" y="187" type="curve" smooth="yes"/>
			<point x="427" y="250"/>
			<point x="388" y="300"/>
			<point x="319" y="324" type="curve"/>
			<point x="319" y="328" type="line"/>
			<point x="418" y="358"/>
			<point x="464" y="420"/>
			<point x="464" y="501" type="curve" smooth="yes"/>
			<point x="464" y="590"/>
			<point x="400" y="649"/>
			<point x="291" y="649" type="curve" smooth="yes"/>
			<point x="228" y="649"/>
			<point x="167" y="629"/>
			<point x="110" y="587" type="curve"/>
			<point x="157" y="526" type="line"/>
			<point x="195" y="556"/>
			<point x="238" y="574"/>
			<point x="275" y="574" type="curve" smooth="yes"/>
			<point x="339" y="574"/>
			<point x="370" y="538"/>
			<point x="370" y="486" type="curve" smooth="yes"/>
			<point x="370" y="427"/>
			<point x="323" y="363"/>
			<point x="171" y="363" type="curve"/>
			<point x="157" y="295" type="line"/>
			<point x="289" y="295"/>
			<point x="335" y="249"/>
			<point x="335" y="185" type="curve" smooth="yes"/>
			<point x="335" y="114"/>
			<point x="276" y="64"/>
			<point x="191" y="64" type="curve" smooth="yes"/>
			<point x="130" y="64"/>
			<point x="81" y="102"/>
			<point x="49" y="147" type="curve"/>
			<point x="-11" y="99" type="line"/>
			<point x="34" y="34"/>
			<point x="106" y="-12"/>
		</contour>
	</outline>
</glyph>
<glyph name="four" format="2">
	<unicode hex="0034"/>
	<advance width="487"/>
	<outline>
		<contour>
			<point x="342" y="0" type="line"/>
			<point x="376" y="171" type="line"/>
			<point x="456" y="171" type="line"/>
			<point x="471" y="243" type="line"/>
			<point x="390" y="243" type="line"/>
			<point x="469" y="637" type="line"/>
			<point x="364" y="637" type="line"/>
			<point x="25" y="233" type="line"/>
			<point x="13" y="171" type="line"/>
			<point x="290" y="171" type="line"/>
			<point x="256" y="0" type="line"/>
		</contour>
		<contour>
			<point x="123" y="243" type="line"/>
			<point x="287" y="437" type="line" smooth="yes"/>
			<point x="314" y="470"/>
			<point x="340" y="506"/>
			<point x="366" y="544" type="curve"/>
			<point x="370" y="544" type="line"/>
			<point x="360" y="499"/>
			<point x="347" y="453"/>
			<point x="339" y="414" type="curve" smooth="yes"/>
			<point x="305" y="243" type="line"/>
		</contour>
	</outline>
</glyph>
<glyph name="six" format="2">
	<unicode hex="0036"/>
	<advance width="487"/>
	<outline>
		<contour>
			<point x="233" y="-12" type="curve" smooth="yes"/>
			<point x="355" y="-12"/>
			<point x="446" y="98"/>
			<point x="446" y="223" type="curve" smooth="yes"/>
			<point x="446" y="329"/>
			<point x="383" y="389"/>
			<point x="290" y="389" type="curve" smooth="yes"/>
			<point x="247" y="389"/>
			<point x="184" y="364"/>
			<point x="142" y="313" type="curve"/>
			<point x="133" y="239" type="line"/>
			<point x="182" y="304"/>
			<point x="236" y="322"/>
			<point x="268" y="322" type="curve" smooth="yes"/>
			<point x="328" y="322"/>
			<point x="361" y="279"/>
			<point x="361" y="211" type="curve" smooth="yes"/>
			<point x="361" y="137"/>
			<point x="309" y="59"/>
			<point x="238" y="59" type="curve" smooth="yes"/>
			<point x="177" y="59"/>
			<point x="137" y="115"/>
			<point x="137" y="202" type="curve" smooth="yes"/>
			<point x="137" y="413"/>
			<point x="241" y="574"/>
			<point x="354" y="574" type="curve" smooth="yes"/>
			<point x="394" y="574"/>
			<point x="421" y="552"/>
			<point x="442" y="519" type="curve"/>
			<point x="497" y="566" type="line"/>
			<point x="469" y="612"/>
			<point x="427" y="649"/>
			<point x="360" y="649" type="curve" smooth="yes"/>
			<point x="187" y="649"/>
			<point x="51" y="452"/>
			<point x="51" y="207" type="curve" smooth="yes"/>
			<point x="51" y="78"/>
			<point x="121" y="-12"/>
		</contour>
	</outline>
</glyph>
<glyph name="seven" format="2">
	<unicode hex="0037"/>
	<advance width="487"/>
	<outline>
		<contour>
			<point x="115" y="0" type="curve"/>
			<point x="211" y="0" type="line"/>
			<point x="255" y="195"/>
			<point x="316" y="381"/>
			<point x="513" y="578" type="curve"/>
			<point x="525" y="637" type="line"/>
			<point x="118" y="637" type="line"/>
			<point x="102" y="559" type="line"/>
			<point x="404" y="559" type="line"/>
			<point x="249" y="391"/>
			<point x="173" y="219"/>
		</contour>
	</outline>
</glyph>
<glyph name="eight" format="2">
	<unicode hex="0038"/>
	<advance width="487"/>
	<outline>
		<contour>
			<point x="217" y="-12" type="curve" smooth="yes"/>
			<point x="338" y="-12"/>
			<point x="442" y="57"/>
			<point x="442" y="170" type="curve" smooth="yes"/>
			<point x="442" y="239"/>
			<point x="397" y="292"/>
			<point x="355" y="320" type="curve"/>
			<point x="355" y="324" type="line"/>
			<point x="429" y="364"/>
			<point x="481" y="418"/>
			<point x="481" y="500" type="curve" smooth="yes"/>
			<point x="481" y="602"/>
			<point x="402" y="649"/>
			<point x="321" y="649" type="curve" smooth="yes"/>
			<point x="215" y="649"/>
			<point x="124" y="585"/>
			<point x="124" y="477" type="curve" smooth="yes"/>
			<point x="124" y="423"/>
			<point x="145" y="386"/>
			<point x="184" y="345" type="curve"/>
			<point x="184" y="341" type="line"/>
			<point x="104" y="308"/>
			<point x="33" y="248"/>
			<point x="33" y="154" type="curve" smooth="yes"/>
			<point x="33" y="41"/>
			<point x="129" y="-12"/>
		</contour>
		<contour>
			<point x="309" y="352" type="curve"/>
			<point x="243" y="386"/>
			<point x="207" y="420"/>
			<point x="207" y="483" type="curve" smooth="yes"/>
			<point x="207" y="545"/>
			<point x="257" y="581"/>
			<point x="314" y="581" type="curve" smooth="yes"/>
			<point x="362" y="581"/>
			<point x="401" y="546"/>
			<point x="401" y="485" type="curve" smooth="yes"/>
			<point x="401" y="424"/>
			<point x="356" y="382"/>
		</contour>
		<contour>
			<point x="226" y="55" type="curve" smooth="yes"/>
			<point x="167" y="55"/>
			<point x="116" y="95"/>
			<point x="116" y="166" type="curve" smooth="yes"/>
			<point x="116" y="233"/>
			<point x="163" y="276"/>
			<point x="226" y="311" type="curve"/>
			<point x="299" y="270"/>
			<point x="357" y="234"/>
			<point x="357" y="165" type="curve" smooth="yes"/>
			<point x="357" y="93"/>
			<point x="292" y="55"/>
		</contour>
	</outline>
</glyph>
<glyph name="nine" format="2">
	<unicode hex="0039"/>
	<advance width="487"/>
	<outline>
		<contour>
			<point x="160" y="-12" type="curve" smooth="yes"/>
			<point x="334" y="-12"/>
			<point x="463" y="170"/>
			<point x="463" y="430" type="curve" smooth="yes"/>
			<point x="463" y="559"/>
			<point x="393" y="649"/>
			<point x="281" y="649" type="curve" smooth="yes"/>
			<point x="159" y="649"/>
			<point x="68" y="539"/>
			<point x="68" y="414" type="curve" smooth="yes"/>
			<point x="68" y="308"/>
			<point x="131" y="248"/>
			<point x="224" y="248" type="curve" smooth="yes"/>
			<point x="267" y="248"/>
			<point x="330" y="273"/>
			<point x="372" y="324" type="curve"/>
			<point x="381" y="398" type="line"/>
			<point x="332" y="333"/>
			<point x="278" y="315"/>
			<point x="247" y="315" type="curve" smooth="yes"/>
			<point x="186" y="315"/>
			<point x="154" y="358"/>
			<point x="154" y="426" type="curve" smooth="yes"/>
			<point x="154" y="500"/>
			<point x="205" y="578"/>
			<point x="276" y="578" type="curve" smooth="yes"/>
			<point x="337" y="578"/>
			<point x="377" y="522"/>
			<point x="377" y="436" type="curve" smooth="yes"/>
			<point x="377" y="209"/>
			<point x="280" y="64"/>
			<point x="166" y="64" type="curve" smooth="yes"/>
			<point x="124" y="64"/>
			<point x="96" y="84"/>
			<point x="75" y="120" type="curve"/>
			<point x="14" y="71" type="line"/>
			<point x="41" y="28"/>
			<point x="87" y="-12"/>
		</contour>
	</outline>
</glyph>
<glyph name="less" format="2">
	<unicode hex="003C"/>
	<advance width="487"/>
	<outline>
		<contour>
			<point x="465" y="128" type="line"/>
			<point x="465" y="206" type="line"/>
			<point x="270" y="281" type="line"/>
			<point x="144" y="329" type="line"/>
			<point x="144" y="333" type="line"/>
			<point x="270" y="381" type="line"/>
			<point x="465" y="456" type="line"/>
			<point x="465" y="533" type="line"/>
			<point x="46" y="364" type="line"/>
			<point x="46" y="297" type="line"/>
		</contour>
	</outline>
</glyph>
<glyph name="greater" format="2">
	<unicode hex="003E"/>
	<advance width="487"/>
	<outline>
		<contour>
			<point x="48" y="128" type="line"/>
			<point x="467" y="297" type="line"/>
			<point x="467" y="364" type="line"/>
			<point x="48" y="533" type="line"/>
			<point x="48" y="456" type="line"/>
			<point x="243" y="381" type="line"/>
			<point x="369" y="333" type="line"/>
			<point x="369" y="329" type="line"/>
			<point x="243" y="281" type="line"/>
			<point x="48" y="206" type="line"/>
		</contour>
	</outline>
</glyph>
<glyph name="question" format="2">
	<unicode hex="003F"/>
	<advance width="418"/>
	<outline>
		<contour>
			<point x="145" y="209" type="curve"/>
			<point x="224" y="202" type="line"/>
			<point x="239" y="350"/>
			<point x="428" y="380"/>
			<point x="428" y="540" type="curve" smooth="yes"/>
			<point x="428" y="629"/>
			<point x="365" y="682"/>
			<point x="269" y="682" type="curve" smooth="yes"/>
			<point x="209" y="682"/>
			<point x="153" y="654"/>
			<point x="112" y="612" type="curve"/>
			<point x="160" y="558" type="line"/>
			<point x="188" y="588"/>
			<point x="223" y="606"/>
			<point x="258" y="606" type="curve" smooth="yes"/>
			<point x="307" y="606"/>
			<point x="338" y="576"/>
			<point x="338" y="526" type="curve" smooth="yes"/>
			<point x="338" y="410"/>
			<point x="157" y="375"/>
		</contour>
		<contour>
			<point x="146" y="-12" type="curve" smooth="yes"/>
			<point x="190" y="-12"/>
			<point x="220" y="27"/>
			<point x="220" y="65" type="curve" smooth="yes"/>
			<point x="220" y="98"/>
			<point x="201" y="122"/>
			<point x="168" y="122" type="curve" smooth="yes"/>
			<point x="125" y="122"/>
			<point x="93" y="82"/>
			<point x="93" y="44" type="curve" smooth="yes"/>
			<point x="93" y="12"/>
			<point x="114" y="-12"/>
		</contour>
	</outline>
</glyph>
<glyph name="at" format="2">
	<unicode hex="0040"/>
	<advance width="827"/>
	<outline>
		<contour>
			<point x="361" y="-160" type="curve" smooth="yes"/>
			<point x="420" y="-160"/>
			<point x="472" y="-145"/>
			<point x="529" y="-115" type="curve"/>
			<point x="501" y="-60" type="line"/>
			<point x="462" y="-83"/>
			<point x="416" y="-93"/>
			<point x="368" y="-93" type="curve" smooth="yes"/>
			<point x="233" y="-93"/>
			<point x="118" y="0"/>
			<point x="118" y="175" type="curve" smooth="yes"/>
			<point x="118" y="408"/>
			<point x="303" y="584"/>
			<point x="478" y="584" type="curve" smooth="yes"/>
			<point x="651" y="584"/>
			<point x="722" y="475"/>
			<point x="722" y="340" type="curve" smooth="yes"/>
			<point x="722" y="192"/>
			<point x="652" y="111"/>
			<point x="591" y="111" type="curve" smooth="yes"/>
			<point x="545" y="111"/>
			<point x="535" y="148"/>
			<point x="547" y="205" type="curve" smooth="yes"/>
			<point x="599" y="428" type="line"/>
			<point x="529" y="428" type="line"/>
			<point x="519" y="389" type="line"/>
			<point x="515" y="389" type="line"/>
			<point x="505" y="420"/>
			<point x="478" y="438"/>
			<point x="444" y="438" type="curve" smooth="yes"/>
			<point x="333" y="438"/>
			<point x="241" y="315"/>
			<point x="241" y="192" type="curve" smooth="yes"/>
			<point x="241" y="99"/>
			<point x="298" y="51"/>
			<point x="364" y="51" type="curve" smooth="yes"/>
			<point x="407" y="51"/>
			<point x="450" y="76"/>
			<point x="477" y="117" type="curve"/>
			<point x="480" y="117" type="line"/>
			<point x="490" y="68"/>
			<point x="528" y="43"/>
			<point x="574" y="43" type="curve" smooth="yes"/>
			<point x="690" y="43"/>
			<point x="797" y="149"/>
			<point x="797" y="351" type="curve" smooth="yes"/>
			<point x="797" y="523"/>
			<point x="685" y="650"/>
			<point x="485" y="650" type="curve" smooth="yes"/>
			<point x="255" y="650"/>
			<point x="40" y="441"/>
			<point x="40" y="163" type="curve" smooth="yes"/>
			<point x="40" y="-45"/>
			<point x="183" y="-160"/>
		</contour>
		<contour>
			<point x="382" y="120" type="curve" smooth="yes"/>
			<point x="348" y="120"/>
			<point x="324" y="147"/>
			<point x="324" y="199" type="curve" smooth="yes"/>
			<point x="324" y="270"/>
			<point x="376" y="366"/>
			<point x="445" y="366" type="curve" smooth="yes"/>
			<point x="466" y="366"/>
			<point x="484" y="356"/>
			<point x="496" y="330" type="curve"/>
			<point x="461" y="175" type="line"/>
			<point x="434" y="138"/>
			<point x="408" y="120"/>
		</contour>
	</outline>
</glyph>
<glyph name="A" format="2">
	<unicode hex="0041"/>
	<advance width="520"/>
	<outline>
		<contour>
			<point x="-54" y="0" type="line"/>
			<point x="47" y="0" type="line"/>
			<point x="234" y="371" type="line" smooth="yes"/>
			<point x="269" y="441"/>
			<point x="301" y="506"/>
			<point x="334" y="579" type="curve"/>
			<point x="338" y="579" type="line"/>
			<point x="342" y="506"/>
			<point x="348" y="439"/>
			<point x="353" y="371" type="curve" smooth="yes"/>
			<point x="383" y="0" type="line"/>
			<point x="480" y="0" type="line"/>
			<point x="406" y="655" type="line"/>
			<point x="298" y="655" type="line"/>
		</contour>
		<contour>
			<point x="107" y="194" type="line"/>
			<point x="399" y="194" type="line"/>
			<point x="415" y="266" type="line"/>
			<point x="125" y="266" type="line"/>
		</contour>
	</outline>
	<anchor name="aboveUC" x="349" y="677"/>
	<anchor name="belowLC" x="220" y="-22"/>
	<anchor name="ogonekUC" x="420" y="0"/>
</glyph>
<glyph name="B" format="2">
	<unicode hex="0042"/>
	<advance width="575"/>
	<outline>
		<contour>
			<point x="33" y="0" type="line"/>
			<point x="250" y="0" type="line" smooth="yes"/>
			<point x="405" y="0"/>
			<point x="523" y="63"/>
			<point x="523" y="211" type="curve" smooth="yes"/>
			<point x="523" y="283"/>
			<point x="474" y="325"/>
			<point x="405" y="341" type="curve"/>
			<point x="405" y="345" type="line"/>
			<point x="482" y="364"/>
			<point x="551" y="424"/>
			<point x="551" y="509" type="curve" smooth="yes"/>
			<point x="551" y="606"/>
			<point x="472" y="655"/>
			<point x="345" y="655" type="curve" smooth="yes"/>
			<point x="164" y="655" type="line"/>
		</contour>
		<contour>
			<point x="201" y="377" type="line"/>
			<point x="243" y="582" type="line"/>
			<point x="325" y="582" type="line" smooth="yes"/>
			<point x="417" y="582"/>
			<point x="458" y="550"/>
			<point x="458" y="495" type="curve" smooth="yes"/>
			<point x="458" y="425"/>
			<point x="404" y="377"/>
			<point x="288" y="377" type="curve" smooth="yes"/>
		</contour>
		<contour>
			<point x="140" y="73" type="line"/>
			<point x="189" y="311" type="line"/>
			<point x="296" y="311" type="line" smooth="yes"/>
			<point x="386" y="311"/>
			<point x="435" y="273"/>
			<point x="435" y="206" type="curve" smooth="yes"/>
			<point x="435" y="114"/>
			<point x="363" y="73"/>
			<point x="247" y="73" type="curve" smooth="yes"/>
		</contour>
	</outline>
	<anchor name="aboveUC" x="365" y="677"/>
	<anchor name="belowLC" x="260" y="-22"/>
</glyph>
<glyph name="C" format="2">
	<unicode hex="0043"/>
	<advance width="554"/>
	<outline>
		<contour>
			<point x="292" y="-12" type="curve" smooth="yes"/>
			<point x="376" y="-12"/>
			<point x="434" y="21"/>
			<point x="483" y="66" type="curve"/>
			<point x="444" y="123" type="line"/>
			<point x="406" y="90"/>
			<point x="361" y="68"/>
			<point x="307" y="68" type="curve" smooth="yes"/>
			<point x="199" y="68"/>
			<point x="152" y="148"/>
			<point x="152" y="263" type="curve" smooth="yes"/>
			<point x="152" y="417"/>
			<point x="248" y="587"/>
			<point x="390" y="587" type="curve" smooth="yes"/>
			<point x="442" y="587"/>
			<point x="480" y="565"/>
			<point x="506" y="523" type="curve"/>
			<point x="559" y="572" type="line"/>
			<point x="531" y="630"/>
			<point x="471" y="667"/>
			<point x="396" y="667" type="curve" smooth="yes"/>
			<point x="197" y="667"/>
			<point x="57" y="466"/>
			<point x="57" y="255" type="curve" smooth="yes"/>
			<point x="57" y="94"/>
			<point x="144" y="-12"/>
		</contour>
	</outline>
	<anchor name="aboverightUC" x="555" y="677"/>
	<anchor name="aboveUC" x="395" y="677"/>
	<anchor name="baseLC" x="270" y="0"/>
	<anchor name="belowLC" x="265" y="-22"/>
</glyph>
<glyph name="D" format="2">
	<unicode hex="0044"/>
	<advance width="601"/>
	<outline>
		<contour>
			<point x="33" y="0" type="line"/>
			<point x="219" y="0" type="line" smooth="yes"/>
			<point x="433" y="0"/>
			<point x="575" y="158"/>
			<point x="575" y="395" type="curve" smooth="yes"/>
			<point x="575" y="563"/>
			<point x="472" y="655"/>
			<point x="294" y="655" type="curve" smooth="yes"/>
			<point x="164" y="655" type="line"/>
		</contour>
		<contour>
			<point x="141" y="76" type="line"/>
			<point x="242" y="580" type="line"/>
			<point x="291" y="580" type="line" smooth="yes"/>
			<point x="408" y="580"/>
			<point x="480" y="513"/>
			<point x="480" y="389" type="curve" smooth="yes"/>
			<point x="480" y="201"/>
			<point x="372" y="76"/>
			<point x="218" y="76" type="curve" smooth="yes"/>
		</contour>
	</outline>
	<anchor name="aboveUC" x="369" y="677"/>
	<anchor name="belowLC" x="255" y="-22"/>
</glyph>
<glyph name="E" format="2">
	<unicode hex="0045"/>
	<advance width="508"/>
	<outline>
		<contour>
			<point x="33" y="0" type="line"/>
			<point x="410" y="0" type="line"/>
			<point x="426" y="78" type="line"/>
			<point x="141" y="78" type="line"/>
			<point x="188" y="304" type="line"/>
			<point x="420" y="304" type="line"/>
			<point x="436" y="382" type="line"/>
			<point x="202" y="382" type="line"/>
			<point x="241" y="577" type="line"/>
			<point x="517" y="577" type="line"/>
			<point x="532" y="655" type="line"/>
			<point x="164" y="655" type="line"/>
		</contour>
	</outline>
	<anchor name="aboveUC" x="355" y="677"/>
	<anchor name="baseLC" x="240" y="0"/>
	<anchor name="belowLC" x="235" y="-22"/>
	<anchor name="ogonekUC" x="339" y="0"/>
</glyph>
<glyph name="G" format="2">
	<unicode hex="0047"/>
	<advance width="594"/>
	<outline>
		<contour>
			<point x="304" y="-12" type="curve" smooth="yes"/>
			<point x="380" y="-12"/>
			<point x="446" y="16"/>
			<point x="494" y="55" type="curve"/>
			<point x="552" y="346" type="line"/>
			<point x="341" y="346" type="line"/>
			<point x="326" y="270" type="line"/>
			<point x="454" y="270" type="line"/>
			<point x="419" y="103" type="line"/>
			<point x="396" y="83"/>
			<point x="360" y="67"/>
			<point x="318" y="67" type="curve" smooth="yes"/>
			<point x="198" y="67"/>
			<point x="152" y="150"/>
			<point x="152" y="263" type="curve" smooth="yes"/>
			<point x="152" y="418"/>
			<point x="250" y="587"/>
			<point x="399" y="587" type="curve" smooth="yes"/>
			<point x="453" y="587"/>
			<point x="493" y="562"/>
			<point x="520" y="519" type="curve"/>
			<point x="574" y="573" type="line"/>
			<point x="543" y="629"/>
			<point x="483" y="667"/>
			<point x="404" y="667" type="curve" smooth="yes"/>
			<point x="195" y="667"/>
			<point x="57" y="468"/>
			<point x="57" y="255" type="curve" smooth="yes"/>
			<point x="57" y="92"/>
			<point x="145" y="-12"/>
		</contour>
	</outline>
	<anchor name="aboveUC" x="400" y="677"/>
	<anchor name="belowLC" x="285" y="-22"/>
</glyph>
<glyph name="H" format="2">
	<unicode hex="0048"/>
	<advance width="630"/>
	<outline>
		<contour>
			<point x="33" y="0" type="line"/>
			<point x="126" y="0" type="line"/>
			<point x="187" y="303" type="line"/>
			<point x="464" y="303" type="line"/>
			<point x="403" y="0" type="line"/>
			<point x="496" y="0" type="line"/>
			<point x="627" y="655" type="line"/>
			<point x="534" y="655" type="line"/>
			<point x="480" y="384" type="line"/>
			<point x="202" y="384" type="line"/>
			<point x="257" y="655" type="line"/>
			<point x="164" y="655" type="line"/>
		</contour>
	</outline>
	<anchor name="aboveUC" x="389" y="677"/>
	<anchor name="belowLC" x="275" y="-22"/>
</glyph>
<glyph name="I" format="2">
	<unicode hex="0049"/>
	<advance width="261"/>
	<outline>
		<contour>
			<point x="33" y="0" type="line"/>
			<point x="126" y="0" type="line"/>
			<point x="257" y="655" type="line"/>
			<point x="164" y="655" type="line"/>
		</contour>
	</outline>
	<anchor name="aboveUC" x="214" y="677"/>
	<anchor name="belowLC" x="79" y="-22"/>
	<anchor name="ogonekUC" x="75" y="0"/>
</glyph>
<glyph name="J" format="2">
	<unicode hex="004A"/>
	<advance width="465"/>
	<outline>
		<contour>
			<point x="163" y="-12" type="curve" smooth="yes"/>
			<point x="284" y="-12"/>
			<point x="352" y="75"/>
			<point x="374" y="189" type="curve" smooth="yes"/>
			<point x="467" y="655" type="line"/>
			<point x="374" y="655" type="line"/>
			<point x="283" y="204" type="line" smooth="yes"/>
			<point x="266" y="118"/>
			<point x="227" y="68"/>
			<point x="164" y="68" type="curve" smooth="yes"/>
			<point x="110" y="68"/>
			<point x="75" y="94"/>
			<point x="54" y="138" type="curve"/>
			<point x="-2" y="93" type="line"/>
			<point x="27" y="25"/>
			<point x="85" y="-12"/>
		</contour>
	</outline>
	<anchor name="aboveUC" x="425" y="677"/>
	<anchor name="belowLC" x="159" y="-22"/>
</glyph>
<glyph name="K" format="2">
	<unicode hex="004B"/>
	<advance width="566"/>
	<outline>
		<contour>
			<point x="33" y="0" type="line"/>
			<point x="126" y="0" type="line"/>
			<point x="170" y="213" type="line"/>
			<point x="297" y="341" type="line"/>
			<point x="417" y="0" type="line"/>
			<point x="515" y="0" type="line"/>
			<point x="366" y="400" type="line"/>
			<point x="610" y="655" type="line"/>
			<point x="506" y="655" type="line"/>
			<point x="199" y="345" type="line"/>
			<point x="196" y="345" type="line"/>
			<point x="257" y="655" type="line"/>
			<point x="164" y="655" type="line"/>
		</contour>
	</outline>
	<anchor name="aboverightUC" x="589" y="677"/>
	<anchor name="aboveUC" x="379" y="677"/>
	<anchor name="belowLC" x="279" y="-22"/>
</glyph>
<glyph name="L" format="2">
	<unicode hex="004C"/>
	<advance width="472"/>
	<outline>
		<contour>
			<point x="33" y="0" type="line"/>
			<point x="395" y="0" type="line"/>
			<point x="411" y="78" type="line"/>
			<point x="142" y="78" type="line"/>
			<point x="257" y="655" type="line"/>
			<point x="164" y="655" type="line"/>
		</contour>
	</outline>
	<anchor name="aboveUC" x="219" y="677"/>
	<anchor name="belowLC" x="225" y="-22"/>
	<anchor name="center" x="159" y="355"/>
</glyph>
<glyph name="M" format="2">
	<unicode hex="004D"/>
	<advance width="714"/>
	<outline>
		<contour>
			<point x="34" y="0" type="line"/>
			<point x="122" y="0" type="line"/>
			<point x="190" y="342" type="line" smooth="yes"/>
			<point x="201" y="402"/>
			<point x="210" y="487"/>
			<point x="215" y="549" type="curve"/>
			<point x="219" y="549" type="line"/>
			<point x="238" y="391" type="line"/>
			<point x="290" y="66" type="line"/>
			<point x="358" y="66" type="line"/>
			<point x="533" y="391" type="line"/>
			<point x="611" y="549" type="line"/>
			<point x="615" y="549" type="line"/>
			<point x="596" y="488"/>
			<point x="574" y="404"/>
			<point x="561" y="342" type="curve" smooth="yes"/>
			<point x="491" y="0" type="line"/>
			<point x="579" y="0" type="line"/>
			<point x="710" y="655" type="line"/>
			<point x="595" y="655" type="line"/>
			<point x="411" y="314" type="line" smooth="yes"/>
			<point x="387" y="270"/>
			<point x="368" y="228"/>
			<point x="348" y="183" type="curve"/>
			<point x="344" y="183" type="line"/>
			<point x="338" y="228"/>
			<point x="333" y="270"/>
			<point x="327" y="314" type="curve" smooth="yes"/>
			<point x="277" y="655" type="line"/>
			<point x="164" y="655" type="line"/>
		</contour>
	</outline>
	<anchor name="aboveUC" x="435" y="677"/>
	<anchor name="belowLC" x="310" y="-22"/>
</glyph>
<glyph name="N" format="2">
	<unicode hex="004E"/>
	<advance width="625"/>
	<outline>
		<contour>
			<point x="34" y="0" type="line"/>
			<point x="123" y="0" type="line"/>
			<point x="187" y="326" type="line" smooth="yes"/>
			<point x="200" y="396"/>
			<point x="211" y="472"/>
			<point x="218" y="541" type="curve"/>
			<point x="222" y="541" type="line"/>
			<point x="233" y="487"/>
			<point x="251" y="426"/>
			<point x="260" y="398" type="curve" smooth="yes"/>
			<point x="395" y="0" type="line"/>
			<point x="491" y="0" type="line"/>
			<point x="622" y="655" type="line"/>
			<point x="532" y="655" type="line"/>
			<point x="468" y="332" type="line"/>
			<point x="455" y="262"/>
			<point x="446" y="186"/>
			<point x="438" y="117" type="curve"/>
			<point x="434" y="117" type="line"/>
			<point x="425" y="163"/>
			<point x="407" y="229"/>
			<point x="397" y="257" type="curve" smooth="yes"/>
			<point x="261" y="655" type="line"/>
			<point x="164" y="655" type="line"/>
		</contour>
	</outline>
	<anchor name="aboveUC" x="405" y="677"/>
	<anchor name="belowLC" x="270" y="-22"/>
</glyph>
<glyph name="O" format="2">
	<unicode hex="004F"/>
	<advance width="640"/>
	<outline>
		<contour>
			<point x="291" y="-12" type="curve" smooth="yes"/>
			<point x="476" y="-12"/>
			<point x="613" y="184"/>
			<point x="613" y="392" type="curve" smooth="yes"/>
			<point x="613" y="560"/>
			<point x="529" y="667"/>
			<point x="382" y="667" type="curve" smooth="yes"/>
			<point x="196" y="667"/>
			<point x="59" y="471"/>
			<point x="59" y="263" type="curve" smooth="yes"/>
			<point x="59" y="95"/>
			<point x="144" y="-12"/>
		</contour>
		<contour>
			<point x="295" y="68" type="curve" smooth="yes"/>
			<point x="199" y="68"/>
			<point x="154" y="148"/>
			<point x="154" y="270" type="curve" smooth="yes"/>
			<point x="154" y="423"/>
			<point x="248" y="587"/>
			<point x="377" y="587" type="curve" smooth="yes"/>
			<point x="473" y="587"/>
			<point x="518" y="507"/>
			<point x="518" y="385" type="curve" smooth="yes"/>
			<point x="518" y="232"/>
			<point x="424" y="68"/>
		</contour>
	</outline>
	<anchor name="aboverightUC" x="604" y="677"/>
	<anchor name="aboveUC" x="400" y="677"/>
	<anchor name="belowLC" x="275" y="-22"/>
	<anchor name="hornLC" x="515" y="647"/>
	<anchor name="ogonekUC" x="277" y="0"/>
</glyph>
<glyph name="P" format="2">
	<unicode hex="0050"/>
	<advance width="559"/>
	<outline>
		<contour>
			<point x="33" y="0" type="line"/>
			<point x="126" y="0" type="line"/>
			<point x="177" y="254" type="line"/>
			<point x="274" y="254" type="line" smooth="yes"/>
			<point x="441" y="254"/>
			<point x="565" y="325"/>
			<point x="565" y="492" type="curve" smooth="yes"/>
			<point x="565" y="608"/>
			<point x="479" y="655"/>
			<point x="355" y="655" type="curve" smooth="yes"/>
			<point x="164" y="655" type="line"/>
		</contour>
		<contour>
			<point x="192" y="329" type="line"/>
			<point x="242" y="581" type="line"/>
			<point x="335" y="581" type="line" smooth="yes"/>
			<point x="424" y="581"/>
			<point x="473" y="550"/>
			<point x="473" y="479" type="curve" smooth="yes"/>
			<point x="473" y="380"/>
			<point x="406" y="329"/>
			<point x="281" y="329" type="curve" smooth="yes"/>
		</contour>
	</outline>
	<anchor name="aboverightUC" x="544" y="677"/>
	<anchor name="aboveUC" x="369" y="677"/>
	<anchor name="belowLC" x="84" y="-22"/>
</glyph>
<glyph name="Q" format="2">
	<unicode hex="0051"/>
	<advance width="640"/>
	<outline>
		<contour>
			<point x="291" y="-12" type="curve" smooth="yes"/>
			<point x="476" y="-12"/>
			<point x="613" y="184"/>
			<point x="613" y="392" type="curve" smooth="yes"/>
			<point x="613" y="560"/>
			<point x="529" y="667"/>
			<point x="382" y="667" type="curve" smooth="yes"/>
			<point x="196" y="667"/>
			<point x="59" y="471"/>
			<point x="59" y="263" type="curve" smooth="yes"/>
			<point x="59" y="95"/>
			<point x="144" y="-12"/>
		</contour>
		<contour>
			<point x="295" y="66" type="curve" smooth="yes"/>
			<point x="199" y="66"/>
			<point x="154" y="144"/>
			<point x="154" y="270" type="curve" smooth="yes"/>
			<point x="154" y="423"/>
			<point x="248" y="587"/>
			<point x="377" y="587" type="curve" smooth="yes"/>
			<point x="473" y="587"/>
			<point x="518" y="507"/>
			<point x="518" y="385" type="curve" smooth="yes"/>
			<point x="518" y="228"/>
			<point x="424" y="66"/>
		</contour>
		<contour>
			<point x="461" y="-168" type="curve" smooth="yes"/>
			<point x="491" y="-168"/>
			<point x="518" y="-164"/>
			<point x="539" y="-155" type="curve"/>
			<point x="523" y="-84" type="line"/>
			<point x="506" y="-89"/>
			<point x="491" y="-92"/>
			<point x="471" y="-92" type="curve" smooth="yes"/>
			<point x="400" y="-92"/>
			<point x="328" y="-59"/>
			<point x="313" y="16" type="curve"/>
			<point x="219" y="19" type="line"/>
			<point x="251" y="-110"/>
			<point x="346" y="-168"/>
		</contour>
	</outline>
	<anchor name="aboveUC" x="400" y="677"/>
	<anchor name="belowLC" x="224" y="-161"/>
</glyph>
<glyph name="R" format="2">
	<unicode hex="0052"/>
	<advance width="566"/>
	<outline>
		<contour>
			<point x="33" y="0" type="line"/>
			<point x="126" y="0" type="line"/>
			<point x="180" y="268" type="line"/>
			<point x="287" y="268" type="line" smooth="yes"/>
			<point x="434" y="268"/>
			<point x="560" y="345"/>
			<point x="560" y="499" type="curve" smooth="yes"/>
			<point x="560" y="611"/>
			<point x="474" y="655"/>
			<point x="350" y="655" type="curve" smooth="yes"/>
			<point x="164" y="655" type="line"/>
		</contour>
		<contour>
			<point x="195" y="343" type="line"/>
			<point x="242" y="581" type="line"/>
			<point x="331" y="581" type="line" smooth="yes"/>
			<point x="420" y="581"/>
			<point x="468" y="553"/>
			<point x="468" y="486" type="curve" smooth="yes"/>
			<point x="468" y="398"/>
			<point x="404" y="343"/>
			<point x="286" y="343" type="curve" smooth="yes"/>
		</contour>
		<contour>
			<point x="386" y="0" type="line"/>
			<point x="486" y="0" type="line"/>
			<point x="348" y="344" type="line"/>
			<point x="278" y="288" type="line"/>
		</contour>
	</outline>
	<anchor name="aboveUC" x="364" y="677"/>
	<anchor name="belowLC" x="269" y="-22"/>
</glyph>
<glyph name="S" format="2">
	<unicode hex="0053"/>
	<advance width="512"/>
	<outline>
		<contour>
			<point x="233" y="-12" type="curve" smooth="yes"/>
			<point x="370" y="-12"/>
			<point x="465" y="75"/>
			<point x="465" y="192" type="curve" smooth="yes"/>
			<point x="465" y="266"/>
			<point x="431" y="308"/>
			<point x="368" y="346" type="curve" smooth="yes"/>
			<point x="296" y="389" type="line" smooth="yes"/>
			<point x="246" y="419"/>
			<point x="212" y="443"/>
			<point x="212" y="491" type="curve" smooth="yes"/>
			<point x="212" y="539"/>
			<point x="252" y="587"/>
			<point x="321" y="587" type="curve" smooth="yes"/>
			<point x="378" y="587"/>
			<point x="423" y="558"/>
			<point x="457" y="518" type="curve"/>
			<point x="512" y="572" type="line"/>
			<point x="471" y="628"/>
			<point x="403" y="667"/>
			<point x="325" y="667" type="curve" smooth="yes"/>
			<point x="207" y="667"/>
			<point x="116" y="581"/>
			<point x="116" y="480" type="curve" smooth="yes"/>
			<point x="116" y="405"/>
			<point x="161" y="358"/>
			<point x="218" y="323" type="curve" smooth="yes"/>
			<point x="289" y="281" type="line" smooth="yes"/>
			<point x="339" y="251"/>
			<point x="369" y="223"/>
			<point x="369" y="176" type="curve" smooth="yes"/>
			<point x="369" y="110"/>
			<point x="314" y="68"/>
			<point x="243" y="68" type="curve" smooth="yes"/>
			<point x="170" y="68"/>
			<point x="111" y="102"/>
			<point x="72" y="157" type="curve"/>
			<point x="14" y="105" type="line"/>
			<point x="68" y="26"/>
			<point x="147" y="-12"/>
		</contour>
	</outline>
	<anchor name="aboveUC" x="341" y="677"/>
	<anchor name="baseLC" x="225" y="0"/>
	<anchor name="belowLC" x="220" y="-22"/>
</glyph>
<glyph name="T" format="2">
	<unicode hex="0054"/>
	<advance width="515"/>
	<outline>
		<contour>
			<point x="162" y="0" type="line"/>
			<point x="255" y="0" type="line"/>
			<point x="369" y="577" type="line"/>
			<point x="555" y="577" type="line"/>
			<point x="570" y="655" type="line"/>
			<point x="106" y="655" type="line"/>
			<point x="90" y="577" type="line"/>
			<point x="276" y="577" type="line"/>
		</contour>
	</outline>
	<anchor name="aboverightUC" x="520" y="677"/>
	<anchor name="aboveUC" x="340" y="677"/>
	<anchor name="baseLC" x="207" y="0"/>
	<anchor name="belowLC" x="205" y="-22"/>
</glyph>
<glyph name="U" format="2">
	<unicode hex="0055"/>
	<advance width="623"/>
	<outline>
		<contour>
			<point x="291" y="-12" type="curve" smooth="yes"/>
			<point x="416" y="-12"/>
			<point x="502" y="56"/>
			<point x="543" y="257" type="curve" smooth="yes"/>
			<point x="623" y="655" type="line"/>
			<point x="532" y="655" type="line"/>
			<point x="453" y="259" type="line" smooth="yes"/>
			<point x="423" y="112"/>
			<point x="369" y="68"/>
			<point x="295" y="68" type="curve" smooth="yes"/>
			<point x="209" y="68"/>
			<point x="171" y="118"/>
			<point x="171" y="206" type="curve" smooth="yes"/>
			<point x="171" y="230"/>
			<point x="174" y="255"/>
			<point x="180" y="285" type="curve" smooth="yes"/>
			<point x="254" y="655" type="line"/>
			<point x="161" y="655" type="line"/>
			<point x="89" y="296" type="line" smooth="yes"/>
			<point x="83" y="263"/>
			<point x="78" y="228"/>
			<point x="78" y="200" type="curve" smooth="yes"/>
			<point x="78" y="60"/>
			<point x="153" y="-12"/>
		</contour>
	</outline>
	<anchor name="aboveUC" x="395" y="677"/>
	<anchor name="belowLC" x="264" y="-22"/>
	<anchor name="hornLC" x="594" y="667"/>
	<anchor name="ogonekUC" x="264" y="0"/>
</glyph>
<glyph name="V" format="2">
	<unicode hex="0056"/>
	<advance width="511"/>
	<outline>
		<contour>
			<point x="139" y="0" type="line"/>
			<point x="251" y="0" type="line"/>
			<point x="592" y="655" type="line"/>
			<point x="491" y="655" type="line"/>
			<point x="319" y="302" type="line" smooth="yes"/>
			<point x="285" y="232"/>
			<point x="251" y="158"/>
			<point x="219" y="88" type="curve"/>
			<point x="215" y="88" type="line"/>
			<point x="212" y="159"/>
			<point x="207" y="232"/>
			<point x="201" y="302" type="curve" smooth="yes"/>
			<point x="177" y="655" type="line"/>
			<point x="81" y="655" type="line"/>
		</contour>
	</outline>
	<anchor name="aboveUC" x="334" y="677"/>
	<anchor name="belowLC" x="189" y="-22"/>
</glyph>
<glyph name="W" format="2">
	<unicode hex="0057"/>
	<advance width="766"/>
	<outline>
		<contour>
			<point x="92" y="0" type="line"/>
			<point x="214" y="0" type="line"/>
			<point x="378" y="378" type="line" smooth="yes"/>
			<point x="399" y="429"/>
			<point x="416" y="481"/>
			<point x="434" y="532" type="curve"/>
			<point x="438" y="532" type="line"/>
			<point x="436" y="480"/>
			<point x="434" y="425"/>
			<point x="434" y="378" type="curve" smooth="yes"/>
			<point x="439" y="0" type="line"/>
			<point x="558" y="0" type="line"/>
			<point x="822" y="655" type="line"/>
			<point x="729" y="655" type="line"/>
			<point x="596" y="307" type="line" smooth="yes"/>
			<point x="569" y="237"/>
			<point x="543" y="165"/>
			<point x="517" y="93" type="curve"/>
			<point x="513" y="93" type="line"/>
			<point x="514" y="165"/>
			<point x="518" y="237"/>
			<point x="516" y="307" type="curve" smooth="yes"/>
			<point x="511" y="655" type="line"/>
			<point x="418" y="655" type="line"/>
			<point x="266" y="307" type="line" smooth="yes"/>
			<point x="236" y="238"/>
			<point x="207" y="165"/>
			<point x="177" y="93" type="curve"/>
			<point x="173" y="93" type="line"/>
			<point x="178" y="165"/>
			<point x="185" y="237"/>
			<point x="188" y="307" type="curve" smooth="yes"/>
			<point x="200" y="655" type="line"/>
			<point x="103" y="655" type="line"/>
		</contour>
	</outline>
	<anchor name="aboverightUC" x="779" y="677"/>
	<anchor name="aboveUC" x="469" y="677"/>
	<anchor name="belowLC" x="325" y="-22"/>
</glyph>
<glyph name="Y" format="2">
	<unicode hex="0059"/>
	<advance width="474"/>
	<outline>
		<contour>
			<point x="139" y="0" type="line"/>
			<point x="231" y="0" type="line"/>
			<point x="282" y="251" type="line"/>
			<point x="556" y="655" type="line"/>
			<point x="456" y="655" type="line"/>
			<point x="341" y="476" type="line" smooth="yes"/>
			<point x="310" y="427"/>
			<point x="283" y="381"/>
			<point x="253" y="331" type="curve"/>
			<point x="250" y="331" type="line"/>
			<point x="239" y="382"/>
			<point x="230" y="426"/>
			<point x="219" y="475" type="curve" smooth="yes"/>
			<point x="179" y="655" type="line"/>
			<point x="83" y="655" type="line"/>
			<point x="189" y="251" type="line"/>
		</contour>
	</outline>
	<anchor name="aboverightUC" x="534" y="677"/>
	<anchor name="aboveUC" x="319" y="677"/>
	<anchor name="belowLC" x="184" y="-22"/>
</glyph>
<glyph name="bracketleft" format="2">
	<unicode hex="005B"/>
	<advance width="302"/>
	<outline>
		<contour>
			<point x="5" y="-152" type="line"/>
			<point x="182" y="-152" type="line"/>
			<point x="194" y="-100" type="line"/>
			<point x="86" y="-100" type="line"/>
			<point x="236" y="656" type="line"/>
			<point x="346" y="656" type="line"/>
			<point x="354" y="708" type="line"/>
			<point x="177" y="708" type="line"/>
		</contour>
	</outline>
</glyph>
<glyph name="backslash" format="2">
	<unicode hex="005C"/>
	<advance width="337"/>
	<outline>
		<contour>
			<point x="192" y="-160" type="line"/>
			<point x="255" y="-160" type="line"/>
			<point x="149" y="710" type="line"/>
			<point x="87" y="710" type="line"/>
		</contour>
	</outline>
</glyph>
<glyph name="bracketright" format="2">
	<unicode hex="005D"/>
	<advance width="302"/>
	<outline>
		<contour>
			<point x="-44" y="-152" type="line"/>
			<point x="134" y="-152" type="line"/>
			<point x="306" y="708" type="line"/>
			<point x="128" y="708" type="line"/>
			<point x="119" y="656" type="line"/>
			<point x="227" y="656" type="line"/>
			<point x="75" y="-100" type="line"/>
			<point x="-33" y="-100" type="line"/>
		</contour>
	</outline>
</glyph>
<glyph name="asciicircum" format="2">
	<unicode hex="005E"/>
	<advance width="486"/>
	<outline>
		<contour>
			<point x="80" y="281" type="line"/>
			<point x="158" y="281" type="line"/>
			<point x="217" y="448" type="line"/>
			<point x="264" y="582" type="line"/>
			<point x="267" y="582" type="line"/>
			<point x="312" y="448" type="line"/>
			<point x="371" y="281" type="line"/>
			<point x="448" y="281" type="line"/>
			<point x="301" y="670" type="line"/>
			<point x="227" y="670" type="line"/>
		</contour>
	</outline>
</glyph>
<glyph name="underscore" format="2">
	<unicode hex="005F"/>
	<advance width="482"/>
	<outline>
		<contour>
			<point x="-39" y="-128" type="line"/>
			<point x="418" y="-128" type="line"/>
			<point x="430" y="-70" type="line"/>
			<point x="-27" y="-70" type="line"/>
		</contour>
	</outline>
</glyph>
<glyph name="a" format="2">
	<unicode hex="0061"/>
	<advance width="541"/>
	<outline>
		<contour>
			<point x="177" y="-12" type="curve" smooth="yes"/>
			<point x="236" y="-12"/>
			<point x="296" y="21"/>
			<point x="343" y="70" type="curve"/>
			<point x="346" y="70" type="line"/>
			<point x="340" y="0" type="line"/>
			<point x="415" y="0" type="line"/>
			<point x="513" y="489" type="line"/>
			<point x="438" y="489" type="line"/>
			<point x="419" y="429" type="line"/>
			<point x="415" y="429" type="line"/>
			<point x="393" y="473"/>
			<point x="350" y="501"/>
			<point x="300" y="501" type="curve" smooth="yes"/>
			<point x="165" y="501"/>
			<point x="37" y="353"/>
			<point x="37" y="166" type="curve" smooth="yes"/>
			<point x="37" y="51"/>
			<point x="91" y="-12"/>
		</contour>
		<contour>
			<point x="213" y="65" type="curve" smooth="yes"/>
			<point x="164" y="65"/>
			<point x="132" y="101"/>
			<point x="132" y="179" type="curve" smooth="yes"/>
			<point x="132" y="309"/>
			<point x="215" y="424"/>
			<point x="305" y="424" type="curve" smooth="yes"/>
			<point x="338" y="424"/>
			<point x="371" y="405"/>
			<point x="396" y="358" type="curve"/>
			<point x="354" y="152" type="line"/>
			<point x="310" y="91"/>
			<point x="260" y="65"/>
		</contour>
	</outline>
	<anchor name="aboveLC" x="315" y="512"/>
	<anchor name="belowLC" x="225" y="-22"/>
	<anchor name="ogonekLC" x="348" y="0"/>
</glyph>
<glyph name="b" format="2">
	<unicode hex="0062"/>
	<advance width="540"/>
	<outline>
		<contour>
			<point x="239" y="-12" type="curve" smooth="yes"/>
			<point x="374" y="-12"/>
			<point x="502" y="136"/>
			<point x="502" y="323" type="curve" smooth="yes"/>
			<point x="502" y="438"/>
			<point x="448" y="501"/>
			<point x="362" y="501" type="curve" smooth="yes"/>
			<point x="305" y="501"/>
			<point x="250" y="470"/>
			<point x="203" y="432" type="curve"/>
			<point x="201" y="432" type="line"/>
			<point x="224" y="527" type="line"/>
			<point x="261" y="709" type="line"/>
			<point x="169" y="709" type="line"/>
			<point x="27" y="0" type="line"/>
			<point x="103" y="0" type="line"/>
			<point x="123" y="59" type="line"/>
			<point x="126" y="59" type="line"/>
			<point x="148" y="16"/>
			<point x="189" y="-12"/>
		</contour>
		<contour>
			<point x="235" y="65" type="curve" smooth="yes"/>
			<point x="200" y="65"/>
			<point x="169" y="84"/>
			<point x="144" y="130" type="curve"/>
			<point x="189" y="350" type="line"/>
			<point x="230" y="398"/>
			<point x="285" y="424"/>
			<point x="326" y="424" type="curve" smooth="yes"/>
			<point x="376" y="424"/>
			<point x="407" y="387"/>
			<point x="407" y="310" type="curve" smooth="yes"/>
			<point x="407" y="180"/>
			<point x="324" y="65"/>
		</contour>
	</outline>
	<anchor name="aboveUC" x="390" y="727"/>
	<anchor name="belowLC" x="225" y="-22"/>
	<anchor name="center" x="200" y="590"/>
</glyph>
<glyph name="c" format="2">
	<unicode hex="0063"/>
	<advance width="437"/>
	<outline>
		<contour>
			<point x="218" y="-12" type="curve" smooth="yes"/>
			<point x="288" y="-12"/>
			<point x="340" y="16"/>
			<point x="376" y="50" type="curve"/>
			<point x="337" y="103" type="line"/>
			<point x="312" y="83"/>
			<point x="275" y="64"/>
			<point x="236" y="64" type="curve" smooth="yes"/>
			<point x="166" y="64"/>
			<point x="129" y="109"/>
			<point x="129" y="190" type="curve" smooth="yes"/>
			<point x="129" y="317"/>
			<point x="214" y="425"/>
			<point x="306" y="425" type="curve" smooth="yes"/>
			<point x="343" y="425"/>
			<point x="366" y="413"/>
			<point x="388" y="389" type="curve"/>
			<point x="439" y="441" type="line"/>
			<point x="414" y="474"/>
			<point x="371" y="501"/>
			<point x="311" y="501" type="curve" smooth="yes"/>
			<point x="164" y="501"/>
			<point x="35" y="364"/>
			<point x="35" y="186" type="curve" smooth="yes"/>
			<point x="35" y="60"/>
			<point x="111" y="-12"/>
		</contour>
	</outline>
	<anchor name="aboveLC" x="300" y="512"/>
	<anchor name="aboverightLC" x="440" y="512"/>
	<anchor name="baseLC" x="205" y="0"/>
	<anchor name="belowLC" x="200" y="-22"/>
</glyph>
<glyph name="d" format="2">
	<unicode hex="0064"/>
	<advance width="538"/>
	<outline>
		<contour>
			<point x="177" y="-12" type="curve" smooth="yes"/>
			<point x="236" y="-12"/>
			<point x="296" y="21"/>
			<point x="343" y="70" type="curve"/>
			<point x="346" y="70" type="line"/>
			<point x="340" y="0" type="line"/>
			<point x="415" y="0" type="line"/>
			<point x="558" y="709" type="line"/>
			<point x="466" y="709" type="line"/>
			<point x="430" y="527" type="line"/>
			<point x="415" y="432" type="line"/>
			<point x="412" y="432" type="line"/>
			<point x="389" y="474"/>
			<point x="350" y="501"/>
			<point x="300" y="501" type="curve" smooth="yes"/>
			<point x="165" y="501"/>
			<point x="37" y="353"/>
			<point x="37" y="166" type="curve" smooth="yes"/>
			<point x="37" y="51"/>
			<point x="91" y="-12"/>
		</contour>
		<contour>
			<point x="213" y="65" type="curve" smooth="yes"/>
			<point x="164" y="65"/>
			<point x="132" y="101"/>
			<point x="132" y="179" type="curve" smooth="yes"/>
			<point x="132" y="309"/>
			<point x="215" y="424"/>
			<point x="305" y="424" type="curve" smooth="yes"/>
			<point x="338" y="424"/>
			<point x="371" y="405"/>
			<point x="396" y="358" type="curve"/>
			<point x="354" y="152" type="line"/>
			<point x="309" y="91"/>
			<point x="260" y="65"/>
		</contour>
	</outline>
	<anchor name="aboveUC" x="345" y="727"/>
	<anchor name="belowLC" x="220" y="-22"/>
	<anchor name="center" x="475" y="590"/>
</glyph>
<glyph name="e" format="2">
	<unicode hex="0065"/>
	<advance width="484"/>
	<outline>
		<contour>
			<point x="234" y="-12" type="curve" smooth="yes"/>
			<point x="298" y="-12"/>
			<point x="352" y="10"/>
			<point x="392" y="42" type="curve"/>
			<point x="358" y="98" type="line"/>
			<point x="329" y="77"/>
			<point x="292" y="63"/>
			<point x="252" y="63" type="curve" smooth="yes"/>
			<point x="178" y="63"/>
			<point x="127" y="94"/>
			<point x="127" y="209" type="curve" smooth="yes"/>
			<point x="127" y="347"/>
			<point x="219" y="427"/>
			<point x="288" y="427" type="curve" smooth="yes"/>
			<point x="353" y="427"/>
			<point x="375" y="380"/>
			<point x="375" y="328" type="curve" smooth="yes"/>
			<point x="375" y="312"/>
			<point x="374" y="304"/>
			<point x="370" y="289" type="curve"/>
			<point x="111" y="289" type="line"/>
			<point x="103" y="219" type="line"/>
			<point x="435" y="219" type="line"/>
			<point x="444" y="244"/>
			<point x="453" y="280"/>
			<point x="453" y="322" type="curve" smooth="yes"/>
			<point x="453" y="423"/>
			<point x="411" y="501"/>
			<point x="298" y="501" type="curve" smooth="yes"/>
			<point x="171" y="501"/>
			<point x="35" y="376"/>
			<point x="35" y="194" type="curve" smooth="yes"/>
			<point x="35" y="62"/>
			<point x="112" y="-12"/>
		</contour>
	</outline>
	<anchor name="aboveLC" x="310" y="512"/>
	<anchor name="baseLC" x="215" y="0"/>
	<anchor name="belowLC" x="215" y="-22"/>
	<anchor name="ogonekLC" x="285" y="0"/>
</glyph>
<glyph name="f" format="2">
	<unicode hex="0066"/>
	<advance width="294"/>
	<outline>
		<contour>
			<point x="41" y="0" type="line"/>
			<point x="133" y="0" type="line"/>
			<point x="216" y="415" type="line"/>
			<point x="312" y="415" type="line"/>
			<point x="327" y="489" type="line"/>
			<point x="231" y="489" type="line"/>
			<point x="246" y="560" type="line" smooth="yes"/>
			<point x="257" y="616"/>
			<point x="283" y="647"/>
			<point x="324" y="647" type="curve" smooth="yes"/>
			<point x="346" y="647"/>
			<point x="365" y="641"/>
			<point x="378" y="633" type="curve"/>
			<point x="409" y="696" type="line"/>
			<point x="384" y="711"/>
			<point x="353" y="721"/>
			<point x="317" y="721" type="curve" smooth="yes"/>
			<point x="227" y="721"/>
			<point x="173" y="656"/>
			<point x="153" y="557" type="curve" smooth="yes"/>
			<point x="140" y="489" type="line"/>
			<point x="71" y="484" type="line"/>
			<point x="56" y="415" type="line"/>
			<point x="124" y="415" type="line"/>
		</contour>
	</outline>
	<anchor name="aboveUC" x="304" y="727"/>
	<anchor name="belowLC" x="89" y="-22"/>
	<anchor name="center" x="139" y="230"/>
</glyph>
<glyph name="g" format="2">
	<unicode hex="0067"/>
	<advance width="535"/>
	<outline>
		<contour>
			<point x="173" y="-216" type="curve" smooth="yes"/>
			<point x="297" y="-216"/>
			<point x="379" y="-146"/>
			<point x="406" y="-15" type="curve" smooth="yes"/>
			<point x="507" y="489" type="line"/>
			<point x="431" y="489" type="line"/>
			<point x="412" y="429" type="line"/>
			<point x="409" y="429" type="line"/>
			<point x="386" y="473"/>
			<point x="344" y="501"/>
			<point x="294" y="501" type="curve" smooth="yes"/>
			<point x="162" y="501"/>
			<point x="37" y="358"/>
			<point x="37" y="180" type="curve" smooth="yes"/>
			<point x="37" y="66"/>
			<point x="96" y="8"/>
			<point x="179" y="8" type="curve" smooth="yes"/>
			<point x="239" y="8"/>
			<point x="294" y="38"/>
			<point x="344" y="87" type="curve"/>
			<point x="319" y="-13" type="line" smooth="yes"/>
			<point x="300" y="-91"/>
			<point x="252" y="-141"/>
			<point x="176" y="-141" type="curve" smooth="yes"/>
			<point x="126" y="-141"/>
			<point x="77" y="-120"/>
			<point x="41" y="-90" type="curve"/>
			<point x="0" y="-148" type="line"/>
			<point x="49" y="-194"/>
			<point x="112" y="-216"/>
		</contour>
		<contour>
			<point x="211" y="84" type="curve" smooth="yes"/>
			<point x="163" y="84"/>
			<point x="132" y="120"/>
			<point x="132" y="192" type="curve" smooth="yes"/>
			<point x="132" y="314"/>
			<point x="212" y="424"/>
			<point x="299" y="424" type="curve" smooth="yes"/>
			<point x="332" y="424"/>
			<point x="363" y="405"/>
			<point x="389" y="358" type="curve"/>
			<point x="350" y="164" type="line"/>
			<point x="307" y="110"/>
			<point x="254" y="84"/>
		</contour>
	</outline>
	<anchor name="aboveLC" x="310" y="512"/>
	<anchor name="belowLC" x="185" y="-203"/>
</glyph>
<glyph name="h" format="2">
	<unicode hex="0068"/>
	<advance width="529"/>
	<outline>
		<contour>
			<point x="27" y="0" type="line"/>
			<point x="119" y="0" type="line"/>
			<point x="186" y="340" type="line"/>
			<point x="242" y="396"/>
			<point x="285" y="421"/>
			<point x="321" y="421" type="curve" smooth="yes"/>
			<point x="367" y="421"/>
			<point x="388" y="398"/>
			<point x="388" y="353" type="curve" smooth="yes"/>
			<point x="388" y="336"/>
			<point x="385" y="322"/>
			<point x="380" y="298" type="curve" smooth="yes"/>
			<point x="320" y="0" type="line"/>
			<point x="412" y="0" type="line"/>
			<point x="474" y="310" type="line" smooth="yes"/>
			<point x="480" y="336"/>
			<point x="482" y="355"/>
			<point x="482" y="378" type="curve" smooth="yes"/>
			<point x="482" y="455"/>
			<point x="448" y="501"/>
			<point x="366" y="501" type="curve" smooth="yes"/>
			<point x="307" y="501"/>
			<point x="254" y="467"/>
			<point x="202" y="421" type="curve"/>
			<point x="198" y="421" type="line"/>
			<point x="215" y="488" type="line"/>
			<point x="261" y="709" type="line"/>
			<point x="169" y="709" type="line"/>
		</contour>
	</outline>
	<anchor name="aboveUC" x="385" y="727"/>
	<anchor name="belowLC" x="225" y="-22"/>
</glyph>
<glyph name="k" format="2">
	<unicode hex="006B"/>
	<advance width="488"/>
	<outline>
		<contour>
			<point x="27" y="0" type="line"/>
			<point x="119" y="0" type="line"/>
			<point x="144" y="122" type="line"/>
			<point x="248" y="227" type="line"/>
			<point x="336" y="0" type="line"/>
			<point x="429" y="0" type="line"/>
			<point x="312" y="282" type="line"/>
			<point x="508" y="489" type="line"/>
			<point x="404" y="489" type="line"/>
			<point x="171" y="246" type="line"/>
			<point x="168" y="246" type="line"/>
			<point x="261" y="709" type="line"/>
			<point x="169" y="709" type="line"/>
		</contour>
	</outline>
	<anchor name="aboverightLC" x="509" y="512"/>
	<anchor name="aboveUC" x="365" y="727"/>
	<anchor name="belowLC" x="230" y="-22"/>
</glyph>
<glyph name="l" format="2">
	<unicode hex="006C"/>
	<advance width="255"/>
	<outline>
		<contour>
			<point x="121" y="-10" type="curve" smooth="yes"/>
			<point x="142" y="-10"/>
			<point x="158" y="-5"/>
			<point x="174" y="1" type="curve"/>
			<point x="168" y="68" type="line"/>
			<point x="160" y="66"/>
			<point x="157" y="66"/>
			<point x="153" y="66" type="curve" smooth="yes"/>
			<point x="143" y="66"/>
			<point x="137" y="72"/>
			<point x="137" y="83" type="curve" smooth="yes"/>
			<point x="137" y="88"/>
			<point x="137" y="94"/>
			<point x="139" y="104" type="curve" smooth="yes"/>
			<point x="261" y="709" type="line"/>
			<point x="169" y="709" type="line"/>
			<point x="48" y="108" type="line" smooth="yes"/>
			<point x="44" y="90"/>
			<point x="42" y="75"/>
			<point x="42" y="62" type="curve" smooth="yes"/>
			<point x="42" y="17"/>
			<point x="66" y="-10"/>
		</contour>
	</outline>
	<anchor name="aboveUC" x="215" y="727"/>
	<anchor name="belowLC" x="99" y="-22"/>
	<anchor name="center" x="150" y="381"/>
</glyph>
<glyph name="m" format="2">
	<unicode hex="006D"/>
	<advance width="806"/>
	<outline>
		<contour>
			<point x="27" y="0" type="line"/>
			<point x="119" y="0" type="line"/>
			<point x="186" y="340" type="line"/>
			<point x="239" y="396"/>
			<point x="286" y="421"/>
			<point x="313" y="421" type="curve" smooth="yes"/>
			<point x="357" y="421"/>
			<point x="378" y="398"/>
			<point x="378" y="353" type="curve" smooth="yes"/>
			<point x="378" y="336"/>
			<point x="375" y="322"/>
			<point x="370" y="298" type="curve" smooth="yes"/>
			<point x="310" y="0" type="line"/>
			<point x="402" y="0" type="line"/>
			<point x="470" y="340" type="line"/>
			<point x="523" y="396"/>
			<point x="570" y="421"/>
			<point x="596" y="421" type="curve" smooth="yes"/>
			<point x="641" y="421"/>
			<point x="662" y="398"/>
			<point x="662" y="353" type="curve" smooth="yes"/>
			<point x="662" y="336"/>
			<point x="659" y="322"/>
			<point x="654" y="298" type="curve" smooth="yes"/>
			<point x="594" y="0" type="line"/>
			<point x="686" y="0" type="line"/>
			<point x="748" y="310" type="line" smooth="yes"/>
			<point x="753" y="336"/>
			<point x="756" y="355"/>
			<point x="756" y="378" type="curve" smooth="yes"/>
			<point x="756" y="455"/>
			<point x="722" y="501"/>
			<point x="641" y="501" type="curve" smooth="yes"/>
			<point x="589" y="501"/>
			<point x="530" y="465"/>
			<point x="470" y="407" type="curve"/>
			<point x="461" y="460"/>
			<point x="433" y="501"/>
			<point x="357" y="501" type="curve" smooth="yes"/>
			<point x="305" y="501"/>
			<point x="248" y="464"/>
			<point x="198" y="417" type="curve"/>
			<point x="194" y="417" type="line"/>
			<point x="200" y="489" type="line"/>
			<point x="124" y="489" type="line"/>
		</contour>
	</outline>
	<anchor name="aboveLC" x="475" y="512"/>
	<anchor name="belowLC" x="360" y="-22"/>
</glyph>
<glyph name="n" format="2">
	<unicode hex="006E"/>
	<advance width="532"/>
	<outline>
		<contour>
			<point x="27" y="0" type="line"/>
			<point x="119" y="0" type="line"/>
			<point x="186" y="340" type="line"/>
			<point x="242" y="396"/>
			<point x="285" y="421"/>
			<point x="321" y="421" type="curve" smooth="yes"/>
			<point x="367" y="421"/>
			<point x="388" y="398"/>
			<point x="388" y="353" type="curve" smooth="yes"/>
			<point x="388" y="336"/>
			<point x="385" y="322"/>
			<point x="380" y="298" type="curve" smooth="yes"/>
			<point x="320" y="0" type="line"/>
			<point x="412" y="0" type="line"/>
			<point x="474" y="310" type="line" smooth="yes"/>
			<point x="479" y="336"/>
			<point x="482" y="355"/>
			<point x="482" y="378" type="curve" smooth="yes"/>
			<point x="482" y="455"/>
			<point x="448" y="501"/>
			<point x="366" y="501" type="curve" smooth="yes"/>
			<point x="305" y="501"/>
			<point x="249" y="464"/>
			<point x="198" y="417" type="curve"/>
			<point x="194" y="417" type="line"/>
			<point x="200" y="489" type="line"/>
			<point x="124" y="489" type="line"/>
		</contour>
	</outline>
	<anchor name="aboveLC" x="330" y="512"/>
	<anchor name="belowLC" x="225" y="-22"/>
</glyph>
<glyph name="o" format="2">
	<unicode hex="006F"/>
	<advance width="518"/>
	<outline>
		<contour>
			<point x="215" y="-12" type="curve" smooth="yes"/>
			<point x="347" y="-12"/>
			<point x="481" y="117"/>
			<point x="481" y="303" type="curve" smooth="yes"/>
			<point x="481" y="425"/>
			<point x="411" y="501"/>
			<point x="303" y="501" type="curve" smooth="yes"/>
			<point x="171" y="501"/>
			<point x="36" y="371"/>
			<point x="36" y="186" type="curve" smooth="yes"/>
			<point x="36" y="64"/>
			<point x="106" y="-12"/>
		</contour>
		<contour>
			<point x="224" y="64" type="curve" smooth="yes"/>
			<point x="163" y="64"/>
			<point x="129" y="109"/>
			<point x="129" y="190" type="curve" smooth="yes"/>
			<point x="129" y="320"/>
			<point x="209" y="425"/>
			<point x="293" y="425" type="curve" smooth="yes"/>
			<point x="355" y="425"/>
			<point x="388" y="380"/>
			<point x="388" y="299" type="curve" smooth="yes"/>
			<point x="388" y="168"/>
			<point x="308" y="64"/>
		</contour>
	</outline>
	<anchor name="aboveLC" x="315" y="512"/>
	<anchor name="aboverightLC" x="534" y="512"/>
	<anchor name="belowLC" x="195" y="-22"/>
	<anchor name="hornLC" x="405" y="491"/>
	<anchor name="ogonekLC" x="200" y="0"/>
</glyph>
<glyph name="q" format="2">
	<unicode hex="0071"/>
	<advance width="538"/>
	<outline>
		<contour>
			<point x="283" y="-200" type="line"/>
			<point x="375" y="-200" type="line"/>
			<point x="513" y="489" type="line"/>
			<point x="438" y="489" type="line"/>
			<point x="419" y="429" type="line"/>
			<point x="415" y="429" type="line"/>
			<point x="393" y="473"/>
			<point x="350" y="501"/>
			<point x="300" y="501" type="curve" smooth="yes"/>
			<point x="165" y="501"/>
			<point x="37" y="353"/>
			<point x="37" y="166" type="curve" smooth="yes"/>
			<point x="37" y="51"/>
			<point x="91" y="-12"/>
			<point x="177" y="-12" type="curve" smooth="yes"/>
			<point x="236" y="-12"/>
			<point x="296" y="21"/>
			<point x="344" y="71" type="curve"/>
			<point x="346" y="71" type="line"/>
			<point x="314" y="-47" type="line"/>
		</contour>
		<contour>
			<point x="213" y="65" type="curve" smooth="yes"/>
			<point x="164" y="65"/>
			<point x="132" y="101"/>
			<point x="132" y="179" type="curve" smooth="yes"/>
			<point x="132" y="309"/>
			<point x="215" y="424"/>
			<point x="305" y="424" type="curve" smooth="yes"/>
			<point x="338" y="424"/>
			<point x="371" y="405"/>
			<point x="396" y="358" type="curve"/>
			<point x="354" y="152" type="line"/>
			<point x="309" y="91"/>
			<point x="260" y="65"/>
		</contour>
	</outline>
	<anchor name="aboveLC" x="324" y="512"/>
	<anchor name="belowLC" x="325" y="-203"/>
</glyph>
<glyph name="r" format="2">
	<unicode hex="0072"/>
	<advance width="353"/>
	<outline>
		<contour>
			<point x="27" y="0" type="line"/>
			<point x="119" y="0" type="line"/>
			<point x="178" y="302" type="line"/>
			<point x="219" y="379"/>
			<point x="269" y="418"/>
			<point x="316" y="418" type="curve" smooth="yes"/>
			<point x="333" y="418"/>
			<point x="349" y="417"/>
			<point x="360" y="411" type="curve"/>
			<point x="392" y="492" type="line"/>
			<point x="380" y="498"/>
			<point x="364" y="501"/>
			<point x="344" y="501" type="curve" smooth="yes"/>
			<point x="285" y="501"/>
			<point x="233" y="455"/>
			<point x="194" y="395" type="curve"/>
			<point x="190" y="395" type="line"/>
			<point x="200" y="489" type="line"/>
			<point x="124" y="489" type="line"/>
		</contour>
	</outline>
	<anchor name="aboveLC" x="262" y="512"/>
	<anchor name="belowLC" x="72" y="-22"/>
	<anchor name="center" x="125" y="215"/>
</glyph>
<glyph name="s" format="2">
	<unicode hex="0073"/>
	<advance width="407"/>
	<outline>
		<contour>
			<point x="165" y="-12" type="curve" smooth="yes"/>
			<point x="272" y="-12"/>
			<point x="353" y="49"/>
			<point x="353" y="142" type="curve" smooth="yes"/>
			<point x="353" y="202"/>
			<point x="317" y="239"/>
			<point x="242" y="280" type="curve" smooth="yes"/>
			<point x="194" y="306"/>
			<point x="157" y="327"/>
			<point x="157" y="363" type="curve" smooth="yes"/>
			<point x="157" y="399"/>
			<point x="190" y="430"/>
			<point x="237" y="430" type="curve" smooth="yes"/>
			<point x="278" y="430"/>
			<point x="314" y="411"/>
			<point x="341" y="383" type="curve"/>
			<point x="389" y="431" type="line"/>
			<point x="351" y="474"/>
			<point x="300" y="501"/>
			<point x="238" y="501" type="curve" smooth="yes"/>
			<point x="146" y="501"/>
			<point x="69" y="439"/>
			<point x="69" y="353" type="curve" smooth="yes"/>
			<point x="69" y="294"/>
			<point x="113" y="254"/>
			<point x="171" y="220" type="curve" smooth="yes"/>
			<point x="242" y="180"/>
			<point x="266" y="164"/>
			<point x="266" y="130" type="curve" smooth="yes"/>
			<point x="266" y="88"/>
			<point x="222" y="58"/>
			<point x="172" y="58" type="curve" smooth="yes"/>
			<point x="123" y="58"/>
			<point x="79" y="81"/>
			<point x="46" y="123" type="curve"/>
			<point x="-3" y="80" type="line"/>
			<point x="31" y="23"/>
			<point x="101" y="-12"/>
		</contour>
	</outline>
	<anchor name="aboveLC" x="260" y="512"/>
	<anchor name="baseLC" x="165" y="0"/>
	<anchor name="belowLC" x="160" y="-22"/>
	<anchor name="center" x="210" y="240"/>
</glyph>
<glyph name="t" format="2">
	<unicode hex="0074"/>
	<advance width="336"/>
	<outline>
		<contour>
			<point x="188" y="-10" type="curve" smooth="yes"/>
			<point x="230" y="-10"/>
			<point x="265" y="2"/>
			<point x="288" y="14" type="curve"/>
			<point x="268" y="76" type="line"/>
			<point x="254" y="69"/>
			<point x="236" y="64"/>
			<point x="218" y="64" type="curve" smooth="yes"/>
			<point x="178" y="64"/>
			<point x="161" y="83"/>
			<point x="161" y="121" type="curve" smooth="yes"/>
			<point x="161" y="133"/>
			<point x="162" y="144"/>
			<point x="164" y="156" type="curve" smooth="yes"/>
			<point x="218" y="415" type="line"/>
			<point x="340" y="415" type="line"/>
			<point x="355" y="489" type="line"/>
			<point x="234" y="489" type="line"/>
			<point x="264" y="643" type="line"/>
			<point x="187" y="643" type="line"/>
			<point x="145" y="489" type="line"/>
			<point x="71" y="484" type="line"/>
			<point x="56" y="415" type="line"/>
			<point x="127" y="415" type="line"/>
			<point x="73" y="160" type="line" smooth="yes"/>
			<point x="70" y="141"/>
			<point x="67" y="124"/>
			<point x="67" y="105" type="curve" smooth="yes"/>
			<point x="67" y="40"/>
			<point x="101" y="-10"/>
		</contour>
	</outline>
	<anchor name="aboveLC" x="229" y="647"/>
	<anchor name="aboverightLC" x="343" y="512"/>
	<anchor name="baseLC" x="175" y="0"/>
	<anchor name="belowLC" x="165" y="-22"/>
	<anchor name="center" x="145" y="245"/>
</glyph>
<glyph name="u" format="2">
	<unicode hex="0075"/>
	<advance width="527"/>
	<outline>
		<contour>
			<point x="164" y="-12" type="curve" smooth="yes"/>
			<point x="223" y="-12"/>
			<point x="281" y="26"/>
			<point x="331" y="72" type="curve"/>
			<point x="335" y="72" type="line"/>
			<point x="328" y="0" type="line"/>
			<point x="404" y="0" type="line"/>
			<point x="501" y="489" type="line"/>
			<point x="409" y="489" type="line"/>
			<point x="342" y="149" type="line"/>
			<point x="287" y="93"/>
			<point x="244" y="67"/>
			<point x="209" y="67" type="curve" smooth="yes"/>
			<point x="164" y="67"/>
			<point x="143" y="91"/>
			<point x="143" y="136" type="curve" smooth="yes"/>
			<point x="143" y="152"/>
			<point x="146" y="166"/>
			<point x="151" y="190" type="curve" smooth="yes"/>
			<point x="211" y="489" type="line"/>
			<point x="118" y="489" type="line"/>
			<point x="56" y="179" type="line" smooth="yes"/>
			<point x="51" y="153"/>
			<point x="48" y="134"/>
			<point x="48" y="111" type="curve" smooth="yes"/>
			<point x="48" y="34"/>
			<point x="82" y="-12"/>
		</contour>
	</outline>
	<anchor name="aboveLC" x="315" y="512"/>
	<anchor name="baseLC" x="200" y="0"/>
	<anchor name="belowLC" x="230" y="-22"/>
	<anchor name="hornLC" x="462" y="502"/>
	<anchor name="ogonekLC" x="340" y="0"/>
</glyph>
<glyph name="v" format="2">
	<unicode hex="0076"/>
	<advance width="461"/>
	<outline>
		<contour>
			<point x="128" y="0" type="line"/>
			<point x="237" y="0" type="line"/>
			<point x="494" y="489" type="line"/>
			<point x="403" y="489" type="line"/>
			<point x="268" y="218" type="line" smooth="yes"/>
			<point x="244" y="169"/>
			<point x="221" y="120"/>
			<point x="198" y="71" type="curve"/>
			<point x="194" y="71" type="line"/>
			<point x="190" y="119"/>
			<point x="187" y="170"/>
			<point x="182" y="218" type="curve" smooth="yes"/>
			<point x="151" y="489" type="line"/>
			<point x="59" y="489" type="line"/>
		</contour>
	</outline>
	<anchor name="aboveLC" x="279" y="512"/>
	<anchor name="belowLC" x="184" y="-22"/>
</glyph>
<glyph name="w" format="2">
	<unicode hex="0077"/>
	<advance width="718"/>
	<outline>
		<contour>
			<point x="102" y="0" type="line"/>
			<point x="220" y="0" type="line"/>
			<point x="326" y="247" type="line" smooth="yes"/>
			<point x="347" y="296"/>
			<point x="361" y="344"/>
			<point x="381" y="404" type="curve"/>
			<point x="385" y="404" type="line"/>
			<point x="383" y="344"/>
			<point x="381" y="296"/>
			<point x="382" y="247" type="curve" smooth="yes"/>
			<point x="390" y="0" type="line"/>
			<point x="506" y="0" type="line"/>
			<point x="726" y="489" type="line"/>
			<point x="635" y="489" type="line"/>
			<point x="518" y="214" type="line" smooth="yes"/>
			<point x="500" y="172"/>
			<point x="484" y="121"/>
			<point x="466" y="75" type="curve"/>
			<point x="462" y="75" type="line"/>
			<point x="462" y="121"/>
			<point x="461" y="172"/>
			<point x="461" y="214" type="curve" smooth="yes"/>
			<point x="448" y="489" type="line"/>
			<point x="350" y="489" type="line"/>
			<point x="232" y="214" type="line" smooth="yes"/>
			<point x="214" y="172"/>
			<point x="196" y="121"/>
			<point x="179" y="75" type="curve"/>
			<point x="175" y="75" type="line"/>
			<point x="174" y="121"/>
			<point x="175" y="172"/>
			<point x="173" y="214" type="curve" smooth="yes"/>
			<point x="162" y="489" type="line"/>
			<point x="70" y="489" type="line"/>
		</contour>
	</outline>
	<anchor name="aboveLC" x="404" y="512"/>
	<anchor name="aboverightLC" x="694" y="512"/>
	<anchor name="belowLC" x="304" y="-22"/>
</glyph>
<glyph name="x" format="2">
	<unicode hex="0078"/>
	<advance width="445"/>
	<outline>
		<contour>
			<point x="-43" y="0" type="line"/>
			<point x="57" y="0" type="line"/>
			<point x="143" y="108" type="line" smooth="yes"/>
			<point x="166" y="138"/>
			<point x="188" y="167"/>
			<point x="208" y="196" type="curve"/>
			<point x="212" y="196" type="line"/>
			<point x="224" y="167"/>
			<point x="235" y="136"/>
			<point x="246" y="107" type="curve" smooth="yes"/>
			<point x="286" y="0" type="line"/>
			<point x="381" y="0" type="line"/>
			<point x="284" y="239" type="line"/>
			<point x="482" y="489" type="line"/>
			<point x="383" y="489" type="line"/>
			<point x="307" y="386" type="line" smooth="yes"/>
			<point x="288" y="358"/>
			<point x="267" y="331"/>
			<point x="247" y="304" type="curve"/>
			<point x="243" y="304" type="line"/>
			<point x="234" y="332"/>
			<point x="226" y="357"/>
			<point x="216" y="386" type="curve" smooth="yes"/>
			<point x="177" y="489" type="line"/>
			<point x="83" y="489" type="line"/>
			<point x="173" y="260" type="line"/>
		</contour>
	</outline>
	<anchor name="aboveLC" x="279" y="512"/>
	<anchor name="belowLC" x="179" y="-22"/>
</glyph>
<glyph name="y" format="2">
	<unicode hex="0079"/>
	<advance width="461"/>
	<outline>
		<contour>
			<point x="11" y="-205" type="curve" smooth="yes"/>
			<point x="101" y="-205"/>
			<point x="163" y="-145"/>
			<point x="225" y="-26" type="curve" smooth="yes"/>
			<point x="499" y="489" type="line"/>
			<point x="405" y="489" type="line"/>
			<point x="275" y="229" type="line"/>
			<point x="253" y="186"/>
			<point x="229" y="133"/>
			<point x="208" y="89" type="curve"/>
			<point x="204" y="89" type="line"/>
			<point x="200" y="133"/>
			<point x="196" y="186"/>
			<point x="189" y="229" type="curve" smooth="yes"/>
			<point x="154" y="489" type="line"/>
			<point x="60" y="489" type="line"/>
			<point x="145" y="-3" type="line"/>
			<point x="130" y="-32" type="line" smooth="yes"/>
			<point x="99" y="-92"/>
			<point x="57" y="-129"/>
			<point x="11" y="-129" type="curve" smooth="yes"/>
			<point x="-4" y="-129"/>
			<point x="-16" y="-127"/>
			<point x="-27" y="-122" type="curve"/>
			<point x="-55" y="-190" type="line"/>
			<point x="-38" y="-201"/>
			<point x="-14" y="-205"/>
		</contour>
	</outline>
	<anchor name="aboveLC" x="279" y="512"/>
	<anchor name="aboverightLC" x="469" y="512"/>
	<anchor name="belowLC" x="109" y="-213"/>
</glyph>
<glyph name="z" format="2">
	<unicode hex="007A"/>
	<advance width="419"/>
	<outline>
		<contour>
			<point x="-10" y="0" type="line"/>
			<point x="348" y="0" type="line"/>
			<point x="363" y="74" type="line"/>
			<point x="120" y="74" type="line"/>
			<point x="428" y="435" type="line"/>
			<point x="438" y="489" type="line"/>
			<point x="112" y="489" type="line"/>
			<point x="97" y="415" type="line"/>
			<point x="308" y="415" type="line"/>
			<point x="0" y="53" type="line"/>
		</contour>
	</outline>
	<anchor name="aboveLC" x="279" y="512"/>
	<anchor name="belowLC" x="175" y="-22"/>
	<anchor name="center" x="215" y="245"/>
</glyph>
<glyph name="braceleft" format="2">
	<unicode hex="007B"/>
	<advance width="300"/>
	<outline>
		<contour>
			<point x="137" y="-152" type="curve" smooth="yes"/>
			<point x="185" y="-152" type="line"/>
			<point x="196" y="-100" type="line"/>
			<point x="174" y="-100" type="line" smooth="yes"/>
			<point x="134" y="-100"/>
			<point x="123" y="-85"/>
			<point x="123" y="-53" type="curve" smooth="yes"/>
			<point x="123" y="9"/>
			<point x="174" y="141"/>
			<point x="174" y="209" type="curve" smooth="yes"/>
			<point x="174" y="242"/>
			<point x="161" y="262"/>
			<point x="126" y="273" type="curve"/>
			<point x="126" y="277" type="line"/>
			<point x="174" y="289"/>
			<point x="200" y="323"/>
			<point x="214" y="392" type="curve" smooth="yes"/>
			<point x="225" y="453"/>
			<point x="232" y="512"/>
			<point x="243" y="567" type="curve" smooth="yes"/>
			<point x="255" y="630"/>
			<point x="273" y="656"/>
			<point x="323" y="656" type="curve" smooth="yes"/>
			<point x="347" y="656" type="line"/>
			<point x="358" y="708" type="line"/>
			<point x="307" y="708" type="line" smooth="yes"/>
			<point x="226" y="708"/>
			<point x="190" y="677"/>
			<point x="169" y="572" type="curve" smooth="yes"/>
			<point x="155" y="503"/>
			<point x="153" y="449"/>
			<point x="141" y="386" type="curve" smooth="yes"/>
			<point x="133" y="349"/>
			<point x="111" y="307"/>
			<point x="43" y="307" type="curve"/>
			<point x="30" y="249" type="line"/>
			<point x="87" y="249"/>
			<point x="100" y="221"/>
			<point x="100" y="194" type="curve" smooth="yes"/>
			<point x="100" y="138"/>
			<point x="45" y="5"/>
			<point x="45" y="-70" type="curve" smooth="yes"/>
			<point x="45" y="-125"/>
			<point x="72" y="-152"/>
		</contour>
	</outline>
</glyph>
<glyph name="bar" format="2">
	<unicode hex="007C"/>
	<advance width="237"/>
	<outline>
		<contour>
			<point x="93" y="-250" type="line"/>
			<point x="154" y="-250" type="line"/>
			<point x="154" y="750" type="line"/>
			<point x="93" y="750" type="line"/>
		</contour>
	</outline>
</glyph>
<glyph name="braceright" format="2">
	<unicode hex="007D"/>
	<advance width="303"/>
	<outline>
		<contour>
			<point x="-48" y="-152" type="line"/>
			<point x="2" y="-152" type="line" smooth="yes"/>
			<point x="83" y="-152"/>
			<point x="119" y="-121"/>
			<point x="140" y="-16" type="curve" smooth="yes"/>
			<point x="154" y="53"/>
			<point x="156" y="107"/>
			<point x="168" y="170" type="curve" smooth="yes"/>
			<point x="176" y="207"/>
			<point x="198" y="249"/>
			<point x="266" y="249" type="curve"/>
			<point x="279" y="307" type="line"/>
			<point x="222" y="307"/>
			<point x="209" y="335"/>
			<point x="209" y="362" type="curve" smooth="yes"/>
			<point x="209" y="418"/>
			<point x="264" y="551"/>
			<point x="264" y="626" type="curve" smooth="yes"/>
			<point x="264" y="681"/>
			<point x="238" y="708"/>
			<point x="173" y="708" type="curve" smooth="yes"/>
			<point x="124" y="708" type="line"/>
			<point x="113" y="656" type="line"/>
			<point x="135" y="656" type="line" smooth="yes"/>
			<point x="176" y="656"/>
			<point x="187" y="641"/>
			<point x="187" y="609" type="curve" smooth="yes"/>
			<point x="187" y="547"/>
			<point x="136" y="415"/>
			<point x="136" y="347" type="curve" smooth="yes"/>
			<point x="136" y="314"/>
			<point x="148" y="294"/>
			<point x="184" y="283" type="curve"/>
			<point x="183" y="279" type="line"/>
			<point x="135" y="267"/>
			<point x="110" y="233"/>
			<point x="96" y="164" type="curve" smooth="yes"/>
			<point x="84" y="103"/>
			<point x="77" y="44"/>
			<point x="66" y="-11" type="curve" smooth="yes"/>
			<point x="54" y="-74"/>
			<point x="36" y="-100"/>
			<point x="-13" y="-100" type="curve" smooth="yes"/>
			<point x="-38" y="-100" type="line"/>
		</contour>
	</outline>
</glyph>
<glyph name="asciitilde" format="2">
	<unicode hex="007E"/>
	<advance width="487"/>
	<outline>
		<contour>
			<point x="335" y="256" type="curve" smooth="yes"/>
			<point x="377" y="256"/>
			<point x="424" y="283"/>
			<point x="460" y="349" type="curve"/>
			<point x="410" y="381" type="line"/>
			<point x="389" y="340"/>
			<point x="366" y="322"/>
			<point x="338" y="322" type="curve" smooth="yes"/>
			<point x="285" y="322"/>
			<point x="242" y="406"/>
			<point x="168" y="406" type="curve" smooth="yes"/>
			<point x="126" y="406"/>
			<point x="79" y="379"/>
			<point x="43" y="313" type="curve"/>
			<point x="93" y="281" type="line"/>
			<point x="114" y="322"/>
			<point x="137" y="340"/>
			<point x="166" y="340" type="curve" smooth="yes"/>
			<point x="219" y="340"/>
			<point x="261" y="256"/>
		</contour>
	</outline>
</glyph>
<glyph name="exclamdown" format="2">
	<unicode hex="00A1"/>
	<advance width="294"/>
	<outline>
		<contour>
			<point x="20" y="-182" type="line"/>
			<point x="112" y="-182" type="line"/>
			<point x="190" y="285" type="line"/>
			<point x="127" y="285" type="line"/>
			<point x="42" y="-81" type="line"/>
		</contour>
		<contour>
			<point x="176" y="366" type="curve" smooth="yes"/>
			<point x="220" y="366"/>
			<point x="251" y="407"/>
			<point x="251" y="444" type="curve" smooth="yes"/>
			<point x="251" y="477"/>
			<point x="231" y="501"/>
			<point x="198" y="501" type="curve" smooth="yes"/>
			<point x="155" y="501"/>
			<point x="124" y="462"/>
			<point x="124" y="424" type="curve" smooth="yes"/>
			<point x="124" y="391"/>
			<point x="144" y="366"/>
		</contour>
	</outline>
</glyph>
<glyph name="cent" format="2">
	<unicode hex="00A2"/>
	<advance width="487"/>
	<outline>
		<contour>
			<point x="260" y="86" type="curve" smooth="yes"/>
			<point x="329" y="86"/>
			<point x="381" y="112"/>
			<point x="429" y="142" type="curve"/>
			<point x="399" y="202" type="line"/>
			<point x="365" y="179"/>
			<point x="327" y="162"/>
			<point x="280" y="162" type="curve" smooth="yes"/>
			<point x="207" y="162"/>
			<point x="167" y="216"/>
			<point x="167" y="302" type="curve" smooth="yes"/>
			<point x="167" y="418"/>
			<point x="252" y="497"/>
			<point x="339" y="497" type="curve" smooth="yes"/>
			<point x="383" y="497"/>
			<point x="408" y="480"/>
			<point x="434" y="453" type="curve"/>
			<point x="488" y="503" type="line"/>
			<point x="456" y="541"/>
			<point x="414" y="573"/>
			<point x="348" y="573" type="curve" smooth="yes"/>
			<point x="220" y="573"/>
			<point x="76" y="466"/>
			<point x="76" y="287" type="curve" smooth="yes"/>
			<point x="76" y="159"/>
			<point x="149" y="86"/>
		</contour>
		<contour>
			<point x="206" y="-15" type="line"/>
			<point x="262" y="-15" type="line"/>
			<point x="398" y="672" type="line"/>
			<point x="342" y="672" type="line"/>
		</contour>
	</outline>
</glyph>
<glyph name="sterling" format="2">
	<unicode hex="00A3"/>
	<advance width="487"/>
	<outline>
		<contour>
			<point x="7" y="0" type="line"/>
			<point x="402" y="0" type="line"/>
			<point x="415" y="78" type="line"/>
			<point x="163" y="78" type="line"/>
			<point x="163" y="82" type="line"/>
			<point x="219" y="138"/>
			<point x="245" y="198"/>
			<point x="245" y="285" type="curve" smooth="yes"/>
			<point x="245" y="327"/>
			<point x="236" y="378"/>
			<point x="236" y="417" type="curve" smooth="yes"/>
			<point x="236" y="517"/>
			<point x="289" y="574"/>
			<point x="357" y="574" type="curve" smooth="yes"/>
			<point x="398" y="574"/>
			<point x="429" y="551"/>
			<point x="450" y="517" type="curve"/>
			<point x="505" y="565" type="line"/>
			<point x="477" y="614"/>
			<point x="426" y="649"/>
			<point x="362" y="649" type="curve" smooth="yes"/>
			<point x="240" y="649"/>
			<point x="150" y="562"/>
			<point x="150" y="425" type="curve" smooth="yes"/>
			<point x="150" y="379"/>
			<point x="161" y="318"/>
			<point x="161" y="273" type="curve" smooth="yes"/>
			<point x="161" y="180"/>
			<point x="111" y="100"/>
			<point x="19" y="56" type="curve"/>
		</contour>
		<contour>
			<point x="65" y="279" type="line"/>
			<point x="381" y="279" type="line"/>
			<point x="395" y="348" type="line"/>
			<point x="160" y="348" type="line"/>
			<point x="78" y="343" type="line"/>
		</contour>
	</outline>
</glyph>
<glyph name="currency" format="2">
	<unicode hex="00A4"/>
	<advance width="487"/>
	<outline>
		<contour>
			<point x="51" y="110" type="line"/>
			<point x="123" y="172" type="line"/>
			<point x="148" y="149"/>
			<point x="182" y="137"/>
			<point x="222" y="137" type="curve" smooth="yes"/>
			<point x="264" y="137"/>
			<point x="305" y="151"/>
			<point x="339" y="175" type="curve"/>
			<point x="393" y="108" type="line"/>
			<point x="444" y="151" type="line"/>
			<point x="392" y="217" type="line"/>
			<point x="427" y="256"/>
			<point x="449" y="308"/>
			<point x="449" y="367" type="curve" smooth="yes"/>
			<point x="449" y="396"/>
			<point x="443" y="421"/>
			<point x="433" y="443" type="curve"/>
			<point x="504" y="504" type="line"/>
			<point x="463" y="553" type="line"/>
			<point x="390" y="490" type="line"/>
			<point x="365" y="512"/>
			<point x="331" y="525"/>
			<point x="291" y="525" type="curve" smooth="yes"/>
			<point x="250" y="525"/>
			<point x="211" y="512"/>
			<point x="177" y="489" type="curve"/>
			<point x="128" y="552" type="line"/>
			<point x="77" y="509" type="line"/>
			<point x="124" y="449" type="line"/>
			<point x="87" y="409"/>
			<point x="64" y="355"/>
			<point x="64" y="295" type="curve" smooth="yes"/>
			<point x="64" y="266"/>
			<point x="70" y="240"/>
			<point x="79" y="219" type="curve"/>
			<point x="10" y="159" type="line"/>
		</contour>
		<contour>
			<point x="232" y="205" type="curve" smooth="yes"/>
			<point x="180" y="205"/>
			<point x="150" y="241"/>
			<point x="150" y="304" type="curve" smooth="yes"/>
			<point x="150" y="391"/>
			<point x="216" y="457"/>
			<point x="281" y="457" type="curve" smooth="yes"/>
			<point x="333" y="457"/>
			<point x="363" y="422"/>
			<point x="363" y="358" type="curve" smooth="yes"/>
			<point x="363" y="271"/>
			<point x="297" y="205"/>
		</contour>
	</outline>
</glyph>
<glyph name="yen" format="2">
	<unicode hex="00A5"/>
	<advance width="487"/>
	<outline>
		<contour>
			<point x="148" y="0" type="line"/>
			<point x="239" y="0" type="line"/>
			<point x="268" y="148" type="line"/>
			<point x="422" y="148" type="line"/>
			<point x="434" y="204" type="line"/>
			<point x="280" y="204" type="line"/>
			<point x="293" y="272" type="line"/>
			<point x="447" y="272" type="line"/>
			<point x="459" y="328" type="line"/>
			<point x="330" y="328" type="line"/>
			<point x="539" y="638" type="line"/>
			<point x="443" y="638" type="line"/>
			<point x="343" y="472" type="line"/>
			<point x="316" y="428"/>
			<point x="290" y="382"/>
			<point x="262" y="333" type="curve"/>
			<point x="259" y="333" type="line"/>
			<point x="250" y="382"/>
			<point x="242" y="427"/>
			<point x="232" y="472" type="curve" smooth="yes"/>
			<point x="197" y="638" type="line"/>
			<point x="101" y="638" type="line"/>
			<point x="186" y="328" type="line"/>
			<point x="60" y="328" type="line"/>
			<point x="48" y="272" type="line"/>
			<point x="202" y="272" type="line"/>
			<point x="189" y="204" type="line"/>
			<point x="35" y="204" type="line"/>
			<point x="23" y="148" type="line"/>
			<point x="177" y="148" type="line"/>
		</contour>
	</outline>
</glyph>
<glyph name="brokenbar" format="2">
	<unicode hex="00A6"/>
	<advance width="237"/>
	<outline>
		<contour>
			<point x="93" y="294" type="line"/>
			<point x="154" y="294" type="line"/>
			<point x="154" y="750" type="line"/>
			<point x="93" y="750" type="line"/>
		</contour>
		<contour>
			<point x="93" y="-250" type="line"/>
			<point x="154" y="-250" type="line"/>
			<point x="154" y="211" type="line"/>
			<point x="93" y="211" type="line"/>
		</contour>
	</outline>
</glyph>
<glyph name="section" format="2">
	<unicode hex="00A7"/>
	<advance width="484"/>
	<outline>
		<contour>
			<point x="318" y="132" type="line"/>
			<point x="399" y="164"/>
			<point x="448" y="207"/>
			<point x="448" y="292" type="curve" smooth="yes"/>
			<point x="448" y="440"/>
			<point x="230" y="459"/>
			<point x="230" y="547" type="curve" smooth="yes"/>
			<point x="230" y="590"/>
			<point x="264" y="614"/>
			<point x="302" y="614" type="curve" smooth="yes"/>
			<point x="344" y="614"/>
			<point x="381" y="588"/>
			<point x="409" y="558" type="curve"/>
			<point x="459" y="611" type="line"/>
			<point x="417" y="655"/>
			<point x="362" y="686"/>
			<point x="303" y="686" type="curve" smooth="yes"/>
			<point x="211" y="686"/>
			<point x="145" y="625"/>
			<point x="145" y="536" type="curve" smooth="yes"/>
			<point x="145" y="401"/>
			<point x="366" y="388"/>
			<point x="366" y="280" type="curve" smooth="yes"/>
			<point x="366" y="222"/>
			<point x="332" y="198"/>
			<point x="274" y="181" type="curve"/>
		</contour>
		<contour>
			<point x="185" y="-65" type="curve" smooth="yes"/>
			<point x="284" y="-65"/>
			<point x="355" y="0"/>
			<point x="355" y="89" type="curve" smooth="yes"/>
			<point x="355" y="231"/>
			<point x="135" y="234"/>
			<point x="135" y="341" type="curve" smooth="yes"/>
			<point x="135" y="397"/>
			<point x="175" y="427"/>
			<point x="227" y="443" type="curve"/>
			<point x="190" y="488" type="line"/>
			<point x="113" y="464"/>
			<point x="54" y="411"/>
			<point x="54" y="329" type="curve" smooth="yes"/>
			<point x="54" y="180"/>
			<point x="271" y="173"/>
			<point x="271" y="77" type="curve" smooth="yes"/>
			<point x="271" y="35"/>
			<point x="236" y="5"/>
			<point x="190" y="5" type="curve" smooth="yes"/>
			<point x="142" y="5"/>
			<point x="94" y="35"/>
			<point x="60" y="71" type="curve"/>
			<point x="11" y="12" type="line"/>
			<point x="60" y="-36"/>
			<point x="124" y="-65"/>
		</contour>
	</outline>
</glyph>
<glyph name="copyright" format="2">
	<unicode hex="00A9"/>
	<advance width="667"/>
	<outline>
		<contour>
			<point x="298" y="-10" type="curve" smooth="yes"/>
			<point x="515" y="-10"/>
			<point x="664" y="177"/>
			<point x="664" y="377" type="curve" smooth="yes"/>
			<point x="664" y="540"/>
			<point x="556" y="654"/>
			<point x="400" y="654" type="curve" smooth="yes"/>
			<point x="183" y="654"/>
			<point x="34" y="467"/>
			<point x="34" y="267" type="curve" smooth="yes"/>
			<point x="34" y="104"/>
			<point x="142" y="-10"/>
		</contour>
		<contour>
			<point x="302" y="35" type="curve" smooth="yes"/>
			<point x="163" y="35"/>
			<point x="83" y="136"/>
			<point x="83" y="272" type="curve" smooth="yes"/>
			<point x="83" y="442"/>
			<point x="212" y="609"/>
			<point x="396" y="609" type="curve" smooth="yes"/>
			<point x="535" y="609"/>
			<point x="615" y="508"/>
			<point x="615" y="372" type="curve" smooth="yes"/>
			<point x="615" y="202"/>
			<point x="485" y="35"/>
		</contour>
		<contour>
			<point x="325" y="129" type="curve" smooth="yes"/>
			<point x="376" y="129"/>
			<point x="418" y="147"/>
			<point x="459" y="179" type="curve"/>
			<point x="430" y="222" type="line"/>
			<point x="399" y="201"/>
			<point x="374" y="187"/>
			<point x="338" y="187" type="curve" smooth="yes"/>
			<point x="282" y="187"/>
			<point x="248" y="223"/>
			<point x="248" y="291" type="curve" smooth="yes"/>
			<point x="248" y="387"/>
			<point x="321" y="457"/>
			<point x="382" y="457" type="curve" smooth="yes"/>
			<point x="409" y="457"/>
			<point x="428" y="448"/>
			<point x="446" y="426" type="curve"/>
			<point x="489" y="464" type="line"/>
			<point x="469" y="492"/>
			<point x="437" y="515"/>
			<point x="390" y="515" type="curve" smooth="yes"/>
			<point x="292" y="515"/>
			<point x="178" y="425"/>
			<point x="178" y="281" type="curve" smooth="yes"/>
			<point x="178" y="183"/>
			<point x="238" y="129"/>
		</contour>
	</outline>
</glyph>
<glyph name="logicalnot" format="2">
	<unicode hex="00AC"/>
	<advance width="487"/>
	<outline>
		<contour>
			<point x="395" y="101" type="line"/>
			<point x="465" y="101" type="line"/>
			<point x="465" y="364" type="line"/>
			<point x="48" y="364" type="line"/>
			<point x="48" y="297" type="line"/>
			<point x="395" y="297" type="line"/>
		</contour>
	</outline>
</glyph>
<glyph name="registered" format="2">
	<unicode hex="00AE"/>
	<advance width="416"/>
	<outline>
		<contour>
			<point x="240" y="320" type="curve" smooth="yes"/>
			<point x="356" y="320"/>
			<point x="442" y="427"/>
			<point x="442" y="540" type="curve" smooth="yes"/>
			<point x="441" y="640"/>
			<point x="365" y="711"/>
			<point x="276" y="711" type="curve" smooth="yes"/>
			<point x="159" y="711"/>
			<point x="75" y="603"/>
			<point x="75" y="491" type="curve" smooth="yes"/>
			<point x="75" y="390"/>
			<point x="151" y="320"/>
		</contour>
		<contour>
			<point x="243" y="358" type="curve" smooth="yes"/>
			<point x="164" y="358"/>
			<point x="115" y="417"/>
			<point x="115" y="495" type="curve" smooth="yes"/>
			<point x="115" y="590"/>
			<point x="183" y="673"/>
			<point x="273" y="673" type="curve" smooth="yes"/>
			<point x="352" y="673"/>
			<point x="402" y="614"/>
			<point x="402" y="536" type="curve" smooth="yes"/>
			<point x="402" y="440"/>
			<point x="332" y="358"/>
		</contour>
		<contour>
			<point x="171" y="417" type="line"/>
			<point x="213" y="417" type="line"/>
			<point x="227" y="484" type="line"/>
			<point x="260" y="484" type="line"/>
			<point x="281" y="417" type="line"/>
			<point x="324" y="417" type="line"/>
			<point x="297" y="494" type="line"/>
			<point x="327" y="505"/>
			<point x="346" y="530"/>
			<point x="346" y="559" type="curve" smooth="yes"/>
			<point x="346" y="596"/>
			<point x="321" y="617"/>
			<point x="282" y="617" type="curve" smooth="yes"/>
			<point x="212" y="617" type="line"/>
		</contour>
		<contour>
			<point x="234" y="517" type="line"/>
			<point x="246" y="583" type="line"/>
			<point x="270" y="583" type="line" smooth="yes"/>
			<point x="292" y="583"/>
			<point x="301" y="572"/>
			<point x="301" y="555" type="curve" smooth="yes"/>
			<point x="301" y="532"/>
			<point x="284" y="517"/>
			<point x="254" y="517" type="curve" smooth="yes"/>
		</contour>
	</outline>
</glyph>
<glyph name="degree" format="2">
	<unicode hex="00B0"/>
	<advance width="322"/>
	<outline>
		<contour>
			<point x="211" y="425" type="curve" smooth="yes"/>
			<point x="284" y="425"/>
			<point x="347" y="491"/>
			<point x="347" y="570" type="curve" smooth="yes"/>
			<point x="347" y="639"/>
			<point x="300" y="685"/>
			<point x="236" y="685" type="curve" smooth="yes"/>
			<point x="162" y="685"/>
			<point x="99" y="619"/>
			<point x="99" y="539" type="curve" smooth="yes"/>
			<point x="99" y="471"/>
			<point x="146" y="425"/>
		</contour>
		<contour>
			<point x="215" y="474" type="curve" smooth="yes"/>
			<point x="175" y="474"/>
			<point x="153" y="504"/>
			<point x="153" y="541" type="curve" smooth="yes"/>
			<point x="153" y="590"/>
			<point x="184" y="636"/>
			<point x="232" y="636" type="curve" smooth="yes"/>
			<point x="271" y="636"/>
			<point x="293" y="606"/>
			<point x="293" y="568" type="curve" smooth="yes"/>
			<point x="293" y="520"/>
			<point x="262" y="474"/>
		</contour>
	</outline>
</glyph>
<glyph name="plusminus" format="2">
	<unicode hex="00B1"/>
	<advance width="487"/>
	<outline>
		<contour>
			<point x="220" y="136" type="line"/>
			<point x="291" y="136" type="line"/>
			<point x="291" y="314" type="line"/>
			<point x="465" y="314" type="line"/>
			<point x="465" y="382" type="line"/>
			<point x="292" y="382" type="line"/>
			<point x="292" y="557" type="line"/>
			<point x="221" y="557" type="line"/>
			<point x="221" y="382" type="line"/>
			<point x="48" y="382" type="line"/>
			<point x="48" y="314" type="line"/>
			<point x="220" y="314" type="line"/>
		</contour>
		<contour>
			<point x="48" y="0" type="line"/>
			<point x="465" y="0" type="line"/>
			<point x="465" y="68" type="line"/>
			<point x="48" y="68" type="line"/>
		</contour>
	</outline>
</glyph>
<glyph name="mu" format="2">
	<unicode hex="00B5"/>
	<unicode hex="03BC"/>
	<advance width="528"/>
	<outline>
		<contour>
			<point x="-11" y="-178" type="line"/>
			<point x="83" y="-178" type="line"/>
			<point x="92" y="-103"/>
			<point x="100" y="-52"/>
			<point x="119" y="43" type="curve"/>
			<point x="134" y="1"/>
			<point x="167" y="-11"/>
			<point x="203" y="-11" type="curve" smooth="yes"/>
			<point x="247" y="-11"/>
			<point x="300" y="15"/>
			<point x="340" y="81" type="curve"/>
			<point x="344" y="81" type="line"/>
			<point x="341" y="65"/>
			<point x="340" y="60"/>
			<point x="340" y="53" type="curve" smooth="yes"/>
			<point x="341" y="12"/>
			<point x="365" y="-10"/>
			<point x="417" y="-10" type="curve" smooth="yes"/>
			<point x="438" y="-10"/>
			<point x="453" y="-6"/>
			<point x="466" y="-1" type="curve"/>
			<point x="467" y="69" type="line"/>
			<point x="460" y="67"/>
			<point x="452" y="66"/>
			<point x="445" y="66" type="curve" smooth="yes"/>
			<point x="431" y="66"/>
			<point x="421" y="71"/>
			<point x="421" y="93" type="curve" smooth="yes"/>
			<point x="421" y="123"/>
			<point x="457" y="282"/>
			<point x="506" y="489" type="curve"/>
			<point x="413" y="489" type="line"/>
			<point x="349" y="167" type="line"/>
			<point x="294" y="87"/>
			<point x="253" y="66"/>
			<point x="216" y="66" type="curve" smooth="yes"/>
			<point x="177" y="66"/>
			<point x="149" y="83"/>
			<point x="149" y="137" type="curve" smooth="yes"/>
			<point x="149" y="151"/>
			<point x="152" y="177"/>
			<point x="157" y="200" type="curve" smooth="yes"/>
			<point x="217" y="489" type="line"/>
			<point x="124" y="489" type="line"/>
		</contour>
	</outline>
	<anchor name="aboveLC" x="315" y="512"/>
	<anchor name="belowLC" x="224" y="-182"/>
</glyph>
<glyph name="paragraph" format="2">
	<unicode hex="00B6"/>
	<advance width="554"/>
	<outline>
		<contour>
			<point x="304" y="-80" type="line"/>
			<point x="396" y="-80" type="line"/>
			<point x="542" y="655" type="line"/>
			<point x="450" y="655" type="line"/>
		</contour>
		<contour>
			<point x="291" y="220" type="curve" smooth="yes"/>
			<point x="310" y="220" type="line"/>
			<point x="398" y="655" type="line"/>
			<point x="351" y="655" type="line" smooth="yes"/>
			<point x="207" y="655"/>
			<point x="72" y="574"/>
			<point x="72" y="398" type="curve" smooth="yes"/>
			<point x="72" y="282"/>
			<point x="173" y="220"/>
		</contour>
	</outline>
</glyph>
<glyph name="questiondown" format="2">
	<unicode hex="00BF"/>
	<advance width="418"/>
	<outline>
		<contour>
			<point x="156" y="-192" type="curve" smooth="yes"/>
			<point x="216" y="-192"/>
			<point x="272" y="-164"/>
			<point x="313" y="-122" type="curve"/>
			<point x="265" y="-68" type="line"/>
			<point x="237" y="-98"/>
			<point x="202" y="-117"/>
			<point x="167" y="-117" type="curve" smooth="yes"/>
			<point x="117" y="-117"/>
			<point x="87" y="-86"/>
			<point x="87" y="-36" type="curve" smooth="yes"/>
			<point x="87" y="80"/>
			<point x="268" y="114"/>
			<point x="280" y="281" type="curve"/>
			<point x="200" y="288" type="line"/>
			<point x="185" y="140"/>
			<point x="-3" y="109"/>
			<point x="-3" y="-51" type="curve" smooth="yes"/>
			<point x="-3" y="-139"/>
			<point x="59" y="-192"/>
		</contour>
		<contour>
			<point x="257" y="367" type="curve" smooth="yes"/>
			<point x="300" y="367"/>
			<point x="332" y="408"/>
			<point x="332" y="445" type="curve" smooth="yes"/>
			<point x="332" y="478"/>
			<point x="311" y="502"/>
			<point x="278" y="502" type="curve" smooth="yes"/>
			<point x="235" y="502"/>
			<point x="204" y="463"/>
			<point x="204" y="425" type="curve" smooth="yes"/>
			<point x="204" y="392"/>
			<point x="224" y="367"/>
		</contour>
	</outline>
</glyph>
<glyph name="AE" format="2">
	<unicode hex="00C6"/>
	<advance width="812"/>
	<outline>
		<contour>
			<point x="-34" y="0" type="line"/>
			<point x="72" y="0" type="line"/>
			<point x="320" y="376" type="line" smooth="yes"/>
			<point x="367" y="447"/>
			<point x="413" y="514"/>
			<point x="460" y="585" type="curve"/>
			<point x="464" y="585" type="line"/>
			<point x="347" y="0" type="line"/>
			<point x="713" y="0" type="line"/>
			<point x="729" y="78" type="line"/>
			<point x="455" y="78" type="line"/>
			<point x="501" y="304" type="line"/>
			<point x="723" y="304" type="line"/>
			<point x="739" y="382" type="line"/>
			<point x="516" y="382" type="line"/>
			<point x="554" y="577" type="line"/>
			<point x="819" y="577" type="line"/>
			<point x="835" y="655" type="line"/>
			<point x="416" y="655" type="line"/>
		</contour>
		<contour>
			<point x="145" y="184" type="line"/>
			<point x="434" y="184" type="line"/>
			<point x="450" y="258" type="line"/>
			<point x="162" y="258" type="line"/>
		</contour>
	</outline>
	<anchor name="aboveUC" x="620" y="677"/>
</glyph>
<glyph name="Eth" format="2">
	<unicode hex="00D0"/>
	<advance width="621"/>
	<outline>
		<contour>
			<point x="41" y="307" type="line"/>
			<point x="354" y="307" type="line"/>
			<point x="368" y="379" type="line"/>
			<point x="129" y="379" type="line"/>
			<point x="57" y="375" type="line"/>
		</contour>
		<component base="D" xOffset="20"/>
	</outline>
	<anchor name="aboveUC" x="389" y="677"/>
	<anchor name="belowLC" x="275" y="-22"/>
</glyph>
<glyph name="multiply" format="2">
	<unicode hex="00D7"/>
	<advance width="487"/>
	<outline>
		<contour>
			<point x="111" y="131" type="line"/>
			<point x="257" y="284" type="line"/>
			<point x="402" y="131" type="line"/>
			<point x="449" y="179" type="line"/>
			<point x="304" y="331" type="line"/>
			<point x="449" y="482" type="line"/>
			<point x="402" y="530" type="line"/>
			<point x="257" y="378" type="line"/>
			<point x="111" y="530" type="line"/>
			<point x="64" y="482" type="line"/>
			<point x="209" y="331" type="line"/>
			<point x="64" y="179" type="line"/>
		</contour>
	</outline>
</glyph>
<glyph name="Oslash" format="2">
	<unicode hex="00D8"/>
	<advance width="641"/>
	<outline>
		<contour>
			<point x="45" y="-37" type="line"/>
			<point x="687" y="645" type="line"/>
			<point x="636" y="694" type="line"/>
			<point x="-8" y="12" type="line"/>
		</contour>
		<component base="O"/>
	</outline>
	<anchor name="aboveUC" x="400" y="677"/>
	<anchor name="belowLC" x="275" y="-22"/>
</glyph>
<glyph name="Thorn" format="2">
	<unicode hex="00DE"/>
	<advance width="571"/>
	<outline>
		<contour>
			<point x="33" y="0" type="line"/>
			<point x="125" y="0" type="line"/>
			<point x="154" y="144" type="line"/>
			<point x="252" y="144" type="line" smooth="yes"/>
			<point x="418" y="144"/>
			<point x="544" y="215"/>
			<point x="544" y="381" type="curve" smooth="yes"/>
			<point x="544" y="498"/>
			<point x="461" y="545"/>
			<point x="342" y="545" type="curve" smooth="yes"/>
			<point x="234" y="545" type="line"/>
			<point x="257" y="660" type="line"/>
			<point x="164" y="660" type="line"/>
		</contour>
		<contour>
			<point x="169" y="218" type="line"/>
			<point x="219" y="470" type="line"/>
			<point x="317" y="470" type="line" smooth="yes"/>
			<point x="404" y="470"/>
			<point x="452" y="440"/>
			<point x="452" y="368" type="curve" smooth="yes"/>
			<point x="452" y="270"/>
			<point x="384" y="218"/>
			<point x="258" y="218" type="curve" smooth="yes"/>
		</contour>
	</outline>
</glyph>
<glyph name="germandbls" format="2">
	<unicode hex="00DF"/>
	<advance width="569"/>
	<outline>
		<contour>
			<point x="348" y="-12" type="curve" smooth="yes"/>
			<point x="446" y="-12"/>
			<point x="519" y="60"/>
			<point x="519" y="149" type="curve" smooth="yes"/>
			<point x="519" y="271"/>
			<point x="387" y="290"/>
			<point x="387" y="361" type="curve" smooth="yes"/>
			<point x="387" y="433"/>
			<point x="524" y="463"/>
			<point x="524" y="585" type="curve" smooth="yes"/>
			<point x="524" y="677"/>
			<point x="449" y="721"/>
			<point x="360" y="721" type="curve" smooth="yes"/>
			<point x="235" y="721"/>
			<point x="153" y="631"/>
			<point x="131" y="520" type="curve" smooth="yes"/>
			<point x="27" y="0" type="line"/>
			<point x="119" y="0" type="line"/>
			<point x="219" y="500" type="line" smooth="yes"/>
			<point x="235" y="581"/>
			<point x="287" y="647"/>
			<point x="356" y="647" type="curve" smooth="yes"/>
			<point x="412" y="647"/>
			<point x="435" y="616"/>
			<point x="435" y="573" type="curve" smooth="yes"/>
			<point x="435" y="473"/>
			<point x="297" y="449"/>
			<point x="297" y="347" type="curve" smooth="yes"/>
			<point x="297" y="245"/>
			<point x="433" y="226"/>
			<point x="433" y="139" type="curve" smooth="yes"/>
			<point x="433" y="92"/>
			<point x="395" y="59"/>
			<point x="348" y="59" type="curve" smooth="yes"/>
			<point x="308" y="59"/>
			<point x="275" y="72"/>
			<point x="246" y="95" type="curve"/>
			<point x="211" y="37" type="line"/>
			<point x="250" y="2"/>
			<point x="300" y="-12"/>
		</contour>
	</outline>
</glyph>
<glyph name="eth" format="2">
	<unicode hex="00F0"/>
	<advance width="534"/>
	<outline>
		<contour>
			<point x="219" y="-12" type="curve" smooth="yes"/>
			<point x="373" y="-12"/>
			<point x="482" y="141"/>
			<point x="482" y="358" type="curve" smooth="yes"/>
			<point x="482" y="538"/>
			<point x="387" y="655"/>
			<point x="232" y="733" type="curve"/>
			<point x="186" y="678" type="line"/>
			<point x="332" y="599"/>
			<point x="391" y="507"/>
			<point x="391" y="347" type="curve" smooth="yes"/>
			<point x="391" y="183"/>
			<point x="324" y="63"/>
			<point x="231" y="63" type="curve" smooth="yes"/>
			<point x="168" y="63"/>
			<point x="131" y="118"/>
			<point x="131" y="183" type="curve" smooth="yes"/>
			<point x="131" y="278"/>
			<point x="188" y="377"/>
			<point x="281" y="377" type="curve" smooth="yes"/>
			<point x="333" y="377"/>
			<point x="369" y="339"/>
			<point x="392" y="299" type="curve"/>
			<point x="407" y="354" type="line"/>
			<point x="381" y="413"/>
			<point x="333" y="449"/>
			<point x="275" y="449" type="curve" smooth="yes"/>
			<point x="131" y="449"/>
			<point x="39" y="311"/>
			<point x="39" y="175" type="curve" smooth="yes"/>
			<point x="39" y="65"/>
			<point x="113" y="-12"/>
		</contour>
		<contour>
			<point x="175" y="490" type="line"/>
			<point x="530" y="636" type="line"/>
			<point x="504" y="700" type="line"/>
			<point x="149" y="554" type="line"/>
		</contour>
	</outline>
	<anchor name="aboveUC" x="369" y="727"/>
	<anchor name="belowLC" x="215" y="-22"/>
</glyph>
<glyph name="divide" format="2">
	<unicode hex="00F7"/>
	<advance width="487"/>
	<outline>
		<contour>
			<point x="48" y="297" type="line"/>
			<point x="465" y="297" type="line"/>
			<point x="465" y="364" type="line"/>
			<point x="48" y="364" type="line"/>
		</contour>
		<contour>
			<point x="257" y="92" type="curve" smooth="yes"/>
			<point x="289" y="92"/>
			<point x="314" y="115"/>
			<point x="314" y="148" type="curve" smooth="yes"/>
			<point x="314" y="180"/>
			<point x="289" y="204"/>
			<point x="257" y="204" type="curve" smooth="yes"/>
			<point x="224" y="204"/>
			<point x="199" y="180"/>
			<point x="199" y="148" type="curve" smooth="yes"/>
			<point x="199" y="115"/>
			<point x="224" y="92"/>
		</contour>
		<contour>
			<point x="257" y="455" type="curve" smooth="yes"/>
			<point x="289" y="455"/>
			<point x="314" y="479"/>
			<point x="314" y="512" type="curve" smooth="yes"/>
			<point x="314" y="544"/>
			<point x="289" y="567"/>
			<point x="257" y="567" type="curve" smooth="yes"/>
			<point x="224" y="567"/>
			<point x="199" y="544"/>
			<point x="199" y="512" type="curve" smooth="yes"/>
			<point x="199" y="479"/>
			<point x="224" y="455"/>
		</contour>
	</outline>
</glyph>
<glyph name="oslash" format="2">
	<unicode hex="00F8"/>
	<advance width="519"/>
	<outline>
		<contour>
			<point x="215" y="-12" type="curve" smooth="yes"/>
			<point x="348" y="-12"/>
			<point x="482" y="116"/>
			<point x="482" y="303" type="curve" smooth="yes"/>
			<point x="482" y="428"/>
			<point x="407" y="501"/>
			<point x="302" y="501" type="curve" smooth="yes"/>
			<point x="170" y="501"/>
			<point x="36" y="372"/>
			<point x="36" y="186" type="curve" smooth="yes"/>
			<point x="36" y="60"/>
			<point x="111" y="-12"/>
		</contour>
		<contour>
			<point x="221" y="62" type="curve" smooth="yes"/>
			<point x="157" y="62"/>
			<point x="123" y="110"/>
			<point x="123" y="190" type="curve" smooth="yes"/>
			<point x="123" y="308"/>
			<point x="199" y="427"/>
			<point x="296" y="427" type="curve" smooth="yes"/>
			<point x="359" y="427"/>
			<point x="394" y="378"/>
			<point x="394" y="298" type="curve" smooth="yes"/>
			<point x="394" y="180"/>
			<point x="320" y="62"/>
		</contour>
		<contour>
			<point x="39" y="-30" type="line"/>
			<point x="529" y="474" type="line"/>
			<point x="483" y="517" type="line"/>
			<point x="-6" y="14" type="line"/>
		</contour>
	</outline>
	<anchor name="aboveLC" x="315" y="512"/>
	<anchor name="belowLC" x="195" y="-22"/>
</glyph>
<glyph name="thorn" format="2">
	<unicode hex="00FE"/>
	<advance width="539"/>
	<outline>
		<contour>
			<point x="-14" y="-200" type="line"/>
			<point x="79" y="-200" type="line"/>
			<point x="108" y="-47" type="line"/>
			<point x="125" y="55" type="line"/>
			<point x="127" y="55" type="line"/>
			<point x="151" y="15"/>
			<point x="191" y="-12"/>
			<point x="239" y="-12" type="curve" smooth="yes"/>
			<point x="374" y="-12"/>
			<point x="502" y="136"/>
			<point x="502" y="323" type="curve" smooth="yes"/>
			<point x="502" y="437"/>
			<point x="448" y="501"/>
			<point x="362" y="501" type="curve" smooth="yes"/>
			<point x="305" y="501"/>
			<point x="250" y="470"/>
			<point x="203" y="432" type="curve"/>
			<point x="201" y="432" type="line"/>
			<point x="224" y="527" type="line"/>
			<point x="261" y="709" type="line"/>
			<point x="169" y="709" type="line"/>
		</contour>
		<contour>
			<point x="235" y="65" type="curve" smooth="yes"/>
			<point x="200" y="65"/>
			<point x="169" y="83"/>
			<point x="144" y="128" type="curve"/>
			<point x="189" y="350" type="line"/>
			<point x="230" y="398"/>
			<point x="285" y="424"/>
			<point x="326" y="424" type="curve" smooth="yes"/>
			<point x="376" y="424"/>
			<point x="407" y="387"/>
			<point x="407" y="310" type="curve" smooth="yes"/>
			<point x="407" y="180"/>
			<point x="324" y="65"/>
		</contour>
	</outline>
	<anchor name="aboveUC" x="390" y="727"/>
	<anchor name="belowLC" x="39" y="-203"/>
</glyph>
<glyph name="Aogonek" format="2">
	<unicode hex="0104"/>
	<advance width="520"/>
	<outline>
		<contour>
			<point x="390" y="-221" type="curve" smooth="yes"/>
			<point x="426" y="-221"/>
			<point x="461" y="-209"/>
			<point x="489" y="-187" type="curve"/>
			<point x="468" y="-138" type="line"/>
			<point x="453" y="-148"/>
			<point x="441" y="-152"/>
			<point x="426" y="-152" type="curve" smooth="yes"/>
			<point x="403" y="-152"/>
			<point x="385" y="-138"/>
			<point x="385" y="-114" type="curve" smooth="yes"/>
			<point x="385" y="-74"/>
			<point x="421" y="-30"/>
			<point x="480" y="0" type="curve"/>
			<point x="406" y="655" type="line"/>
			<point x="298" y="655" type="line"/>
			<point x="-56" y="0" type="line"/>
			<point x="47" y="0" type="line"/>
			<point x="234" y="371" type="line" smooth="yes"/>
			<point x="269" y="441"/>
			<point x="301" y="506"/>
			<point x="334" y="579" type="curve"/>
			<point x="338" y="579" type="line"/>
			<point x="342" y="506"/>
			<point x="348" y="439"/>
			<point x="353" y="371" type="curve" smooth="yes"/>
			<point x="383" y="0" type="line"/>
			<point x="400" y="0" type="line"/>
			<point x="353" y="-32"/>
			<point x="299" y="-89"/>
			<point x="299" y="-145" type="curve" smooth="yes"/>
			<point x="299" y="-194"/>
			<point x="338" y="-221"/>
		</contour>
		<contour>
			<point x="107" y="194" type="line"/>
			<point x="399" y="194" type="line"/>
			<point x="415" y="266" type="line"/>
			<point x="125" y="266" type="line"/>
		</contour>
	</outline>
	<anchor name="aboveUC" x="354" y="677"/>
</glyph>
<glyph name="aogonek" format="2">
	<unicode hex="0105"/>
	<advance width="541"/>
	<outline>
		<contour>
			<point x="330" y="-216" type="curve" smooth="yes"/>
			<point x="368" y="-216"/>
			<point x="399" y="-203"/>
			<point x="427" y="-181" type="curve"/>
			<point x="406" y="-138" type="line"/>
			<point x="391" y="-148"/>
			<point x="380" y="-153"/>
			<point x="363" y="-153" type="curve" smooth="yes"/>
			<point x="341" y="-153"/>
			<point x="325" y="-139"/>
			<point x="325" y="-115" type="curve" smooth="yes"/>
			<point x="325" y="-69"/>
			<point x="362" y="-24"/>
			<point x="415" y="0" type="curve"/>
			<point x="513" y="489" type="line"/>
			<point x="438" y="489" type="line"/>
			<point x="419" y="429" type="line"/>
			<point x="415" y="429" type="line"/>
			<point x="393" y="473"/>
			<point x="350" y="501"/>
			<point x="300" y="501" type="curve" smooth="yes"/>
			<point x="165" y="501"/>
			<point x="37" y="353"/>
			<point x="37" y="166" type="curve" smooth="yes"/>
			<point x="37" y="51"/>
			<point x="91" y="-12"/>
			<point x="177" y="-12" type="curve" smooth="yes"/>
			<point x="236" y="-12"/>
			<point x="296" y="21"/>
			<point x="343" y="70" type="curve"/>
			<point x="346" y="70" type="line"/>
			<point x="341" y="5" type="line"/>
			<point x="296" y="-24"/>
			<point x="247" y="-82"/>
			<point x="247" y="-140" type="curve" smooth="yes"/>
			<point x="247" y="-190"/>
			<point x="282" y="-216"/>
		</contour>
		<contour>
			<point x="213" y="65" type="curve" smooth="yes"/>
			<point x="164" y="65"/>
			<point x="132" y="101"/>
			<point x="132" y="179" type="curve" smooth="yes"/>
			<point x="132" y="309"/>
			<point x="215" y="424"/>
			<point x="305" y="424" type="curve" smooth="yes"/>
			<point x="338" y="424"/>
			<point x="371" y="405"/>
			<point x="396" y="358" type="curve"/>
			<point x="354" y="152" type="line"/>
			<point x="310" y="91"/>
			<point x="260" y="65"/>
		</contour>
	</outline>
	<anchor name="aboveLC" x="315" y="512"/>
</glyph>
<glyph name="dcroat" format="2">
	<unicode hex="0111"/>
	<advance width="541"/>
	<outline>
		<contour>
			<point x="177" y="-12" type="curve" smooth="yes"/>
			<point x="235" y="-12"/>
			<point x="296" y="21"/>
			<point x="343" y="70" type="curve"/>
			<point x="346" y="70" type="line"/>
			<point x="339" y="0" type="line"/>
			<point x="415" y="0" type="line"/>
			<point x="558" y="709" type="line"/>
			<point x="466" y="709" type="line"/>
			<point x="423" y="492" type="line"/>
			<point x="408" y="396" type="line"/>
			<point x="405" y="396" type="line"/>
			<point x="384" y="438"/>
			<point x="343" y="465"/>
			<point x="290" y="465" type="curve" smooth="yes"/>
			<point x="161" y="465"/>
			<point x="37" y="328"/>
			<point x="37" y="166" type="curve" smooth="yes"/>
			<point x="37" y="51"/>
			<point x="91" y="-12"/>
		</contour>
		<contour>
			<point x="213" y="64" type="curve" smooth="yes"/>
			<point x="163" y="64"/>
			<point x="132" y="101"/>
			<point x="132" y="179" type="curve" smooth="yes"/>
			<point x="132" y="285"/>
			<point x="211" y="389"/>
			<point x="296" y="389" type="curve" smooth="yes"/>
			<point x="334" y="389"/>
			<point x="366" y="369"/>
			<point x="389" y="323" type="curve"/>
			<point x="354" y="152" type="line"/>
			<point x="309" y="91"/>
			<point x="260" y="64"/>
		</contour>
		<contour>
			<point x="272" y="550" type="line"/>
			<point x="524" y="550" type="line"/>
			<point x="598" y="555" type="line"/>
			<point x="612" y="620" type="line"/>
			<point x="286" y="620" type="line"/>
		</contour>
	</outline>
</glyph>
<glyph name="Eogonek" format="2">
	<unicode hex="0118"/>
	<advance width="508"/>
	<outline>
		<contour>
			<point x="310" y="-221" type="curve" smooth="yes"/>
			<point x="346" y="-221"/>
			<point x="381" y="-209"/>
			<point x="409" y="-187" type="curve"/>
			<point x="388" y="-138" type="line"/>
			<point x="373" y="-148"/>
			<point x="361" y="-152"/>
			<point x="346" y="-152" type="curve" smooth="yes"/>
			<point x="323" y="-152"/>
			<point x="305" y="-138"/>
			<point x="305" y="-114" type="curve" smooth="yes"/>
			<point x="305" y="-69"/>
			<point x="360" y="-5"/>
			<point x="410" y="0" type="curve"/>
			<point x="426" y="78" type="line"/>
			<point x="141" y="78" type="line"/>
			<point x="188" y="304" type="line"/>
			<point x="420" y="304" type="line"/>
			<point x="436" y="382" type="line"/>
			<point x="202" y="382" type="line"/>
			<point x="241" y="577" type="line"/>
			<point x="517" y="577" type="line"/>
			<point x="532" y="655" type="line"/>
			<point x="164" y="655" type="line"/>
			<point x="33" y="0" type="line"/>
			<point x="320" y="0" type="line"/>
			<point x="273" y="-32"/>
			<point x="219" y="-89"/>
			<point x="219" y="-145" type="curve" smooth="yes"/>
			<point x="219" y="-194"/>
			<point x="258" y="-221"/>
		</contour>
	</outline>
	<anchor name="aboveUC" x="361" y="677"/>
	<anchor name="belowLC" x="210" y="-203"/>
</glyph>
<glyph name="Hbar" format="2">
	<unicode hex="0126"/>
	<advance width="670"/>
	<outline>
		<contour>
			<point x="74" y="481" type="line"/>
			<point x="688" y="481" type="line"/>
			<point x="702" y="553" type="line"/>
			<point x="164" y="553" type="line"/>
			<point x="88" y="549" type="line"/>
		</contour>
		<component base="H" xOffset="20"/>
	</outline>
	<guideline x="51" y="371" angle="79" identifier="3pQ9Y9MY0i"/>
	<guideline x="646" y="311" angle="79" identifier="L7yqoPUWXs"/>
</glyph>
<glyph name="hbar" format="2">
	<unicode hex="0127"/>
	<advance width="539"/>
	<outline>
		<contour>
			<point x="36" y="0" type="line"/>
			<point x="129" y="0" type="line"/>
			<point x="189" y="304" type="line"/>
			<point x="246" y="360"/>
			<point x="288" y="386"/>
			<point x="325" y="386" type="curve" smooth="yes"/>
			<point x="370" y="386"/>
			<point x="391" y="363"/>
			<point x="391" y="317" type="curve" smooth="yes"/>
			<point x="391" y="301"/>
			<point x="388" y="287"/>
			<point x="383" y="263" type="curve" smooth="yes"/>
			<point x="330" y="0" type="line"/>
			<point x="422" y="0" type="line"/>
			<point x="478" y="275" type="line" smooth="yes"/>
			<point x="483" y="300"/>
			<point x="486" y="319"/>
			<point x="486" y="343" type="curve" smooth="yes"/>
			<point x="486" y="419"/>
			<point x="451" y="465"/>
			<point x="369" y="465" type="curve" smooth="yes"/>
			<point x="310" y="465"/>
			<point x="257" y="431"/>
			<point x="205" y="386" type="curve"/>
			<point x="201" y="386" type="line"/>
			<point x="219" y="452" type="line"/>
			<point x="271" y="709" type="line"/>
			<point x="179" y="709" type="line"/>
		</contour>
		<contour>
			<point x="67" y="550" type="line"/>
			<point x="412" y="550" type="line"/>
			<point x="426" y="620" type="line"/>
			<point x="162" y="620" type="line"/>
			<point x="79" y="614" type="line"/>
		</contour>
	</outline>
</glyph>
<glyph name="Iogonek" format="2">
	<unicode hex="012E"/>
	<advance width="261"/>
	<outline>
		<contour>
			<point x="42" y="-221" type="curve" smooth="yes"/>
			<point x="78" y="-221"/>
			<point x="114" y="-209"/>
			<point x="142" y="-187" type="curve"/>
			<point x="121" y="-138" type="line"/>
			<point x="106" y="-148"/>
			<point x="94" y="-152"/>
			<point x="78" y="-152" type="curve" smooth="yes"/>
			<point x="55" y="-152"/>
			<point x="37" y="-138"/>
			<point x="37" y="-114" type="curve" smooth="yes"/>
			<point x="37" y="-74"/>
			<point x="74" y="-30"/>
			<point x="126" y="0" type="curve"/>
			<point x="257" y="655" type="line"/>
			<point x="164" y="655" type="line"/>
			<point x="33" y="0" type="line"/>
			<point x="53" y="0" type="line"/>
			<point x="6" y="-32"/>
			<point x="-48" y="-89"/>
			<point x="-48" y="-145" type="curve" smooth="yes"/>
			<point x="-48" y="-194"/>
			<point x="-9" y="-221"/>
		</contour>
	</outline>
	<anchor name="aboveUC" x="214" y="677"/>
</glyph>
<glyph name="dotlessi" format="2">
	<unicode hex="0131"/>
	<advance width="244"/>
	<outline>
		<contour>
			<point x="27" y="0" type="line"/>
			<point x="119" y="0" type="line"/>
			<point x="217" y="489" type="line"/>
			<point x="124" y="489" type="line"/>
		</contour>
	</outline>
	<anchor name="aboveLC" x="175" y="512"/>
	<anchor name="belowLC" x="70" y="-22"/>
	<anchor name="ogonekLC" x="70" y="0"/>
</glyph>
<glyph name="IJ" format="2">
	<unicode hex="0132"/>
	<advance width="521"/>
	<outline>
		<contour>
			<point x="230" y="-168" type="curve" smooth="yes"/>
			<point x="322" y="-168"/>
			<point x="366" y="-101"/>
			<point x="386" y="-5" type="curve" smooth="yes"/>
			<point x="518" y="655" type="line"/>
			<point x="425" y="655" type="line"/>
			<point x="293" y="-5" type="line" smooth="yes"/>
			<point x="282" y="-63"/>
			<point x="260" y="-93"/>
			<point x="224" y="-93" type="curve" smooth="yes"/>
			<point x="207" y="-93"/>
			<point x="195" y="-90"/>
			<point x="179" y="-81" type="curve"/>
			<point x="150" y="-149" type="line"/>
			<point x="178" y="-163"/>
			<point x="201" y="-168"/>
		</contour>
		<contour>
			<point x="33" y="0" type="line"/>
			<point x="126" y="0" type="line"/>
			<point x="257" y="655" type="line"/>
			<point x="164" y="655" type="line"/>
		</contour>
	</outline>
</glyph>
<glyph name="kgreenlandic" format="2">
	<unicode hex="0138"/>
	<advance width="488"/>
	<outline>
		<contour>
			<point x="27" y="0" type="line"/>
			<point x="119" y="0" type="line"/>
			<point x="144" y="122" type="line"/>
			<point x="248" y="227" type="line"/>
			<point x="336" y="0" type="line"/>
			<point x="429" y="0" type="line"/>
			<point x="312" y="282" type="line"/>
			<point x="508" y="489" type="line"/>
			<point x="404" y="489" type="line"/>
			<point x="171" y="246" type="line"/>
			<point x="168" y="246" type="line"/>
			<point x="216" y="489" type="line"/>
			<point x="123" y="489" type="line"/>
		</contour>
	</outline>
</glyph>
<glyph name="Lslash" format="2">
	<unicode hex="0141"/>
	<advance width="491"/>
	<outline>
		<contour>
			<point x="18" y="207" type="line"/>
			<point x="110" y="247" type="line"/>
			<point x="195" y="284" type="line"/>
			<point x="417" y="372" type="line"/>
			<point x="393" y="438" type="line"/>
			<point x="211" y="365" type="line"/>
			<point x="126" y="329" type="line"/>
			<point x="-8" y="273" type="line"/>
		</contour>
		<component base="L" xOffset="20"/>
	</outline>
	<anchor name="aboveUC" x="239" y="677"/>
	<anchor name="belowLC" x="245" y="-22"/>
</glyph>
<glyph name="lslash" format="2">
	<unicode hex="0142"/>
	<advance width="301"/>
	<outline>
		<contour>
			<point x="34" y="301" type="line"/>
			<point x="128" y="342" type="line"/>
			<point x="213" y="379" type="line"/>
			<point x="357" y="438" type="line"/>
			<point x="332" y="504" type="line"/>
			<point x="229" y="461" type="line"/>
			<point x="144" y="424" type="line"/>
			<point x="8" y="366" type="line"/>
		</contour>
		<component base="l" xOffset="25"/>
	</outline>
	<anchor name="aboveUC" x="244" y="727"/>
	<anchor name="belowLC" x="119" y="-22"/>
</glyph>
<glyph name="Eng" format="2">
	<unicode hex="014A"/>
	<advance width="621"/>
	<outline>
		<contour>
			<point x="349" y="-12" type="curve" smooth="yes"/>
			<point x="496" y="-12"/>
			<point x="598" y="206"/>
			<point x="598" y="437" type="curve" smooth="yes"/>
			<point x="598" y="601"/>
			<point x="525" y="667"/>
			<point x="422" y="667" type="curve" smooth="yes"/>
			<point x="360" y="667"/>
			<point x="294" y="633"/>
			<point x="236" y="575" type="curve"/>
			<point x="252" y="655" type="line"/>
			<point x="164" y="655" type="line"/>
			<point x="33" y="0" type="line"/>
			<point x="126" y="0" type="line"/>
			<point x="223" y="486" type="line"/>
			<point x="283" y="553"/>
			<point x="346" y="587"/>
			<point x="394" y="587" type="curve" smooth="yes"/>
			<point x="458" y="587"/>
			<point x="503" y="545"/>
			<point x="503" y="429" type="curve" smooth="yes"/>
			<point x="503" y="255"/>
			<point x="424" y="68"/>
			<point x="341" y="68" type="curve" smooth="yes"/>
			<point x="324" y="68"/>
			<point x="308" y="71"/>
			<point x="295" y="79" type="curve"/>
			<point x="267" y="8" type="line"/>
			<point x="286" y="-5"/>
			<point x="320" y="-12"/>
		</contour>
	</outline>
	<anchor name="aboveUC" x="424" y="677"/>
	<anchor name="belowLC" x="264" y="-22"/>
</glyph>
<glyph name="eng" format="2">
	<unicode hex="014B"/>
	<advance width="532"/>
	<outline>
		<contour>
			<point x="247" y="-212" type="curve" smooth="yes"/>
			<point x="339" y="-212"/>
			<point x="383" y="-143"/>
			<point x="402" y="-50" type="curve" smooth="yes"/>
			<point x="474" y="310" type="line" smooth="yes"/>
			<point x="479" y="336"/>
			<point x="482" y="355"/>
			<point x="482" y="378" type="curve" smooth="yes"/>
			<point x="482" y="455"/>
			<point x="448" y="501"/>
			<point x="366" y="501" type="curve" smooth="yes"/>
			<point x="305" y="501"/>
			<point x="251" y="464"/>
			<point x="198" y="417" type="curve"/>
			<point x="194" y="417" type="line"/>
			<point x="200" y="489" type="line"/>
			<point x="124" y="489" type="line"/>
			<point x="27" y="0" type="line"/>
			<point x="119" y="0" type="line"/>
			<point x="186" y="340" type="line"/>
			<point x="242" y="396"/>
			<point x="285" y="421"/>
			<point x="321" y="421" type="curve" smooth="yes"/>
			<point x="367" y="421"/>
			<point x="388" y="398"/>
			<point x="388" y="353" type="curve" smooth="yes"/>
			<point x="388" y="336"/>
			<point x="385" y="322"/>
			<point x="380" y="298" type="curve" smooth="yes"/>
			<point x="309" y="-49" type="line" smooth="yes"/>
			<point x="296" y="-108"/>
			<point x="277" y="-137"/>
			<point x="240" y="-137" type="curve" smooth="yes"/>
			<point x="223" y="-137"/>
			<point x="208" y="-134"/>
			<point x="194" y="-127" type="curve"/>
			<point x="168" y="-192" type="line"/>
			<point x="191" y="-207"/>
			<point x="218" y="-212"/>
		</contour>
	</outline>
	<anchor name="aboveLC" x="339" y="512"/>
	<anchor name="belowLC" x="184" y="-203"/>
</glyph>
<glyph name="OE" format="2">
	<unicode hex="0152"/>
	<advance width="820"/>
	<outline>
		<contour>
			<point x="340" y="0" type="curve" smooth="yes"/>
			<point x="722" y="0" type="line"/>
			<point x="737" y="78" type="line"/>
			<point x="469" y="78" type="line"/>
			<point x="516" y="304" type="line"/>
			<point x="732" y="304" type="line"/>
			<point x="747" y="382" type="line"/>
			<point x="531" y="382" type="line"/>
			<point x="569" y="577" type="line"/>
			<point x="828" y="577" type="line"/>
			<point x="844" y="655" type="line"/>
			<point x="415" y="655" type="line" smooth="yes"/>
			<point x="197" y="655"/>
			<point x="59" y="499"/>
			<point x="59" y="256" type="curve" smooth="yes"/>
			<point x="59" y="92"/>
			<point x="158" y="0"/>
		</contour>
		<contour>
			<point x="343" y="76" type="line" smooth="yes"/>
			<point x="222" y="76"/>
			<point x="154" y="142"/>
			<point x="154" y="262" type="curve" smooth="yes"/>
			<point x="154" y="456"/>
			<point x="258" y="580"/>
			<point x="416" y="580" type="curve" smooth="yes"/>
			<point x="478" y="580" type="line"/>
			<point x="377" y="76" type="line"/>
		</contour>
	</outline>
	<anchor name="aboveUC" x="580" y="677"/>
</glyph>
<glyph name="Tbar" format="2">
	<unicode hex="0166"/>
	<advance width="515"/>
	<outline>
		<contour>
			<point x="97" y="293" type="line"/>
			<point x="435" y="293" type="line"/>
			<point x="449" y="364" type="line"/>
			<point x="203" y="364" type="line"/>
			<point x="111" y="359" type="line"/>
		</contour>
		<component base="T"/>
	</outline>
	<anchor name="aboveUC" x="340" y="677"/>
	<anchor name="belowLC" x="205" y="-22"/>
</glyph>
<glyph name="tbar" format="2">
	<unicode hex="0167"/>
	<advance width="335"/>
	<outline>
		<contour>
			<point x="15" y="216" type="line"/>
			<point x="299" y="216" type="line"/>
			<point x="313" y="285" type="line"/>
			<point x="102" y="285" type="line"/>
			<point x="27" y="280" type="line"/>
		</contour>
		<component base="t"/>
	</outline>
	<anchor name="aboveLC" x="229" y="647"/>
	<anchor name="belowLC" x="165" y="-22"/>
</glyph>
<glyph name="Uogonek" format="2">
	<unicode hex="0172"/>
	<advance width="623"/>
	<outline>
		<contour>
			<point x="226" y="-221" type="curve" smooth="yes"/>
			<point x="261" y="-221"/>
			<point x="297" y="-208"/>
			<point x="325" y="-187" type="curve"/>
			<point x="304" y="-138" type="line"/>
			<point x="287" y="-149"/>
			<point x="276" y="-152"/>
			<point x="262" y="-152" type="curve" smooth="yes"/>
			<point x="239" y="-152"/>
			<point x="220" y="-138"/>
			<point x="220" y="-114" type="curve" smooth="yes"/>
			<point x="220" y="-77"/>
			<point x="258" y="-27"/>
			<point x="339" y="-9" type="curve" smooth="yes"/>
			<point x="450" y="15"/>
			<point x="509" y="92"/>
			<point x="543" y="257" type="curve" smooth="yes"/>
			<point x="623" y="655" type="line"/>
			<point x="532" y="655" type="line"/>
			<point x="453" y="259" type="line" smooth="yes"/>
			<point x="423" y="112"/>
			<point x="369" y="68"/>
			<point x="295" y="68" type="curve" smooth="yes"/>
			<point x="209" y="68"/>
			<point x="171" y="118"/>
			<point x="171" y="206" type="curve" smooth="yes"/>
			<point x="171" y="230"/>
			<point x="174" y="255"/>
			<point x="180" y="285" type="curve" smooth="yes"/>
			<point x="254" y="655" type="line"/>
			<point x="161" y="655" type="line"/>
			<point x="89" y="296" type="line" smooth="yes"/>
			<point x="83" y="263"/>
			<point x="78" y="228"/>
			<point x="78" y="200" type="curve" smooth="yes"/>
			<point x="78" y="60"/>
			<point x="153" y="-12"/>
			<point x="291" y="-12" type="curve"/>
			<point x="250" y="0" type="line"/>
			<point x="193" y="-27"/>
			<point x="135" y="-85"/>
			<point x="135" y="-145" type="curve" smooth="yes"/>
			<point x="135" y="-194"/>
			<point x="174" y="-221"/>
		</contour>
	</outline>
	<anchor name="aboveUC" x="395" y="677"/>
</glyph>
<glyph name="uogonek" format="2">
	<unicode hex="0173"/>
	<advance width="527"/>
	<outline>
		<contour>
			<point x="322" y="-216" type="curve" smooth="yes"/>
			<point x="360" y="-216"/>
			<point x="391" y="-203"/>
			<point x="419" y="-181" type="curve"/>
			<point x="398" y="-138" type="line"/>
			<point x="383" y="-148"/>
			<point x="372" y="-153"/>
			<point x="355" y="-153" type="curve" smooth="yes"/>
			<point x="333" y="-153"/>
			<point x="317" y="-139"/>
			<point x="317" y="-115" type="curve" smooth="yes"/>
			<point x="317" y="-69"/>
			<point x="354" y="-24"/>
			<point x="407" y="0" type="curve"/>
			<point x="504" y="489" type="line"/>
			<point x="412" y="489" type="line"/>
			<point x="345" y="149" type="line"/>
			<point x="290" y="93"/>
			<point x="248" y="67"/>
			<point x="212" y="67" type="curve" smooth="yes"/>
			<point x="167" y="67"/>
			<point x="146" y="91"/>
			<point x="146" y="136" type="curve" smooth="yes"/>
			<point x="146" y="152"/>
			<point x="149" y="166"/>
			<point x="154" y="190" type="curve" smooth="yes"/>
			<point x="214" y="489" type="line"/>
			<point x="122" y="489" type="line"/>
			<point x="60" y="179" type="line" smooth="yes"/>
			<point x="54" y="153"/>
			<point x="52" y="134"/>
			<point x="52" y="111" type="curve" smooth="yes"/>
			<point x="52" y="34"/>
			<point x="85" y="-12"/>
			<point x="167" y="-12" type="curve" smooth="yes"/>
			<point x="226" y="-12"/>
			<point x="282" y="26"/>
			<point x="334" y="72" type="curve"/>
			<point x="338" y="72" type="line"/>
			<point x="333" y="5" type="line"/>
			<point x="288" y="-24"/>
			<point x="239" y="-82"/>
			<point x="239" y="-140" type="curve" smooth="yes"/>
			<point x="239" y="-190"/>
			<point x="274" y="-216"/>
		</contour>
	</outline>
	<anchor name="aboveLC" x="315" y="512"/>
</glyph>
<glyph name="longs" format="2">
	<unicode hex="017F"/>
	<advance width="294"/>
	<outline>
		<contour>
			<point x="41" y="0" type="line"/>
			<point x="133" y="0" type="line"/>
			<point x="246" y="560" type="line" smooth="yes"/>
			<point x="257" y="616"/>
			<point x="283" y="647"/>
			<point x="325" y="647" type="curve" smooth="yes"/>
			<point x="347" y="647"/>
			<point x="365" y="640"/>
			<point x="378" y="632" type="curve"/>
			<point x="409" y="696" type="line"/>
			<point x="384" y="711"/>
			<point x="353" y="721"/>
			<point x="317" y="721" type="curve" smooth="yes"/>
			<point x="228" y="721"/>
			<point x="174" y="658"/>
			<point x="153" y="557" type="curve" smooth="yes"/>
		</contour>
		<contour>
			<point x="61" y="415" type="line"/>
			<point x="172" y="415" type="line"/>
			<point x="187" y="489" type="line"/>
			<point x="141" y="489" type="line"/>
			<point x="75" y="484" type="line"/>
		</contour>
	</outline>
	<anchor name="aboveUC" x="304" y="727"/>
	<anchor name="belowLC" x="89" y="-22"/>
</glyph>
<glyph name="bstroke" format="2">
	<unicode hex="0180"/>
	<advance width="548"/>
	<outline>
		<contour>
			<point x="254" y="-12" type="curve" smooth="yes"/>
			<point x="384" y="-12"/>
			<point x="507" y="124"/>
			<point x="507" y="293" type="curve" smooth="yes"/>
			<point x="507" y="404"/>
			<point x="452" y="465"/>
			<point x="367" y="465" type="curve" smooth="yes"/>
			<point x="309" y="465"/>
			<point x="254" y="435"/>
			<point x="207" y="397" type="curve"/>
			<point x="205" y="397" type="line"/>
			<point x="228" y="492" type="line"/>
			<point x="271" y="709" type="line"/>
			<point x="179" y="709" type="line"/>
			<point x="36" y="0" type="line"/>
			<point x="113" y="0" type="line"/>
			<point x="134" y="59" type="line"/>
			<point x="136" y="59" type="line"/>
			<point x="159" y="16"/>
			<point x="201" y="-12"/>
		</contour>
		<contour>
			<point x="249" y="64" type="curve" smooth="yes"/>
			<point x="213" y="64"/>
			<point x="179" y="84"/>
			<point x="155" y="130" type="curve"/>
			<point x="193" y="314" type="line"/>
			<point x="235" y="362"/>
			<point x="289" y="389"/>
			<point x="331" y="389" type="curve" smooth="yes"/>
			<point x="380" y="389"/>
			<point x="411" y="353"/>
			<point x="411" y="279" type="curve" smooth="yes"/>
			<point x="411" y="167"/>
			<point x="335" y="64"/>
		</contour>
		<contour>
			<point x="67" y="550" type="line"/>
			<point x="412" y="550" type="line"/>
			<point x="426" y="620" type="line"/>
			<point x="162" y="620" type="line"/>
			<point x="79" y="614" type="line"/>
		</contour>
	</outline>
</glyph>
<glyph name="Bhook" format="2">
	<unicode hex="0181"/>
	<advance width="716"/>
	<outline>
		<contour>
			<point x="197" y="0" type="line"/>
			<point x="391" y="0" type="line" smooth="yes"/>
			<point x="546" y="0"/>
			<point x="665" y="63"/>
			<point x="665" y="211" type="curve" smooth="yes"/>
			<point x="665" y="283"/>
			<point x="616" y="325"/>
			<point x="547" y="341" type="curve"/>
			<point x="547" y="345" type="line"/>
			<point x="624" y="364"/>
			<point x="693" y="424"/>
			<point x="693" y="509" type="curve" smooth="yes"/>
			<point x="693" y="608"/>
			<point x="618" y="667"/>
			<point x="428" y="667" type="curve" smooth="yes"/>
			<point x="163" y="667"/>
			<point x="53" y="517"/>
			<point x="53" y="379" type="curve" smooth="yes"/>
			<point x="53" y="317"/>
			<point x="86" y="269"/>
			<point x="138" y="241" type="curve"/>
			<point x="187" y="306" type="line"/>
			<point x="154" y="326"/>
			<point x="138" y="350"/>
			<point x="138" y="392" type="curve" smooth="yes"/>
			<point x="138" y="474"/>
			<point x="212" y="591"/>
			<point x="384" y="591" type="curve" smooth="yes"/>
			<point x="446" y="591" type="line" smooth="yes"/>
			<point x="554" y="591"/>
			<point x="598" y="554"/>
			<point x="598" y="495" type="curve" smooth="yes"/>
			<point x="598" y="425"/>
			<point x="544" y="377"/>
			<point x="428" y="377" type="curve" smooth="yes"/>
			<point x="365" y="377" type="line"/>
			<point x="413" y="616" type="line"/>
			<point x="320" y="616" type="line"/>
		</contour>
		<contour>
			<point x="304" y="73" type="line"/>
			<point x="352" y="311" type="line"/>
			<point x="437" y="311" type="line" smooth="yes"/>
			<point x="527" y="311"/>
			<point x="575" y="273"/>
			<point x="575" y="206" type="curve" smooth="yes"/>
			<point x="575" y="114"/>
			<point x="503" y="73"/>
			<point x="387" y="73" type="curve" smooth="yes"/>
		</contour>
	</outline>
	<anchor name="aboveUC" x="489" y="677"/>
	<anchor name="belowLC" x="409" y="-22"/>
</glyph>
<glyph name="Oopen" format="2">
	<unicode hex="0186"/>
	<advance width="548"/>
	<outline>
		<contour>
			<point x="201" y="-12" type="curve" smooth="yes"/>
			<point x="389" y="-12"/>
			<point x="527" y="159"/>
			<point x="527" y="392" type="curve" smooth="yes"/>
			<point x="527" y="569"/>
			<point x="438" y="667"/>
			<point x="305" y="667" type="curve" smooth="yes"/>
			<point x="230" y="667"/>
			<point x="158" y="636"/>
			<point x="113" y="594" type="curve"/>
			<point x="147" y="530" type="line"/>
			<point x="192" y="566"/>
			<point x="242" y="588"/>
			<point x="293" y="588" type="curve" smooth="yes"/>
			<point x="385" y="588"/>
			<point x="432" y="513"/>
			<point x="432" y="388" type="curve" smooth="yes"/>
			<point x="432" y="210"/>
			<point x="335" y="67"/>
			<point x="206" y="67" type="curve" smooth="yes"/>
			<point x="142" y="67"/>
			<point x="96" y="92"/>
			<point x="61" y="135" type="curve"/>
			<point x="14" y="78" type="line"/>
			<point x="54" y="19"/>
			<point x="122" y="-12"/>
		</contour>
	</outline>
	<anchor name="aboveUC" x="320" y="677"/>
	<anchor name="baseLC" x="215" y="0"/>
	<anchor name="belowLC" x="205" y="-22"/>
	<anchor name="ogonekUC" x="220" y="0"/>
</glyph>
<glyph name="Dhook" format="2">
	<unicode hex="018A"/>
	<advance width="741"/>
	<outline>
		<contour>
			<point x="197" y="0" type="line"/>
			<point x="360" y="0" type="line" smooth="yes"/>
			<point x="570" y="0"/>
			<point x="715" y="156"/>
			<point x="715" y="400" type="curve" smooth="yes"/>
			<point x="715" y="568"/>
			<point x="616" y="667"/>
			<point x="428" y="667" type="curve" smooth="yes"/>
			<point x="163" y="667"/>
			<point x="53" y="517"/>
			<point x="53" y="379" type="curve" smooth="yes"/>
			<point x="53" y="317"/>
			<point x="86" y="269"/>
			<point x="138" y="241" type="curve"/>
			<point x="187" y="306" type="line"/>
			<point x="154" y="326"/>
			<point x="138" y="350"/>
			<point x="138" y="392" type="curve" smooth="yes"/>
			<point x="138" y="474"/>
			<point x="212" y="591"/>
			<point x="384" y="591" type="curve" smooth="yes"/>
			<point x="429" y="591" type="line" smooth="yes"/>
			<point x="549" y="591"/>
			<point x="620" y="526"/>
			<point x="620" y="395" type="curve" smooth="yes"/>
			<point x="620" y="199"/>
			<point x="510" y="76"/>
			<point x="358" y="76" type="curve" smooth="yes"/>
			<point x="305" y="76" type="line"/>
			<point x="413" y="616" type="line"/>
			<point x="320" y="616" type="line"/>
		</contour>
	</outline>
	<anchor name="aboveUC" x="491" y="677"/>
	<anchor name="belowLC" x="404" y="-22"/>
</glyph>
<glyph name="Eturned" format="2">
	<unicode hex="018E"/>
	<advance width="508"/>
	<outline>
		<contour>
			<point x="-3" y="0" type="line"/>
			<point x="374" y="0" type="line"/>
			<point x="505" y="655" type="line"/>
			<point x="137" y="655" type="line"/>
			<point x="121" y="577" type="line"/>
			<point x="397" y="577" type="line"/>
			<point x="358" y="382" type="line"/>
			<point x="124" y="382" type="line"/>
			<point x="109" y="304" type="line"/>
			<point x="342" y="304" type="line"/>
			<point x="298" y="78" type="line"/>
			<point x="13" y="78" type="line"/>
		</contour>
	</outline>
	<anchor name="aboveUC" x="324" y="677"/>
	<anchor name="belowLC" x="199" y="-22"/>
	<anchor name="ogonekUC" x="205" y="0"/>
</glyph>
<glyph name="Schwa" format="2">
	<unicode hex="018F"/>
	<advance width="644"/>
	<outline>
		<contour>
			<point x="285" y="-12" type="curve" smooth="yes"/>
			<point x="478" y="-12"/>
			<point x="620" y="159"/>
			<point x="620" y="392" type="curve" smooth="yes"/>
			<point x="620" y="562"/>
			<point x="536" y="667"/>
			<point x="389" y="667" type="curve" smooth="yes"/>
			<point x="298" y="667"/>
			<point x="223" y="630"/>
			<point x="164" y="579" type="curve"/>
			<point x="208" y="518" type="line"/>
			<point x="252" y="558"/>
			<point x="313" y="590"/>
			<point x="378" y="590" type="curve" smooth="yes"/>
			<point x="488" y="590"/>
			<point x="528" y="510"/>
			<point x="528" y="384" type="curve" smooth="yes"/>
			<point x="528" y="201"/>
			<point x="428" y="66"/>
			<point x="292" y="66" type="curve" smooth="yes"/>
			<point x="193" y="66"/>
			<point x="135" y="145"/>
			<point x="153" y="279" type="curve"/>
			<point x="533" y="279" type="line"/>
			<point x="547" y="348" type="line"/>
			<point x="81" y="348" type="line"/>
			<point x="69" y="308"/>
			<point x="64" y="278"/>
			<point x="64" y="233" type="curve" smooth="yes"/>
			<point x="64" y="88"/>
			<point x="148" y="-12"/>
		</contour>
	</outline>
	<anchor name="aboveUC" x="430" y="677"/>
	<anchor name="belowLC" x="301" y="-22"/>
</glyph>
<glyph name="Eopen" format="2">
	<unicode hex="0190"/>
	<advance width="534"/>
	<outline>
		<contour>
			<point x="238" y="-12" type="curve" smooth="yes"/>
			<point x="341" y="-12"/>
			<point x="412" y="24"/>
			<point x="472" y="79" type="curve"/>
			<point x="433" y="136" type="line"/>
			<point x="383" y="94"/>
			<point x="323" y="67"/>
			<point x="252" y="67" type="curve" smooth="yes"/>
			<point x="174" y="67"/>
			<point x="127" y="105"/>
			<point x="127" y="169" type="curve" smooth="yes"/>
			<point x="127" y="245"/>
			<point x="207" y="309"/>
			<point x="314" y="309" type="curve" smooth="yes"/>
			<point x="386" y="309" type="line"/>
			<point x="398" y="378" type="line"/>
			<point x="345" y="378" type="line" smooth="yes"/>
			<point x="251" y="378"/>
			<point x="216" y="419"/>
			<point x="216" y="472" type="curve" smooth="yes"/>
			<point x="216" y="541"/>
			<point x="281" y="588"/>
			<point x="356" y="588" type="curve" smooth="yes"/>
			<point x="414" y="588"/>
			<point x="457" y="566"/>
			<point x="485" y="523" type="curve"/>
			<point x="538" y="572" type="line"/>
			<point x="507" y="630"/>
			<point x="437" y="667"/>
			<point x="357" y="667" type="curve" smooth="yes"/>
			<point x="224" y="667"/>
			<point x="125" y="583"/>
			<point x="125" y="478" type="curve" smooth="yes"/>
			<point x="125" y="415"/>
			<point x="165" y="369"/>
			<point x="212" y="349" type="curve"/>
			<point x="212" y="345" type="line"/>
			<point x="121" y="323"/>
			<point x="27" y="251"/>
			<point x="27" y="147" type="curve" smooth="yes"/>
			<point x="27" y="50"/>
			<point x="107" y="-12"/>
		</contour>
	</outline>
	<anchor name="aboveUC" x="365" y="677"/>
	<anchor name="baseLC" x="234" y="0"/>
	<anchor name="belowLC" x="229" y="-22"/>
	<anchor name="ogonekUC" x="234" y="0"/>
</glyph>
<glyph name="florin" format="2">
	<unicode hex="0192"/>
	<advance width="294"/>
	<outline>
		<contour>
			<point x="-32" y="-212" type="curve" smooth="yes"/>
			<point x="59" y="-212"/>
			<point x="105" y="-143"/>
			<point x="123" y="-50" type="curve" smooth="yes"/>
			<point x="216" y="415" type="line"/>
			<point x="312" y="415" type="line"/>
			<point x="327" y="489" type="line"/>
			<point x="231" y="489" type="line"/>
			<point x="246" y="560" type="line" smooth="yes"/>
			<point x="257" y="616"/>
			<point x="283" y="647"/>
			<point x="324" y="647" type="curve" smooth="yes"/>
			<point x="346" y="647"/>
			<point x="365" y="641"/>
			<point x="378" y="633" type="curve"/>
			<point x="409" y="696" type="line"/>
			<point x="384" y="711"/>
			<point x="353" y="721"/>
			<point x="317" y="721" type="curve" smooth="yes"/>
			<point x="227" y="721"/>
			<point x="173" y="656"/>
			<point x="153" y="557" type="curve" smooth="yes"/>
			<point x="140" y="489" type="line"/>
			<point x="75" y="484" type="line"/>
			<point x="61" y="415" type="line"/>
			<point x="124" y="415" type="line"/>
			<point x="31" y="-49" type="line" smooth="yes"/>
			<point x="18" y="-106"/>
			<point x="-1" y="-137"/>
			<point x="-39" y="-137" type="curve" smooth="yes"/>
			<point x="-56" y="-137"/>
			<point x="-71" y="-134"/>
			<point x="-85" y="-127" type="curve"/>
			<point x="-110" y="-193" type="line"/>
			<point x="-87" y="-207"/>
			<point x="-61" y="-212"/>
		</contour>
	</outline>
	<anchor name="aboveUC" x="304" y="727"/>
	<anchor name="belowLC" x="-16" y="-203"/>
</glyph>
<glyph name="Ghook" format="2">
	<unicode hex="0193"/>
	<advance width="594"/>
	<outline>
		<contour>
			<point x="304" y="-12" type="curve" smooth="yes"/>
			<point x="380" y="-12"/>
			<point x="446" y="16"/>
			<point x="494" y="55" type="curve"/>
			<point x="552" y="346" type="line"/>
			<point x="341" y="346" type="line"/>
			<point x="326" y="270" type="line"/>
			<point x="454" y="270" type="line"/>
			<point x="419" y="103" type="line"/>
			<point x="396" y="83"/>
			<point x="360" y="67"/>
			<point x="318" y="67" type="curve" smooth="yes"/>
			<point x="198" y="67"/>
			<point x="152" y="150"/>
			<point x="152" y="263" type="curve" smooth="yes"/>
			<point x="152" y="418"/>
			<point x="250" y="587"/>
			<point x="399" y="587" type="curve" smooth="yes"/>
			<point x="453" y="587"/>
			<point x="493" y="562"/>
			<point x="520" y="519" type="curve"/>
			<point x="574" y="573" type="line"/>
			<point x="562" y="605"/>
			<point x="557" y="632"/>
			<point x="557" y="658" type="curve" smooth="yes"/>
			<point x="557" y="704"/>
			<point x="578" y="731"/>
			<point x="613" y="731" type="curve" smooth="yes"/>
			<point x="630" y="731"/>
			<point x="638" y="728"/>
			<point x="650" y="720" type="curve"/>
			<point x="680" y="783" type="line"/>
			<point x="660" y="796"/>
			<point x="633" y="805"/>
			<point x="605" y="805" type="curve" smooth="yes"/>
			<point x="529" y="805"/>
			<point x="485" y="749"/>
			<point x="485" y="688" type="curve" smooth="yes"/>
			<point x="485" y="664"/>
			<point x="487" y="649"/>
			<point x="494" y="614" type="curve"/>
			<point x="511" y="628" type="line"/>
			<point x="481" y="653"/>
			<point x="448" y="667"/>
			<point x="404" y="667" type="curve" smooth="yes"/>
			<point x="195" y="667"/>
			<point x="57" y="468"/>
			<point x="57" y="255" type="curve" smooth="yes"/>
			<point x="57" y="92"/>
			<point x="145" y="-12"/>
		</contour>
	</outline>
	<anchor name="aboveUC" x="331" y="677"/>
	<anchor name="belowLC" x="285" y="-22"/>
</glyph>
<glyph name="Gammalatin" format="2">
	<unicode hex="0194"/>
	<advance width="490"/>
	<outline>
		<contour>
			<point x="151" y="-220" type="curve" smooth="yes"/>
			<point x="239" y="-220"/>
			<point x="293" y="-151"/>
			<point x="293" y="-64" type="curve" smooth="yes"/>
			<point x="293" y="-30"/>
			<point x="287" y="7"/>
			<point x="264" y="86" type="curve"/>
			<point x="262" y="38" type="line"/>
			<point x="592" y="655" type="line"/>
			<point x="491" y="655" type="line"/>
			<point x="323" y="316" type="line" smooth="yes"/>
			<point x="289" y="247"/>
			<point x="255" y="177"/>
			<point x="223" y="106" type="curve"/>
			<point x="219" y="106" type="line"/>
			<point x="216" y="178"/>
			<point x="211" y="246"/>
			<point x="205" y="316" type="curve" smooth="yes"/>
			<point x="177" y="655" type="line"/>
			<point x="81" y="655" type="line"/>
			<point x="155" y="39" type="line"/>
			<point x="166" y="87" type="line"/>
			<point x="95" y="-1"/>
			<point x="54" y="-64"/>
			<point x="54" y="-127" type="curve" smooth="yes"/>
			<point x="54" y="-185"/>
			<point x="92" y="-220"/>
		</contour>
		<contour>
			<point x="163" y="-156" type="curve" smooth="yes"/>
			<point x="144" y="-156"/>
			<point x="131" y="-142"/>
			<point x="131" y="-119" type="curve" smooth="yes"/>
			<point x="131" y="-82"/>
			<point x="161" y="-33"/>
			<point x="201" y="19" type="curve"/>
			<point x="205" y="19" type="line"/>
			<point x="213" y="-15"/>
			<point x="216" y="-45"/>
			<point x="216" y="-73" type="curve" smooth="yes"/>
			<point x="216" y="-122"/>
			<point x="199" y="-156"/>
		</contour>
	</outline>
	<anchor name="aboveUC" x="305" y="677"/>
	<anchor name="belowLC" x="144" y="-203"/>
</glyph>
<glyph name="Iotalatin" format="2">
	<unicode hex="0196"/>
	<advance width="261"/>
	<outline>
		<contour>
			<point x="129" y="-10" type="curve" smooth="yes"/>
			<point x="149" y="-10"/>
			<point x="167" y="-5"/>
			<point x="183" y="1" type="curve"/>
			<point x="177" y="72" type="line"/>
			<point x="169" y="70"/>
			<point x="166" y="70"/>
			<point x="162" y="70" type="curve" smooth="yes"/>
			<point x="152" y="70"/>
			<point x="146" y="76"/>
			<point x="146" y="87" type="curve" smooth="yes"/>
			<point x="146" y="93"/>
			<point x="146" y="98"/>
			<point x="148" y="109" type="curve" smooth="yes"/>
			<point x="257" y="655" type="line"/>
			<point x="164" y="655" type="line"/>
			<point x="55" y="108" type="line" smooth="yes"/>
			<point x="51" y="90"/>
			<point x="49" y="75"/>
			<point x="49" y="62" type="curve" smooth="yes"/>
			<point x="49" y="17"/>
			<point x="74" y="-10"/>
		</contour>
	</outline>
	<anchor name="aboveUC" x="214" y="677"/>
	<anchor name="belowLC" x="104" y="-22"/>
</glyph>
<glyph name="Istroke" format="2">
	<unicode hex="0197"/>
	<advance width="301"/>
	<outline>
		<contour>
			<point x="38" y="307" type="line"/>
			<point x="281" y="307" type="line"/>
			<point x="295" y="379" type="line"/>
			<point x="129" y="379" type="line"/>
			<point x="52" y="373" type="line"/>
		</contour>
		<component base="I" xOffset="20"/>
	</outline>
	<anchor name="aboveUC" x="234" y="677"/>
	<anchor name="belowLC" x="99" y="-22"/>
</glyph>
<glyph name="lbar" format="2">
	<unicode hex="019A"/>
	<advance width="315"/>
	<outline>
		<contour>
			<point x="34" y="351" type="line"/>
			<point x="313" y="351" type="line"/>
			<point x="327" y="420" type="line"/>
			<point x="142" y="420" type="line"/>
			<point x="46" y="414" type="line"/>
		</contour>
		<component base="l" xOffset="30"/>
	</outline>
	<anchor name="aboveUC" x="249" y="727"/>
	<anchor name="belowLC" x="129" y="-22"/>
</glyph>
<glyph name="lambdabar" format="2">
	<unicode hex="019B"/>
	<advance width="461"/>
	<outline>
		<contour>
			<point x="115" y="453" type="line"/>
			<point x="467" y="598" type="line"/>
			<point x="442" y="662" type="line"/>
			<point x="89" y="517" type="line"/>
		</contour>
		<component base="lambda.latin"/>
	</outline>
	<anchor name="aboverightUC" x="399" y="677"/>
	<anchor name="aboveUC" x="275" y="727"/>
	<anchor name="belowLC" x="204" y="-22"/>
</glyph>
<glyph name="Ohorn" format="2">
	<unicode hex="01A0"/>
	<advance width="640"/>
	<outline>
		<contour>
			<point x="539" y="600" type="line"/>
			<point x="615" y="614"/>
			<point x="669" y="663"/>
			<point x="669" y="739" type="curve" smooth="yes"/>
			<point x="669" y="759"/>
			<point x="665" y="778"/>
			<point x="656" y="800" type="curve"/>
			<point x="583" y="776" type="line"/>
			<point x="590" y="760"/>
			<point x="592" y="746"/>
			<point x="592" y="732" type="curve" smooth="yes"/>
			<point x="592" y="682"/>
			<point x="557" y="643"/>
			<point x="492" y="639" type="curve"/>
		</contour>
		<component base="O"/>
	</outline>
	<anchor name="aboveUC" x="408" y="677"/>
	<anchor name="belowLC" x="280" y="-22"/>
</glyph>
<glyph name="ohorn" format="2">
	<unicode hex="01A1"/>
	<advance width="522"/>
	<outline>
		<contour>
			<point x="431" y="439" type="line"/>
			<point x="503" y="454"/>
			<point x="562" y="506"/>
			<point x="562" y="587" type="curve" smooth="yes"/>
			<point x="562" y="606"/>
			<point x="558" y="631"/>
			<point x="550" y="651" type="curve"/>
			<point x="478" y="626" type="line"/>
			<point x="483" y="613"/>
			<point x="487" y="593"/>
			<point x="486" y="581" type="curve" smooth="yes"/>
			<point x="484" y="523"/>
			<point x="446" y="483"/>
			<point x="387" y="477" type="curve"/>
		</contour>
		<component base="o"/>
	</outline>
	<anchor name="aboveLC" x="310" y="512"/>
	<anchor name="belowLC" x="195" y="-22"/>
</glyph>
<glyph name="Uhorn" format="2">
	<unicode hex="01AF"/>
	<advance width="639"/>
	<outline>
		<contour>
			<point x="610" y="615" type="line"/>
			<point x="695" y="629"/>
			<point x="751" y="671"/>
			<point x="751" y="747" type="curve" smooth="yes"/>
			<point x="751" y="767"/>
			<point x="747" y="786"/>
			<point x="738" y="808" type="curve"/>
			<point x="665" y="784" type="line"/>
			<point x="672" y="768"/>
			<point x="674" y="754"/>
			<point x="674" y="741" type="curve" smooth="yes"/>
			<point x="674" y="690"/>
			<point x="637" y="659"/>
			<point x="573" y="655" type="curve"/>
		</contour>
		<component base="U"/>
	</outline>
	<anchor name="aboveUC" x="395" y="677"/>
	<anchor name="belowLC" x="264" y="-22"/>
</glyph>
<glyph name="uhorn" format="2">
	<unicode hex="01B0"/>
	<advance width="549"/>
	<outline>
		<contour>
			<point x="490" y="450" type="line"/>
			<point x="553" y="464"/>
			<point x="612" y="514"/>
			<point x="612" y="596" type="curve" smooth="yes"/>
			<point x="612" y="615"/>
			<point x="608" y="639"/>
			<point x="600" y="659" type="curve"/>
			<point x="528" y="635" type="line"/>
			<point x="533" y="621"/>
			<point x="537" y="602"/>
			<point x="536" y="590" type="curve" smooth="yes"/>
			<point x="534" y="531"/>
			<point x="495" y="494"/>
			<point x="448" y="489" type="curve"/>
		</contour>
		<component base="u"/>
	</outline>
	<anchor name="aboveLC" x="315" y="512"/>
	<anchor name="belowLC" x="230" y="-22"/>
</glyph>
<glyph name="Ezh" format="2">
	<unicode hex="01B7"/>
	<advance width="534"/>
	<outline>
		<contour>
			<point x="224" y="-12" type="curve" smooth="yes"/>
			<point x="379" y="-12"/>
			<point x="487" y="76"/>
			<point x="487" y="214" type="curve" smooth="yes"/>
			<point x="487" y="316"/>
			<point x="422" y="376"/>
			<point x="311" y="374" type="curve"/>
			<point x="538" y="599" type="line"/>
			<point x="549" y="655" type="line"/>
			<point x="149" y="655" type="line"/>
			<point x="134" y="577" type="line"/>
			<point x="411" y="577" type="line"/>
			<point x="176" y="353" type="line"/>
			<point x="205" y="298" type="line"/>
			<point x="233" y="308"/>
			<point x="249" y="311"/>
			<point x="285" y="311" type="curve" smooth="yes"/>
			<point x="349" y="311"/>
			<point x="392" y="274"/>
			<point x="392" y="202" type="curve" smooth="yes"/>
			<point x="392" y="121"/>
			<point x="319" y="68"/>
			<point x="229" y="68" type="curve" smooth="yes"/>
			<point x="166" y="68"/>
			<point x="105" y="88"/>
			<point x="58" y="141" type="curve"/>
			<point x="12" y="81" type="line"/>
			<point x="64" y="15"/>
			<point x="144" y="-12"/>
		</contour>
	</outline>
	<anchor name="aboveUC" x="340" y="677"/>
	<anchor name="belowLC" x="235" y="-22"/>
</glyph>
<glyph name="clickalveolar" format="2">
	<unicode hex="01C2"/>
	<advance width="371"/>
	<outline>
		<contour>
			<point x="15" y="233" type="line"/>
			<point x="344" y="233" type="line"/>
			<point x="360" y="304" type="line"/>
			<point x="105" y="304" type="line"/>
			<point x="28" y="299" type="line"/>
		</contour>
		<contour>
			<point x="49" y="403" type="line"/>
			<point x="379" y="403" type="line"/>
			<point x="395" y="474" type="line"/>
			<point x="140" y="474" type="line"/>
			<point x="63" y="469" type="line"/>
		</contour>
		<component base="l.a" xOffset="64"/>
	</outline>
	<anchor name="aboveUC" x="277" y="727"/>
	<anchor name="belowLC" x="127" y="-22"/>
</glyph>
<glyph name="clickretroflex" format="2">
	<unicode hex="01C3"/>
	<advance width="266"/>
	<outline>
		<contour>
			<point x="95" y="204" type="line"/>
			<point x="158" y="204" type="line"/>
			<point x="243" y="570" type="line"/>
			<point x="273" y="709" type="line"/>
			<point x="180" y="709" type="line"/>
			<point x="157" y="570" type="line"/>
		</contour>
		<contour>
			<point x="87" y="-12" type="curve" smooth="yes"/>
			<point x="130" y="-12"/>
			<point x="161" y="27"/>
			<point x="161" y="65" type="curve" smooth="yes"/>
			<point x="161" y="98"/>
			<point x="141" y="122"/>
			<point x="109" y="122" type="curve" smooth="yes"/>
			<point x="65" y="122"/>
			<point x="34" y="82"/>
			<point x="34" y="44" type="curve" smooth="yes"/>
			<point x="34" y="12"/>
			<point x="54" y="-12"/>
		</contour>
	</outline>
	<anchor name="aboveUC" x="234" y="727"/>
	<anchor name="belowLC" x="84" y="-22"/>
</glyph>
<glyph name="Gstroke" format="2">
	<unicode hex="01E4"/>
	<advance width="634"/>
	<outline>
		<contour>
			<point x="303" y="-12" type="curve" smooth="yes"/>
			<point x="381" y="-12"/>
			<point x="446" y="16"/>
			<point x="494" y="55" type="curve"/>
			<point x="552" y="346" type="line"/>
			<point x="469" y="346" type="line"/>
			<point x="419" y="103" type="line"/>
			<point x="396" y="83"/>
			<point x="360" y="67"/>
			<point x="318" y="67" type="curve" smooth="yes"/>
			<point x="198" y="67"/>
			<point x="152" y="150"/>
			<point x="152" y="263" type="curve" smooth="yes"/>
			<point x="152" y="418"/>
			<point x="250" y="587"/>
			<point x="399" y="587" type="curve" smooth="yes"/>
			<point x="453" y="587"/>
			<point x="493" y="563"/>
			<point x="520" y="519" type="curve"/>
			<point x="575" y="573" type="line"/>
			<point x="542" y="629"/>
			<point x="483" y="667"/>
			<point x="404" y="667" type="curve" smooth="yes"/>
			<point x="196" y="667"/>
			<point x="57" y="468"/>
			<point x="57" y="255" type="curve" smooth="yes"/>
			<point x="57" y="92"/>
			<point x="145" y="-12"/>
		</contour>
		<contour>
			<point x="313" y="196" type="line"/>
			<point x="594" y="196" type="line"/>
			<point x="608" y="268" type="line"/>
			<point x="456" y="268" type="line"/>
			<point x="327" y="262" type="line"/>
		</contour>
	</outline>
	<anchor name="aboveUC" x="400" y="677"/>
	<anchor name="belowLC" x="285" y="-22"/>
</glyph>
<glyph name="gstroke" format="2">
	<unicode hex="01E5"/>
	<advance width="553"/>
	<outline>
		<contour>
			<point x="253" y="227" type="line"/>
			<point x="542" y="227" type="line"/>
			<point x="556" y="297" type="line"/>
			<point x="379" y="297" type="line"/>
			<point x="267" y="291" type="line"/>
		</contour>
		<component base="g"/>
	</outline>
	<anchor name="aboveLC" x="310" y="512"/>
	<anchor name="belowLC" x="185" y="-203"/>
</glyph>
<glyph name="Oogonek" format="2">
	<unicode hex="01EA"/>
	<advance width="640"/>
	<outline>
		<contour>
			<point x="234" y="-221" type="curve" smooth="yes"/>
			<point x="269" y="-221"/>
			<point x="305" y="-209"/>
			<point x="333" y="-187" type="curve"/>
			<point x="312" y="-138" type="line"/>
			<point x="297" y="-148"/>
			<point x="285" y="-152"/>
			<point x="270" y="-152" type="curve" smooth="yes"/>
			<point x="247" y="-152"/>
			<point x="229" y="-138"/>
			<point x="229" y="-114" type="curve" smooth="yes"/>
			<point x="229" y="-79"/>
			<point x="261" y="-20"/>
			<point x="333" y="-8" type="curve" smooth="yes"/>
			<point x="512" y="23"/>
			<point x="613" y="216"/>
			<point x="613" y="392" type="curve" smooth="yes"/>
			<point x="613" y="560"/>
			<point x="529" y="667"/>
			<point x="382" y="667" type="curve" smooth="yes"/>
			<point x="196" y="667"/>
			<point x="59" y="471"/>
			<point x="59" y="263" type="curve" smooth="yes"/>
			<point x="59" y="95"/>
			<point x="144" y="-12"/>
			<point x="291" y="-12" type="curve"/>
			<point x="249" y="1" type="line"/>
			<point x="201" y="-26"/>
			<point x="143" y="-85"/>
			<point x="143" y="-145" type="curve" smooth="yes"/>
			<point x="143" y="-194"/>
			<point x="182" y="-221"/>
		</contour>
		<contour>
			<point x="295" y="68" type="curve" smooth="yes"/>
			<point x="199" y="68"/>
			<point x="154" y="148"/>
			<point x="154" y="270" type="curve" smooth="yes"/>
			<point x="154" y="423"/>
			<point x="248" y="587"/>
			<point x="377" y="587" type="curve" smooth="yes"/>
			<point x="473" y="587"/>
			<point x="518" y="507"/>
			<point x="518" y="385" type="curve" smooth="yes"/>
			<point x="518" y="232"/>
			<point x="424" y="68"/>
		</contour>
	</outline>
	<anchor name="aboveUC" x="400" y="677"/>
	<anchor name="belowLC" x="235" y="-203"/>
</glyph>
<glyph name="oogonek" format="2">
	<unicode hex="01EB"/>
	<advance width="518"/>
	<outline>
		<contour>
			<point x="173" y="-216" type="curve" smooth="yes"/>
			<point x="210" y="-216"/>
			<point x="242" y="-203"/>
			<point x="270" y="-181" type="curve"/>
			<point x="249" y="-138" type="line"/>
			<point x="234" y="-148"/>
			<point x="223" y="-153"/>
			<point x="206" y="-153" type="curve" smooth="yes"/>
			<point x="184" y="-153"/>
			<point x="168" y="-139"/>
			<point x="168" y="-115" type="curve" smooth="yes"/>
			<point x="168" y="-77"/>
			<point x="194" y="-30"/>
			<point x="269" y="-6" type="curve" smooth="yes"/>
			<point x="400" y="35"/>
			<point x="481" y="158"/>
			<point x="481" y="303" type="curve" smooth="yes"/>
			<point x="481" y="429"/>
			<point x="405" y="501"/>
			<point x="303" y="501" type="curve" smooth="yes"/>
			<point x="171" y="501"/>
			<point x="36" y="371"/>
			<point x="36" y="186" type="curve" smooth="yes"/>
			<point x="36" y="64"/>
			<point x="106" y="-12"/>
			<point x="215" y="-12" type="curve"/>
			<point x="203" y="1" type="line"/>
			<point x="142" y="-26"/>
			<point x="90" y="-83"/>
			<point x="90" y="-140" type="curve" smooth="yes"/>
			<point x="90" y="-190"/>
			<point x="125" y="-216"/>
		</contour>
		<contour>
			<point x="224" y="64" type="curve" smooth="yes"/>
			<point x="163" y="64"/>
			<point x="129" y="109"/>
			<point x="129" y="190" type="curve" smooth="yes"/>
			<point x="129" y="320"/>
			<point x="209" y="425"/>
			<point x="293" y="425" type="curve" smooth="yes"/>
			<point x="355" y="425"/>
			<point x="388" y="380"/>
			<point x="388" y="299" type="curve" smooth="yes"/>
			<point x="388" y="168"/>
			<point x="308" y="64"/>
		</contour>
	</outline>
	<anchor name="aboveLC" x="315" y="512"/>
	<anchor name="belowLC" x="175" y="-203"/>
</glyph>
<glyph name="Wynn" format="2">
	<unicode hex="01F7"/>
	<advance width="559"/>
	<outline>
		<contour>
			<point x="2" y="-157" type="line"/>
			<point x="94" y="-157" type="line"/>
			<point x="126" y="-2" type="line"/>
			<point x="448" y="151"/>
			<point x="565" y="354"/>
			<point x="565" y="521" type="curve" smooth="yes"/>
			<point x="565" y="624"/>
			<point x="513" y="667"/>
			<point x="431" y="667" type="curve" smooth="yes"/>
			<point x="363" y="667"/>
			<point x="298" y="630"/>
			<point x="238" y="578" type="curve"/>
			<point x="253" y="655" type="line"/>
			<point x="164" y="655" type="line"/>
		</contour>
		<contour>
			<point x="143" y="87" type="curve"/>
			<point x="224" y="486" type="line"/>
			<point x="285" y="552"/>
			<point x="352" y="587"/>
			<point x="396" y="587" type="curve" smooth="yes"/>
			<point x="439" y="587"/>
			<point x="473" y="561"/>
			<point x="473" y="492" type="curve" smooth="yes"/>
			<point x="473" y="378"/>
			<point x="383" y="218"/>
		</contour>
	</outline>
	<anchor name="aboveUC" x="389" y="677"/>
	<anchor name="belowLC" x="59" y="-161"/>
</glyph>
<glyph name="Yogh" format="2">
	<unicode hex="021C"/>
	<advance width="482"/>
	<outline>
		<contour>
			<point x="17" y="-168" type="line"/>
			<point x="310" y="-69"/>
			<point x="426" y="53"/>
			<point x="426" y="199" type="curve" smooth="yes"/>
			<point x="426" y="275"/>
			<point x="374" y="322"/>
			<point x="289" y="316" type="curve"/>
			<point x="400" y="384"/>
			<point x="457" y="460"/>
			<point x="457" y="548" type="curve" smooth="yes"/>
			<point x="457" y="618"/>
			<point x="410" y="667"/>
			<point x="326" y="667" type="curve" smooth="yes"/>
			<point x="232" y="667"/>
			<point x="168" y="634"/>
			<point x="79" y="560" type="curve"/>
			<point x="119" y="507" type="line"/>
			<point x="187" y="562"/>
			<point x="234" y="587"/>
			<point x="295" y="587" type="curve" smooth="yes"/>
			<point x="337" y="587"/>
			<point x="364" y="557"/>
			<point x="364" y="514" type="curve" smooth="yes"/>
			<point x="364" y="449"/>
			<point x="326" y="395"/>
			<point x="112" y="284" type="curve"/>
			<point x="140" y="227" type="line"/>
			<point x="188" y="253"/>
			<point x="218" y="261"/>
			<point x="251" y="261" type="curve" smooth="yes"/>
			<point x="302" y="261"/>
			<point x="333" y="234"/>
			<point x="333" y="186" type="curve" smooth="yes"/>
			<point x="333" y="104"/>
			<point x="258" y="-5"/>
			<point x="-7" y="-102" type="curve"/>
		</contour>
	</outline>
	<anchor name="aboveUC" x="315" y="677"/>
	<anchor name="belowLC" x="189" y="-161"/>
</glyph>
<glyph name="Nlong" format="2">
	<unicode hex="0220"/>
	<advance width="634"/>
	<outline>
		<contour>
			<point x="372" y="-182" type="line"/>
			<point x="466" y="-182" type="line"/>
			<point x="579" y="374" type="line" smooth="yes"/>
			<point x="588" y="419"/>
			<point x="592" y="459"/>
			<point x="592" y="495" type="curve" smooth="yes"/>
			<point x="592" y="614"/>
			<point x="530" y="667"/>
			<point x="429" y="667" type="curve" smooth="yes"/>
			<point x="369" y="667"/>
			<point x="296" y="636"/>
			<point x="238" y="578" type="curve"/>
			<point x="252" y="655" type="line"/>
			<point x="164" y="655" type="line"/>
			<point x="33" y="0" type="line"/>
			<point x="126" y="0" type="line"/>
			<point x="224" y="486" type="line"/>
			<point x="282" y="557"/>
			<point x="346" y="587"/>
			<point x="392" y="587" type="curve" smooth="yes"/>
			<point x="455" y="587"/>
			<point x="497" y="554"/>
			<point x="497" y="471" type="curve" smooth="yes"/>
			<point x="497" y="438"/>
			<point x="490" y="402"/>
			<point x="483" y="365" type="curve" smooth="yes"/>
		</contour>
	</outline>
	<anchor name="aboveUC" x="419" y="677"/>
	<anchor name="belowLC" x="225" y="-203"/>
</glyph>
<glyph name="OU" format="2">
	<unicode hex="0222"/>
	<advance width="653"/>
	<outline>
		<contour>
			<point x="292" y="-12" type="curve" smooth="yes"/>
			<point x="491" y="-12"/>
			<point x="606" y="89"/>
			<point x="606" y="224" type="curve" smooth="yes"/>
			<point x="606" y="314"/>
			<point x="549" y="372"/>
			<point x="455" y="398" type="curve"/>
			<point x="451" y="372" type="line"/>
			<point x="542" y="396"/>
			<point x="591" y="451"/>
			<point x="621" y="581" type="curve" smooth="yes"/>
			<point x="638" y="655" type="line"/>
			<point x="547" y="655" type="line"/>
			<point x="532" y="585" type="line" smooth="yes"/>
			<point x="503" y="451"/>
			<point x="451" y="419"/>
			<point x="379" y="419" type="curve" smooth="yes"/>
			<point x="292" y="419"/>
			<point x="252" y="456"/>
			<point x="252" y="537" type="curve" smooth="yes"/>
			<point x="252" y="560"/>
			<point x="253" y="583"/>
			<point x="260" y="610" type="curve" smooth="yes"/>
			<point x="270" y="655" type="line"/>
			<point x="177" y="655" type="line"/>
			<point x="168" y="620" type="line" smooth="yes"/>
			<point x="159" y="588"/>
			<point x="159" y="558"/>
			<point x="159" y="531" type="curve" smooth="yes"/>
			<point x="159" y="453"/>
			<point x="195" y="397"/>
			<point x="281" y="374" type="curve"/>
			<point x="285" y="399" type="line"/>
			<point x="167" y="381"/>
			<point x="48" y="305"/>
			<point x="48" y="177" type="curve" smooth="yes"/>
			<point x="48" y="54"/>
			<point x="149" y="-12"/>
		</contour>
		<contour>
			<point x="301" y="68" type="curve" smooth="yes"/>
			<point x="209" y="68"/>
			<point x="143" y="114"/>
			<point x="143" y="188" type="curve" smooth="yes"/>
			<point x="143" y="279"/>
			<point x="229" y="349"/>
			<point x="354" y="349" type="curve" smooth="yes"/>
			<point x="445" y="349"/>
			<point x="510" y="302"/>
			<point x="510" y="220" type="curve" smooth="yes"/>
			<point x="510" y="135"/>
			<point x="425" y="68"/>
		</contour>
	</outline>
	<anchor name="aboveUC" x="405" y="677"/>
	<anchor name="belowLC" x="285" y="-22"/>
</glyph>
<glyph name="ou" format="2">
	<unicode hex="0223"/>
	<advance width="530"/>
	<outline>
		<contour>
			<point x="228" y="68" type="curve" smooth="yes"/>
			<point x="164" y="68"/>
			<point x="118" y="111"/>
			<point x="118" y="180" type="curve" smooth="yes"/>
			<point x="118" y="252"/>
			<point x="170" y="328"/>
			<point x="248" y="368" type="curve"/>
			<point x="333" y="329"/>
			<point x="373" y="280"/>
			<point x="373" y="209" type="curve" smooth="yes"/>
			<point x="373" y="137"/>
			<point x="314" y="68"/>
		</contour>
		<contour>
			<point x="216" y="-12" type="curve" smooth="yes"/>
			<point x="370" y="-12"/>
			<point x="472" y="102"/>
			<point x="472" y="229" type="curve" smooth="yes"/>
			<point x="472" y="312"/>
			<point x="430" y="365"/>
			<point x="381" y="399" type="curve"/>
			<point x="381" y="403" type="line"/>
			<point x="471" y="452"/>
			<point x="527" y="552"/>
			<point x="527" y="641" type="curve" smooth="yes"/>
			<point x="527" y="666"/>
			<point x="523" y="686"/>
			<point x="513" y="712" type="curve"/>
			<point x="431" y="687" type="line"/>
			<point x="437" y="671"/>
			<point x="441" y="651"/>
			<point x="441" y="633" type="curve" smooth="yes"/>
			<point x="441" y="563"/>
			<point x="406" y="483"/>
			<point x="329" y="431" type="curve"/>
			<point x="246" y="472"/>
			<point x="219" y="513"/>
			<point x="219" y="572" type="curve" smooth="yes"/>
			<point x="219" y="615"/>
			<point x="235" y="655"/>
			<point x="266" y="696" type="curve"/>
			<point x="189" y="721" type="line"/>
			<point x="153" y="677"/>
			<point x="126" y="621"/>
			<point x="126" y="555" type="curve" smooth="yes"/>
			<point x="126" y="488"/>
			<point x="156" y="443"/>
			<point x="200" y="403" type="curve"/>
			<point x="200" y="399" type="line"/>
			<point x="110" y="358"/>
			<point x="24" y="279"/>
			<point x="24" y="161" type="curve" smooth="yes"/>
			<point x="24" y="59"/>
			<point x="101" y="-12"/>
		</contour>
	</outline>
	<anchor name="aboveUC" x="350" y="727"/>
	<anchor name="belowLC" x="210" y="-22"/>
</glyph>
<glyph name="dotlessj" format="2">
	<unicode hex="0237"/>
	<advance width="245"/>
	<outline>
		<contour>
			<point x="-45" y="-212" type="curve" smooth="yes"/>
			<point x="46" y="-212"/>
			<point x="90" y="-143"/>
			<point x="109" y="-50" type="curve" smooth="yes"/>
			<point x="218" y="489" type="line"/>
			<point x="125" y="489" type="line"/>
			<point x="17" y="-49" type="line" smooth="yes"/>
			<point x="4" y="-106"/>
			<point x="-15" y="-137"/>
			<point x="-52" y="-137" type="curve" smooth="yes"/>
			<point x="-69" y="-137"/>
			<point x="-84" y="-134"/>
			<point x="-98" y="-127" type="curve"/>
			<point x="-124" y="-193" type="line"/>
			<point x="-101" y="-207"/>
			<point x="-75" y="-212"/>
		</contour>
	</outline>
	<anchor name="aboveLC" x="175" y="512"/>
	<anchor name="belowLC" x="-16" y="-203"/>
</glyph>
<glyph name="Astroke" format="2">
	<unicode hex="023A"/>
	<advance width="520"/>
	<outline>
		<contour>
			<point x="125" y="-53" type="line"/>
			<point x="475" y="693" type="line"/>
			<point x="438" y="708" type="line"/>
			<point x="88" y="-37" type="line"/>
		</contour>
		<component base="A"/>
	</outline>
	<anchor name="aboveUC" x="349" y="677"/>
	<anchor name="belowLC" x="220" y="-22"/>
</glyph>
<glyph name="Cstroke" format="2">
	<unicode hex="023B"/>
	<advance width="555"/>
	<outline>
		<contour>
			<point x="158" y="-53" type="line"/>
			<point x="516" y="693" type="line"/>
			<point x="480" y="708" type="line"/>
			<point x="121" y="-37" type="line"/>
		</contour>
		<component base="C"/>
	</outline>
	<anchor name="aboveUC" x="395" y="677"/>
	<anchor name="belowLC" x="265" y="-22"/>
</glyph>
<glyph name="cstroke" format="2">
	<unicode hex="023C"/>
	<advance width="437"/>
	<outline>
		<contour>
			<point x="143" y="-55" type="line"/>
			<point x="418" y="534" type="line"/>
			<point x="383" y="549" type="line"/>
			<point x="108" y="-39" type="line"/>
		</contour>
		<component base="c"/>
	</outline>
	<anchor name="aboveLC" x="300" y="512"/>
	<anchor name="belowLC" x="200" y="-22"/>
</glyph>
<glyph name="Lbar" format="2">
	<unicode hex="023D"/>
	<advance width="492"/>
	<outline>
		<contour>
			<point x="42" y="322" type="line"/>
			<point x="376" y="322" type="line"/>
			<point x="390" y="393" type="line"/>
			<point x="134" y="393" type="line"/>
			<point x="56" y="388" type="line"/>
		</contour>
		<component base="L" xOffset="20"/>
	</outline>
	<anchor name="aboveUC" x="239" y="677"/>
	<anchor name="belowLC" x="245" y="-22"/>
</glyph>
<glyph name="Tstroke" format="2">
	<unicode hex="023E"/>
	<advance width="515"/>
	<outline>
		<contour>
			<point x="5" y="-35" type="line"/>
			<point x="619" y="676" type="line"/>
			<point x="591" y="700" type="line"/>
			<point x="-23" y="-10" type="line"/>
		</contour>
		<component base="T"/>
	</outline>
	<anchor name="aboveUC" x="340" y="677"/>
	<anchor name="belowLC" x="205" y="-22"/>
</glyph>
<glyph name="Glottalstop" format="2">
	<unicode hex="0241"/>
	<advance width="494"/>
	<outline>
		<contour>
			<point x="131" y="0" type="line"/>
			<point x="225" y="0" type="line"/>
			<point x="270" y="226" type="line"/>
			<point x="401" y="274"/>
			<point x="500" y="375"/>
			<point x="500" y="494" type="curve" smooth="yes"/>
			<point x="500" y="608"/>
			<point x="420" y="667"/>
			<point x="315" y="667" type="curve" smooth="yes"/>
			<point x="223" y="667"/>
			<point x="139" y="625"/>
			<point x="79" y="574" type="curve"/>
			<point x="119" y="513" type="line"/>
			<point x="168" y="552"/>
			<point x="232" y="587"/>
			<point x="297" y="587" type="curve" smooth="yes"/>
			<point x="363" y="587"/>
			<point x="405" y="548"/>
			<point x="405" y="477" type="curve" smooth="yes"/>
			<point x="405" y="397"/>
			<point x="341" y="324"/>
			<point x="187" y="272" type="curve"/>
		</contour>
	</outline>
	<anchor name="aboveUC" x="325" y="677"/>
	<anchor name="belowLC" x="175" y="-22"/>
</glyph>
<glyph name="glottalstoplatin" format="2">
	<unicode hex="0242"/>
	<advance width="429"/>
	<outline>
		<contour>
			<point x="96" y="0" type="line"/>
			<point x="189" y="0" type="line"/>
			<point x="219" y="152" type="line"/>
			<point x="330" y="194"/>
			<point x="397" y="274"/>
			<point x="397" y="366" type="curve" smooth="yes"/>
			<point x="397" y="452"/>
			<point x="331" y="501"/>
			<point x="245" y="501" type="curve" smooth="yes"/>
			<point x="165" y="501"/>
			<point x="103" y="463"/>
			<point x="53" y="419" type="curve"/>
			<point x="91" y="365" type="line"/>
			<point x="128" y="397"/>
			<point x="173" y="425"/>
			<point x="225" y="425" type="curve" smooth="yes"/>
			<point x="273" y="425"/>
			<point x="304" y="397"/>
			<point x="304" y="347" type="curve" smooth="yes"/>
			<point x="304" y="285"/>
			<point x="252" y="231"/>
			<point x="134" y="188" type="curve"/>
		</contour>
	</outline>
	<anchor name="aboveLC" x="265" y="512"/>
	<anchor name="belowLC" x="145" y="-22"/>
</glyph>
<glyph name="Bstroke" format="2">
	<unicode hex="0243"/>
	<advance width="597"/>
	<outline>
		<contour>
			<point x="52" y="0" type="line"/>
			<point x="268" y="0" type="line" smooth="yes"/>
			<point x="424" y="0"/>
			<point x="543" y="64"/>
			<point x="543" y="216" type="curve" smooth="yes"/>
			<point x="543" y="292"/>
			<point x="495" y="332"/>
			<point x="425" y="348" type="curve"/>
			<point x="425" y="352" type="line"/>
			<point x="500" y="370"/>
			<point x="571" y="431"/>
			<point x="571" y="514" type="curve" smooth="yes"/>
			<point x="571" y="608"/>
			<point x="491" y="655"/>
			<point x="364" y="655" type="curve" smooth="yes"/>
			<point x="182" y="655" type="line"/>
		</contour>
		<contour>
			<point x="4" y="164" type="line"/>
			<point x="320" y="164" type="line"/>
			<point x="335" y="240" type="line"/>
			<point x="102" y="240" type="line"/>
			<point x="20" y="235" type="line"/>
		</contour>
		<contour>
			<point x="158" y="75" type="line"/>
			<point x="208" y="315" type="line"/>
			<point x="315" y="315" type="line" smooth="yes"/>
			<point x="403" y="315"/>
			<point x="453" y="278"/>
			<point x="453" y="215" type="curve" smooth="yes"/>
			<point x="453" y="114"/>
			<point x="380" y="75"/>
			<point x="266" y="75" type="curve" smooth="yes"/>
		</contour>
		<contour>
			<point x="222" y="383" type="line"/>
			<point x="261" y="581" type="line"/>
			<point x="341" y="581" type="line" smooth="yes"/>
			<point x="433" y="581"/>
			<point x="475" y="555"/>
			<point x="475" y="500" type="curve" smooth="yes"/>
			<point x="475" y="431"/>
			<point x="420" y="383"/>
			<point x="306" y="383" type="curve" smooth="yes"/>
		</contour>
	</outline>
</glyph>
<glyph name="Ubar" format="2">
	<unicode hex="0244"/>
	<advance width="663"/>
	<outline>
		<contour>
			<point x="38" y="322" type="line"/>
			<point x="654" y="322" type="line"/>
			<point x="666" y="393" type="line"/>
			<point x="137" y="393" type="line"/>
			<point x="52" y="388" type="line"/>
		</contour>
		<component base="U" xOffset="20"/>
	</outline>
	<anchor name="aboveUC" x="415" y="677"/>
	<anchor name="belowLC" x="284" y="-22"/>
</glyph>
<glyph name="Jstroke" format="2">
	<unicode hex="0248"/>
	<advance width="486"/>
	<outline>
		<contour>
			<point x="186" y="322" type="line"/>
			<point x="472" y="322" type="line"/>
			<point x="486" y="393" type="line"/>
			<point x="315" y="393" type="line"/>
			<point x="200" y="388" type="line"/>
		</contour>
		<component base="J"/>
	</outline>
	<anchor name="aboveUC" x="425" y="677"/>
	<anchor name="belowLC" x="159" y="-22"/>
</glyph>
<glyph name="aturned" format="2">
	<unicode hex="0250"/>
	<advance width="494"/>
	<outline>
		<contour>
			<point x="219" y="-12" type="curve" smooth="yes"/>
			<point x="283" y="-12"/>
			<point x="348" y="13"/>
			<point x="408" y="48" type="curve"/>
			<point x="381" y="109" type="line"/>
			<point x="328" y="80"/>
			<point x="283" y="63"/>
			<point x="239" y="63" type="curve" smooth="yes"/>
			<point x="179" y="63"/>
			<point x="151" y="87"/>
			<point x="151" y="145" type="curve" smooth="yes"/>
			<point x="151" y="155"/>
			<point x="153" y="167"/>
			<point x="157" y="181" type="curve"/>
			<point x="367" y="199"/>
			<point x="476" y="274"/>
			<point x="476" y="397" type="curve" smooth="yes"/>
			<point x="476" y="461"/>
			<point x="432" y="501"/>
			<point x="368" y="501" type="curve" smooth="yes"/>
			<point x="306" y="501"/>
			<point x="245" y="465"/>
			<point x="198" y="426" type="curve"/>
			<point x="196" y="426" type="line"/>
			<point x="200" y="489" type="line"/>
			<point x="125" y="489" type="line"/>
			<point x="68" y="203" type="line" smooth="yes"/>
			<point x="63" y="180"/>
			<point x="60" y="158"/>
			<point x="60" y="139" type="curve" smooth="yes"/>
			<point x="60" y="33"/>
			<point x="119" y="-12"/>
		</contour>
		<contour>
			<point x="167" y="246" type="curve"/>
			<point x="190" y="361" type="line"/>
			<point x="236" y="402"/>
			<point x="282" y="427"/>
			<point x="324" y="427" type="curve" smooth="yes"/>
			<point x="359" y="427"/>
			<point x="385" y="407"/>
			<point x="385" y="366" type="curve" smooth="yes"/>
			<point x="385" y="299"/>
			<point x="305" y="257"/>
		</contour>
	</outline>
	<anchor name="aboveLC" x="315" y="512"/>
	<anchor name="belowLC" x="225" y="-22"/>
	<anchor name="ogonekLC" x="275" y="0"/>
</glyph>
<glyph name="alphalatinturned" format="2">
	<unicode hex="0252"/>
	<advance width="544"/>
	<outline>
		<contour>
			<point x="244" y="-12" type="curve" smooth="yes"/>
			<point x="379" y="-12"/>
			<point x="507" y="136"/>
			<point x="507" y="323" type="curve" smooth="yes"/>
			<point x="507" y="438"/>
			<point x="453" y="501"/>
			<point x="367" y="501" type="curve" smooth="yes"/>
			<point x="309" y="501"/>
			<point x="250" y="467"/>
			<point x="201" y="423" type="curve"/>
			<point x="199" y="423" type="line"/>
			<point x="202" y="435"/>
			<point x="203" y="441"/>
			<point x="203" y="444" type="curve" smooth="yes"/>
			<point x="196" y="485"/>
			<point x="170" y="499"/>
			<point x="137" y="499" type="curve" smooth="yes"/>
			<point x="116" y="499"/>
			<point x="99" y="495"/>
			<point x="83" y="490" type="curve"/>
			<point x="82" y="420" type="line"/>
			<point x="91" y="423"/>
			<point x="94" y="423"/>
			<point x="97" y="423" type="curve" smooth="yes"/>
			<point x="107" y="423"/>
			<point x="112" y="417"/>
			<point x="112" y="407" type="curve" smooth="yes"/>
			<point x="112" y="404"/>
			<point x="112" y="399"/>
			<point x="110" y="391" type="curve"/>
			<point x="31" y="0" type="line"/>
			<point x="108" y="0" type="line"/>
			<point x="128" y="59" type="line"/>
			<point x="131" y="59" type="line"/>
			<point x="153" y="16"/>
			<point x="194" y="-12"/>
		</contour>
		<contour>
			<point x="239" y="65" type="curve" smooth="yes"/>
			<point x="205" y="65"/>
			<point x="174" y="84"/>
			<point x="149" y="130" type="curve"/>
			<point x="194" y="349" type="line"/>
			<point x="235" y="398"/>
			<point x="290" y="424"/>
			<point x="331" y="424" type="curve" smooth="yes"/>
			<point x="381" y="424"/>
			<point x="412" y="387"/>
			<point x="412" y="310" type="curve" smooth="yes"/>
			<point x="412" y="180"/>
			<point x="329" y="65"/>
		</contour>
	</outline>
	<anchor name="aboveLC" x="337" y="512"/>
	<anchor name="belowLC" x="237" y="-22"/>
</glyph>
<glyph name="oopen" format="2">
	<unicode hex="0254"/>
	<advance width="443"/>
	<outline>
		<contour>
			<point x="128" y="-12" type="curve" smooth="yes"/>
			<point x="272" y="-12"/>
			<point x="407" y="109"/>
			<point x="407" y="301" type="curve" smooth="yes"/>
			<point x="407" y="428"/>
			<point x="333" y="501"/>
			<point x="234" y="501" type="curve" smooth="yes"/>
			<point x="165" y="501"/>
			<point x="111" y="476"/>
			<point x="68" y="440" type="curve"/>
			<point x="107" y="382" type="line"/>
			<point x="142" y="411"/>
			<point x="173" y="425"/>
			<point x="213" y="425" type="curve" smooth="yes"/>
			<point x="273" y="425"/>
			<point x="313" y="375"/>
			<point x="313" y="290" type="curve" smooth="yes"/>
			<point x="313" y="156"/>
			<point x="231" y="64"/>
			<point x="132" y="64" type="curve" smooth="yes"/>
			<point x="91" y="64"/>
			<point x="58" y="83"/>
			<point x="33" y="110" type="curve"/>
			<point x="-16" y="51" type="line"/>
			<point x="13" y="14"/>
			<point x="64" y="-12"/>
		</contour>
	</outline>
	<anchor name="aboveLC" x="254" y="512"/>
	<anchor name="baseLC" x="155" y="0"/>
	<anchor name="belowLC" x="149" y="-22"/>
	<anchor name="ogonekLC" x="155" y="0"/>
</glyph>
<glyph name="ccurl" format="2">
	<unicode hex="0255"/>
	<advance width="456"/>
	<outline>
		<contour>
			<point x="55" y="-71" type="line"/>
			<point x="124" y="67"/>
			<point x="227" y="158"/>
			<point x="293" y="158" type="curve" smooth="yes"/>
			<point x="324" y="158"/>
			<point x="336" y="138"/>
			<point x="333" y="119" type="curve" smooth="yes"/>
			<point x="329" y="89"/>
			<point x="292" y="64"/>
			<point x="243" y="64" type="curve" smooth="yes"/>
			<point x="167" y="64"/>
			<point x="130" y="109"/>
			<point x="130" y="190" type="curve" smooth="yes"/>
			<point x="130" y="318"/>
			<point x="213" y="425"/>
			<point x="306" y="425" type="curve" smooth="yes"/>
			<point x="341" y="425"/>
			<point x="364" y="412"/>
			<point x="387" y="387" type="curve"/>
			<point x="439" y="441" type="line"/>
			<point x="413" y="474"/>
			<point x="371" y="501"/>
			<point x="312" y="501" type="curve" smooth="yes"/>
			<point x="164" y="501"/>
			<point x="35" y="364"/>
			<point x="35" y="186" type="curve" smooth="yes"/>
			<point x="35" y="60"/>
			<point x="114" y="-12"/>
			<point x="225" y="-12" type="curve" smooth="yes"/>
			<point x="325" y="-12"/>
			<point x="405" y="53"/>
			<point x="410" y="131" type="curve" smooth="yes"/>
			<point x="414" y="188"/>
			<point x="377" y="228"/>
			<point x="313" y="228" type="curve" smooth="yes"/>
			<point x="208" y="228"/>
			<point x="91" y="132"/>
			<point x="-10" y="-41" type="curve"/>
		</contour>
	</outline>
	<anchor name="aboveLC" x="295" y="512"/>
	<anchor name="belowLC" x="230" y="-22"/>
</glyph>
<glyph name="dtail" format="2">
	<unicode hex="0256"/>
	<advance width="541"/>
	<outline>
		<contour>
			<point x="401" y="-212" type="curve" smooth="yes"/>
			<point x="430" y="-212"/>
			<point x="463" y="-203"/>
			<point x="480" y="-196" type="curve"/>
			<point x="465" y="-128" type="line"/>
			<point x="455" y="-132"/>
			<point x="444" y="-136"/>
			<point x="431" y="-136" type="curve" smooth="yes"/>
			<point x="409" y="-136"/>
			<point x="400" y="-125"/>
			<point x="400" y="-98" type="curve" smooth="yes"/>
			<point x="400" y="-86"/>
			<point x="401" y="-77"/>
			<point x="404" y="-61" type="curve" smooth="yes"/>
			<point x="558" y="709" type="line"/>
			<point x="466" y="709" type="line"/>
			<point x="430" y="527" type="line"/>
			<point x="415" y="432" type="line"/>
			<point x="412" y="432" type="line"/>
			<point x="389" y="474"/>
			<point x="350" y="501"/>
			<point x="300" y="501" type="curve" smooth="yes"/>
			<point x="165" y="501"/>
			<point x="37" y="353"/>
			<point x="37" y="166" type="curve" smooth="yes"/>
			<point x="37" y="51"/>
			<point x="91" y="-12"/>
			<point x="177" y="-12" type="curve" smooth="yes"/>
			<point x="236" y="-12"/>
			<point x="296" y="21"/>
			<point x="344" y="71" type="curve"/>
			<point x="346" y="71" type="line"/>
			<point x="317" y="-62"/>
			<point x="312" y="-93"/>
			<point x="312" y="-123" type="curve" smooth="yes"/>
			<point x="312" y="-181"/>
			<point x="341" y="-212"/>
		</contour>
		<contour>
			<point x="213" y="65" type="curve" smooth="yes"/>
			<point x="164" y="65"/>
			<point x="132" y="101"/>
			<point x="132" y="179" type="curve" smooth="yes"/>
			<point x="132" y="309"/>
			<point x="215" y="424"/>
			<point x="305" y="424" type="curve" smooth="yes"/>
			<point x="338" y="424"/>
			<point x="371" y="405"/>
			<point x="396" y="358" type="curve"/>
			<point x="354" y="152" type="line"/>
			<point x="309" y="91"/>
			<point x="260" y="65"/>
		</contour>
	</outline>
	<anchor name="aboveUC" x="345" y="727"/>
	<anchor name="belowLC" x="200" y="-100"/>
</glyph>
<glyph name="dhook" format="2">
	<unicode hex="0257"/>
	<advance width="541"/>
	<outline>
		<contour>
			<point x="177" y="-12" type="curve" smooth="yes"/>
			<point x="236" y="-12"/>
			<point x="296" y="21"/>
			<point x="343" y="70" type="curve"/>
			<point x="346" y="70" type="line"/>
			<point x="340" y="0" type="line"/>
			<point x="415" y="0" type="line"/>
			<point x="528" y="562" type="line" smooth="yes"/>
			<point x="541" y="625"/>
			<point x="564" y="647"/>
			<point x="600" y="647" type="curve" smooth="yes"/>
			<point x="611" y="647"/>
			<point x="622" y="644"/>
			<point x="628" y="641" type="curve"/>
			<point x="656" y="709" type="line"/>
			<point x="643" y="715"/>
			<point x="623" y="721"/>
			<point x="603" y="721" type="curve" smooth="yes"/>
			<point x="510" y="721"/>
			<point x="460" y="665"/>
			<point x="441" y="573" type="curve" smooth="yes"/>
			<point x="431" y="523" type="line"/>
			<point x="415" y="432" type="line"/>
			<point x="412" y="432" type="line"/>
			<point x="389" y="474"/>
			<point x="350" y="501"/>
			<point x="300" y="501" type="curve" smooth="yes"/>
			<point x="165" y="501"/>
			<point x="37" y="353"/>
			<point x="37" y="166" type="curve" smooth="yes"/>
			<point x="37" y="51"/>
			<point x="91" y="-12"/>
		</contour>
		<contour>
			<point x="213" y="65" type="curve" smooth="yes"/>
			<point x="164" y="65"/>
			<point x="132" y="101"/>
			<point x="132" y="179" type="curve" smooth="yes"/>
			<point x="132" y="309"/>
			<point x="215" y="424"/>
			<point x="305" y="424" type="curve" smooth="yes"/>
			<point x="338" y="424"/>
			<point x="371" y="405"/>
			<point x="396" y="358" type="curve"/>
			<point x="354" y="152" type="line"/>
			<point x="309" y="91"/>
			<point x="260" y="65"/>
		</contour>
	</outline>
	<anchor name="aboveUC" x="345" y="727"/>
	<anchor name="belowLC" x="215" y="-22"/>
</glyph>
<glyph name="ereversed" format="2">
	<unicode hex="0258"/>
	<advance width="484"/>
	<outline>
		<contour>
			<point x="175" y="-12" type="curve" smooth="yes"/>
			<point x="346" y="-12"/>
			<point x="451" y="128"/>
			<point x="451" y="316" type="curve" smooth="yes"/>
			<point x="451" y="430"/>
			<point x="380" y="501"/>
			<point x="281" y="501" type="curve" smooth="yes"/>
			<point x="124" y="501"/>
			<point x="43" y="352"/>
			<point x="37" y="219" type="curve"/>
			<point x="366" y="219" type="line"/>
			<point x="383" y="289" type="line"/>
			<point x="124" y="289" type="line"/>
			<point x="132" y="345"/>
			<point x="179" y="427"/>
			<point x="268" y="427" type="curve" smooth="yes"/>
			<point x="323" y="427"/>
			<point x="360" y="383"/>
			<point x="360" y="310" type="curve" smooth="yes"/>
			<point x="360" y="165"/>
			<point x="283" y="63"/>
			<point x="180" y="63" type="curve" smooth="yes"/>
			<point x="125" y="63"/>
			<point x="87" y="76"/>
			<point x="55" y="100" type="curve"/>
			<point x="17" y="43" type="line"/>
			<point x="56" y="8"/>
			<point x="109" y="-12"/>
		</contour>
	</outline>
	<anchor name="aboveLC" x="295" y="512"/>
	<anchor name="belowLC" x="195" y="-22"/>
	<anchor name="ogonekLC" x="215" y="0"/>
</glyph>
<glyph name="schwa" format="2">
	<unicode hex="0259"/>
	<advance width="484"/>
	<outline>
		<contour>
			<point x="193" y="-12" type="curve" smooth="yes"/>
			<point x="320" y="-12"/>
			<point x="446" y="112"/>
			<point x="446" y="295" type="curve" smooth="yes"/>
			<point x="446" y="427"/>
			<point x="378" y="501"/>
			<point x="267" y="501" type="curve" smooth="yes"/>
			<point x="202" y="501"/>
			<point x="148" y="478"/>
			<point x="109" y="447" type="curve"/>
			<point x="142" y="392" type="line"/>
			<point x="174" y="412"/>
			<point x="209" y="427"/>
			<point x="248" y="427" type="curve" smooth="yes"/>
			<point x="313" y="427"/>
			<point x="354" y="395"/>
			<point x="354" y="280" type="curve" smooth="yes"/>
			<point x="354" y="141"/>
			<point x="272" y="62"/>
			<point x="203" y="62" type="curve" smooth="yes"/>
			<point x="132" y="62"/>
			<point x="107" y="109"/>
			<point x="107" y="161" type="curve" smooth="yes"/>
			<point x="107" y="178"/>
			<point x="106" y="189"/>
			<point x="111" y="206" type="curve"/>
			<point x="371" y="206" type="line"/>
			<point x="379" y="276" type="line"/>
			<point x="47" y="276" type="line"/>
			<point x="38" y="249"/>
			<point x="28" y="211"/>
			<point x="28" y="167" type="curve" smooth="yes"/>
			<point x="28" y="65"/>
			<point x="73" y="-12"/>
		</contour>
	</outline>
	<anchor name="aboveLC" x="290" y="512"/>
	<anchor name="belowLC" x="180" y="-22"/>
	<anchor name="ogonekLC" x="185" y="0"/>
</glyph>
<glyph name="schwahookrhotic" format="2">
	<unicode hex="025A"/>
	<advance width="658"/>
	<outline>
		<contour>
			<point x="188" y="-12" type="curve" smooth="yes"/>
			<point x="328" y="-12"/>
			<point x="444" y="125"/>
			<point x="444" y="304" type="curve" smooth="yes"/>
			<point x="444" y="435"/>
			<point x="372" y="501"/>
			<point x="269" y="501" type="curve" smooth="yes"/>
			<point x="202" y="501"/>
			<point x="156" y="482"/>
			<point x="105" y="454" type="curve"/>
			<point x="134" y="393" type="line"/>
			<point x="172" y="413"/>
			<point x="207" y="427"/>
			<point x="251" y="427" type="curve" smooth="yes"/>
			<point x="309" y="427"/>
			<point x="356" y="389"/>
			<point x="356" y="300" type="curve" smooth="yes"/>
			<point x="356" y="157"/>
			<point x="280" y="63"/>
			<point x="197" y="63" type="curve" smooth="yes"/>
			<point x="131" y="63"/>
			<point x="95" y="103"/>
			<point x="95" y="163" type="curve"/>
			<point x="523" y="322" type="line"/>
			<point x="518" y="303"/>
			<point x="516" y="285"/>
			<point x="516" y="269" type="curve" smooth="yes"/>
			<point x="516" y="216"/>
			<point x="553" y="194"/>
			<point x="592" y="194" type="curve" smooth="yes"/>
			<point x="624" y="194"/>
			<point x="648" y="205"/>
			<point x="666" y="218" type="curve"/>
			<point x="649" y="266" type="line"/>
			<point x="638" y="259"/>
			<point x="626" y="254"/>
			<point x="612" y="254" type="curve" smooth="yes"/>
			<point x="587" y="254"/>
			<point x="574" y="265"/>
			<point x="574" y="301" type="curve" smooth="yes"/>
			<point x="574" y="324"/>
			<point x="578" y="356"/>
			<point x="592" y="403" type="curve"/>
			<point x="581" y="416" type="line"/>
			<point x="18" y="206" type="line"/>
			<point x="17" y="200"/>
			<point x="15" y="190"/>
			<point x="15" y="180" type="curve" smooth="yes"/>
			<point x="15" y="70"/>
			<point x="73" y="-12"/>
		</contour>
	</outline>
	<anchor name="aboveLC" x="275" y="512"/>
	<anchor name="belowLC" x="204" y="-22"/>
</glyph>
